{"glyphs":{"0":{"ha":947,"x_min":94,"x_max":851,"o":"m 469 -11 q 295 33 367 -11 q 178 154 223 78 q 114 327 134 230 q 96 531 94 425 q 149 805 98 689 q 288 983 201 920 q 485 1047 375 1047 q 660 1006 590 1047 q 773 893 731 965 q 833 727 815 821 q 851 526 851 633 q 801 245 849 366 q 668 57 753 124 q 469 -11 583 -11 m 474 135 q 630 230 578 133 q 682 517 682 327 q 660 715 682 628 q 593 850 639 801 q 476 900 548 900 q 320 806 374 900 q 266 537 266 711 q 288 338 266 429 q 356 192 310 247 q 474 135 402 137 z "},"1":{"ha":621,"x_min":76,"x_max":413,"o":"m 247 0 l 247 853 q 170 833 208 842 q 94 817 133 824 l 76 913 q 149 939 110 922 q 226 975 188 956 q 294 1014 264 994 q 339 1046 324 1033 l 413 1033 l 413 0 l 247 0 z "},"2":{"ha":858,"x_min":87,"x_max":771,"o":"m 111 0 l 87 82 q 219 181 151 125 q 347 302 286 238 q 457 436 408 367 q 534 577 506 506 q 562 716 562 648 q 516 858 562 809 q 387 908 469 908 q 255 879 316 908 q 158 811 194 850 l 90 908 q 163 967 117 936 q 272 1019 208 998 q 413 1040 335 1040 q 594 998 524 1040 q 698 884 665 956 q 731 724 731 813 q 681 513 731 620 q 542 308 631 406 q 338 129 453 210 l 771 135 l 771 0 l 111 0 z "},"3":{"ha":781,"x_min":67,"x_max":710,"o":"m 101 3 l 99 112 q 157 103 128 107 q 213 100 187 100 q 386 125 311 100 q 502 193 460 149 q 544 294 544 238 q 520 395 544 352 q 446 461 497 439 q 311 478 394 483 l 244 461 l 213 569 q 281 587 248 576 q 344 610 315 597 q 454 684 414 639 q 494 785 494 730 q 450 888 496 857 q 338 918 405 918 q 214 895 265 918 q 126 847 163 872 l 67 940 q 137 985 93 961 q 238 1027 181 1010 q 353 1044 294 1044 q 506 1017 438 1044 q 614 936 574 990 q 654 806 654 883 q 622 686 654 740 q 538 593 590 632 q 423 534 485 555 l 423 554 q 581 519 517 556 q 677 426 644 483 q 710 304 710 369 q 654 148 710 221 q 495 31 598 76 q 249 -14 392 -14 q 171 -9 208 -14 q 101 3 134 -3 z "},"4":{"ha":938,"x_min":75,"x_max":876,"o":"m 114 203 l 75 277 q 129 391 103 335 q 179 501 155 447 q 226 609 203 556 q 272 717 249 663 q 318 825 294 771 q 368 935 342 879 q 421 1049 393 991 l 473 1049 l 578 987 q 529 890 552 937 q 485 797 506 843 q 444 706 465 751 q 403 616 424 661 q 359 523 382 570 q 310 426 336 476 l 251 326 l 876 326 l 876 203 l 114 203 m 560 0 l 560 335 l 575 669 l 719 669 l 719 0 l 560 0 z "},"5":{"ha":828,"x_min":125,"x_max":728,"o":"m 210 -15 q 168 -14 193 -15 q 125 -7 143 -12 l 125 101 q 147 101 135 101 q 169 100 159 100 q 374 134 284 100 q 514 225 463 167 q 565 353 565 282 q 514 492 565 450 q 349 535 463 535 q 261 525 308 535 q 163 500 214 516 l 129 521 l 168 1032 l 700 1032 l 685 894 l 290 894 l 264 633 q 347 649 308 643 q 422 654 387 654 q 650 578 572 654 q 728 363 728 502 q 694 227 728 294 q 594 106 660 160 q 432 18 528 51 q 210 -15 335 -15 z "},"6":{"ha":935,"x_min":104,"x_max":828,"o":"m 104 389 q 138 598 104 501 q 230 777 172 696 q 362 919 288 858 q 516 1019 435 980 q 672 1072 596 1058 l 715 971 q 540 892 619 945 q 403 768 460 839 q 313 616 345 697 q 278 455 281 535 q 292 280 276 361 q 353 150 308 199 q 478 101 397 101 q 583 134 542 101 q 645 221 625 167 q 666 336 666 275 q 645 465 666 419 q 590 531 624 512 q 517 549 556 549 q 447 539 477 549 q 401 519 416 528 l 360 614 q 399 640 372 626 q 465 663 426 653 q 551 673 503 673 q 702 631 640 673 q 796 520 764 590 q 828 369 828 451 q 806 227 828 296 q 738 105 783 159 q 622 20 692 51 q 459 -11 553 -11 q 268 44 348 -11 q 147 190 189 99 q 104 389 104 281 z "},"7":{"ha":847,"x_min":97,"x_max":782,"o":"m 234 0 q 303 150 269 75 q 369 301 337 226 q 431 453 401 377 q 491 603 462 528 q 549 752 520 678 q 604 899 577 826 l 97 900 l 97 1033 l 747 1033 l 782 985 l 417 0 l 234 0 z "},"8":{"ha":894,"x_min":94,"x_max":801,"o":"m 454 -11 q 323 3 387 -11 q 207 49 258 18 q 125 132 155 81 q 94 256 94 183 q 119 359 94 306 q 197 460 143 412 q 340 546 251 509 l 428 479 q 335 430 376 461 q 271 356 294 398 q 247 267 247 315 q 270 177 247 215 q 339 120 292 140 q 458 100 386 100 q 546 117 504 100 q 614 166 588 133 q 640 247 640 199 q 613 332 640 296 q 540 397 585 367 q 441 453 495 426 q 333 510 387 480 q 233 579 278 540 q 161 670 188 618 q 133 793 133 722 q 176 932 133 876 q 292 1018 219 989 q 454 1047 365 1047 q 614 1017 545 1047 q 720 934 682 988 q 758 810 758 881 q 736 702 758 758 q 665 598 713 647 q 539 519 616 549 l 457 588 q 573 671 536 613 q 611 792 609 729 q 571 896 615 856 q 449 936 527 936 q 331 901 379 936 q 282 803 282 865 q 310 714 282 753 q 384 642 338 674 q 485 580 430 610 q 595 519 540 550 q 696 452 650 488 q 771 370 742 416 q 800 267 799 325 q 753 111 801 172 q 627 19 706 49 q 454 -11 548 -11 z "},"9":{"ha":952,"x_min":115,"x_max":833,"o":"m 115 674 q 158 867 115 783 q 283 999 201 951 q 483 1047 366 1047 q 676 992 599 1047 q 794 845 754 937 q 833 646 833 754 q 798 424 833 528 q 702 235 763 321 q 566 83 642 149 q 409 -24 490 18 q 249 -81 327 -65 l 199 17 q 388 105 303 43 q 533 247 472 166 q 627 415 594 328 q 663 579 660 502 q 647 759 665 680 q 585 885 629 839 q 461 932 540 932 q 363 902 405 932 q 299 825 322 872 q 276 724 276 777 q 322 540 276 601 q 437 478 367 478 q 508 487 485 478 q 551 505 532 496 l 587 414 q 523 375 570 395 q 395 355 475 355 q 243 400 306 355 q 147 518 180 445 q 115 674 115 590 z "},"A":{"ha":956,"x_min":10,"x_max":947,"o":"m 182 0 l 10 0 l 401 1043 l 560 1043 l 947 0 l 769 0 l 512 776 l 483 875 l 452 776 l 182 0 m 204 253 l 232 374 l 706 374 l 735 253 l 204 253 z "},"B":{"ha":918,"x_min":131,"x_max":857,"o":"m 131 0 l 131 1033 l 208 1032 q 277 1034 242 1032 q 353 1039 313 1037 q 445 1042 394 1042 q 640 1011 564 1042 q 753 925 717 981 q 790 796 790 870 q 774 697 790 747 q 723 609 758 647 q 633 557 688 572 q 747 518 697 553 q 827 429 797 483 q 857 310 857 374 q 819 144 857 217 q 691 31 782 72 q 439 -10 600 -10 q 314 -6 378 -10 q 212 0 249 -2 l 131 0 m 292 591 q 334 587 311 588 q 381 586 357 586 q 428 587 406 587 q 469 588 451 588 q 586 633 540 588 q 633 774 633 679 q 577 890 633 852 q 418 927 522 927 q 379 926 406 927 q 327 923 352 925 q 292 917 302 921 l 292 591 m 292 123 q 333 113 304 116 q 396 108 363 109 q 454 107 430 107 q 629 148 566 107 q 692 294 692 189 q 636 430 692 388 q 460 473 579 473 q 417 473 440 473 q 370 473 394 474 q 327 472 347 473 q 292 469 307 472 l 292 123 z "},"C":{"ha":889,"x_min":65,"x_max":820,"o":"m 65 512 q 103 739 65 640 q 209 906 142 838 q 364 1008 276 974 q 547 1043 451 1043 q 678 1035 625 1043 q 765 1018 731 1027 q 820 1004 799 1009 l 797 859 q 758 878 785 866 q 683 902 731 891 q 558 913 634 913 q 383 865 458 913 q 268 730 309 817 q 228 522 228 642 q 268 312 228 403 q 383 169 308 221 q 561 117 458 117 q 664 126 613 117 q 755 151 715 136 q 813 181 794 165 l 813 43 q 747 19 783 31 q 664 -2 710 6 q 553 -11 617 -11 q 295 55 405 -11 q 125 238 185 120 q 65 512 65 356 z "},"D":{"ha":1000,"x_min":122,"x_max":942,"o":"m 122 0 l 122 1032 q 150 1032 136 1032 q 176 1032 163 1032 q 203 1032 190 1032 q 275 1035 235 1032 q 359 1040 315 1038 q 449 1043 403 1043 q 821 912 700 1043 q 942 546 942 781 q 880 244 942 369 q 703 52 817 118 q 432 -11 588 -14 q 310 -5 377 -10 q 189 0 242 0 q 167 0 178 0 q 144 0 156 0 q 122 0 133 0 m 286 124 q 366 114 319 117 q 456 111 413 110 q 619 155 548 113 q 731 288 690 197 q 771 522 771 378 q 731 759 771 672 q 613 885 692 847 q 417 924 534 924 q 342 921 376 924 q 286 914 308 918 l 286 124 z "},"E":{"ha":821,"x_min":122,"x_max":771,"o":"m 122 0 l 122 1032 l 722 1032 l 722 907 l 286 907 l 286 593 l 610 593 l 610 469 l 286 469 l 286 128 l 771 128 l 771 0 l 122 0 z "},"F":{"ha":733,"x_min":122,"x_max":721,"o":"m 122 0 l 122 1032 l 721 1032 l 721 907 l 286 907 l 286 581 l 611 581 l 611 456 l 286 456 l 286 0 l 122 0 z "},"G":{"ha":979,"x_min":67,"x_max":900,"o":"m 67 511 q 104 745 67 645 q 208 911 142 844 q 363 1010 274 977 q 552 1043 451 1043 q 677 1036 630 1043 q 760 1020 724 1030 q 842 1003 797 1011 l 835 858 q 722 899 785 883 q 544 915 658 915 q 384 869 454 915 q 275 738 315 824 q 235 529 235 651 q 269 318 235 413 q 370 168 302 224 q 544 113 439 113 q 657 122 601 113 q 743 150 714 131 l 743 424 l 784 395 l 561 405 l 561 524 l 900 524 l 900 63 q 849 50 877 62 q 781 25 820 39 q 684 0 741 10 q 549 -11 628 -11 q 288 57 395 -11 q 123 242 180 124 q 67 511 67 360 z "},"H":{"ha":1042,"x_min":122,"x_max":919,"o":"m 122 0 l 122 1032 l 286 1032 l 286 583 l 757 583 l 757 1032 l 919 1032 l 919 0 l 757 0 l 757 458 l 286 458 l 286 0 l 122 0 z "},"I":{"ha":444,"x_min":140,"x_max":303,"o":"m 140 0 l 140 1032 l 303 1032 l 303 0 l 140 0 z "},"J":{"ha":494,"x_min":-25,"x_max":349,"o":"m 23 -225 l -25 -140 q 84 -74 28 -119 q 161 51 140 -29 q 180 208 177 112 q 183 413 183 305 l 183 1032 l 347 1032 l 347 415 q 348 224 347 315 q 335 59 349 133 q 289 -59 322 -8 q 209 -144 255 -110 q 115 -199 164 -179 q 23 -225 66 -219 z "},"K":{"ha":929,"x_min":122,"x_max":888,"o":"m 122 0 l 122 1032 l 283 1032 l 283 522 l 686 1032 l 874 1032 l 456 519 l 435 497 l 247 283 l 283 418 l 283 0 l 122 0 m 660 76 q 595 186 632 128 q 520 302 559 244 q 445 415 481 361 q 383 513 410 469 l 439 550 l 497 615 q 541 545 510 592 q 612 437 572 498 q 695 311 652 376 q 777 184 738 246 q 843 75 816 123 q 858 50 851 63 q 873 25 865 38 q 888 0 880 13 l 701 0 q 685 30 692 14 q 660 76 678 45 z "},"L":{"ha":729,"x_min":122,"x_max":690,"o":"m 122 0 l 122 1032 l 285 1032 l 285 129 l 690 129 l 690 0 l 122 0 z "},"M":{"ha":1300,"x_min":83,"x_max":1217,"o":"m 83 0 l 189 1032 l 418 1032 l 600 451 l 653 231 l 701 451 l 874 1032 l 1094 1032 l 1217 0 l 1055 0 l 994 626 l 974 910 l 903 626 l 700 -10 l 602 -10 l 388 626 l 313 910 l 293 626 l 239 0 l 83 0 z "},"N":{"ha":1047,"x_min":122,"x_max":925,"o":"m 122 0 l 122 1032 l 271 1032 l 703 364 l 840 107 l 792 107 l 774 396 l 774 1032 l 925 1032 l 925 0 l 769 0 l 354 643 l 194 933 l 254 933 l 271 621 l 271 0 l 122 0 z "},"O":{"ha":1061,"x_min":62,"x_max":999,"o":"m 526 -11 q 278 55 383 -14 q 117 245 173 123 q 65 524 62 367 q 134 812 69 697 q 307 985 199 927 q 547 1043 415 1042 q 787 979 685 1044 q 944 795 889 914 q 996 517 999 676 q 931 227 992 344 q 764 51 869 111 q 526 -11 659 -8 m 531 114 q 749 218 668 114 q 831 524 831 322 q 798 720 831 631 q 702 865 766 810 q 542 919 638 919 q 387 876 458 919 q 273 744 316 833 q 231 514 231 654 q 264 316 231 408 q 365 169 298 225 q 531 114 431 114 z "},"P":{"ha":864,"x_min":122,"x_max":814,"o":"m 122 0 l 122 1032 l 193 1032 q 319 1038 257 1032 q 451 1043 382 1043 q 645 1008 564 1043 q 770 898 726 973 q 814 704 814 824 q 712 441 814 535 q 417 347 610 347 q 336 348 368 347 q 286 349 305 349 l 286 0 l 122 0 m 286 474 q 348 468 317 469 q 407 467 379 467 q 528 485 472 467 q 618 555 584 503 q 653 704 653 606 q 589 877 653 823 q 406 926 526 931 q 344 923 376 926 q 286 914 313 920 l 286 474 z "},"Q":{"ha":1067,"x_min":62,"x_max":999,"o":"m 831 -203 q 695 -185 751 -203 q 593 -118 640 -167 q 494 19 547 -70 l 567 46 l 639 46 q 688 -25 663 1 q 746 -62 712 -51 q 835 -73 781 -73 q 886 -70 862 -73 q 935 -59 911 -67 l 935 -175 q 896 -194 919 -185 q 831 -203 872 -203 m 526 -11 q 278 55 383 -14 q 117 245 173 123 q 65 524 62 367 q 134 812 69 697 q 307 985 199 927 q 547 1043 415 1042 q 787 979 685 1044 q 944 795 889 914 q 996 517 999 676 q 931 227 992 344 q 764 51 869 111 q 526 -11 659 -8 m 531 114 q 749 218 668 114 q 831 524 831 322 q 798 720 831 631 q 702 865 766 810 q 542 919 638 919 q 387 876 458 919 q 273 744 316 833 q 231 514 231 654 q 264 316 231 408 q 365 169 298 225 q 531 114 431 114 z "},"R":{"ha":926,"x_min":122,"x_max":886,"o":"m 286 0 l 122 0 l 122 1032 q 147 1032 135 1032 q 170 1032 158 1032 q 194 1032 182 1032 q 311 1038 244 1032 q 460 1043 378 1043 q 602 1027 538 1043 q 714 975 667 1010 q 788 884 762 940 q 814 749 814 828 q 783 592 814 656 q 693 491 751 528 q 556 442 635 454 q 497 435 527 438 q 418 432 467 433 q 286 431 369 431 l 286 0 m 286 547 q 331 544 301 545 q 392 543 361 543 q 442 543 424 543 q 596 592 542 543 q 650 742 650 641 q 630 842 650 801 q 563 903 610 883 q 436 924 516 924 q 357 920 396 924 q 286 911 317 917 l 286 547 m 703 0 q 688 28 694 14 q 665 76 681 43 q 623 182 644 123 q 577 296 602 240 q 521 390 553 351 q 446 435 489 428 l 508 483 l 606 475 q 679 413 647 458 q 739 308 711 367 q 791 188 766 249 q 844 76 817 126 q 865 38 855 57 q 886 0 876 19 l 703 0 z "},"S":{"ha":785,"x_min":86,"x_max":729,"o":"m 383 -11 q 255 -1 315 -11 q 152 23 195 9 q 90 49 109 37 l 124 181 q 190 151 151 166 q 277 127 230 137 q 373 118 324 118 q 518 150 468 118 q 568 254 568 182 q 543 336 568 303 q 468 398 518 369 q 344 463 419 427 q 222 538 281 494 q 124 640 163 581 q 86 776 86 699 q 116 902 86 851 q 195 984 145 953 q 307 1029 245 1015 q 433 1043 368 1043 q 589 1025 527 1043 q 678 988 651 1006 l 646 860 q 563 900 610 882 q 433 917 515 917 q 339 904 382 917 q 269 864 296 891 q 243 794 243 837 q 263 714 243 747 q 327 654 283 682 q 444 588 372 626 q 547 531 496 561 q 639 464 597 501 q 705 380 680 427 q 729 271 729 332 q 685 114 729 176 q 563 20 641 51 q 383 -11 485 -11 z "},"T":{"ha":877,"x_min":39,"x_max":838,"o":"m 357 0 l 357 907 l 39 907 l 39 1032 l 838 1032 l 838 907 l 521 907 l 521 0 l 357 0 z "},"U":{"ha":999,"x_min":107,"x_max":893,"o":"m 505 -11 q 273 42 361 -11 q 146 194 185 94 q 107 432 107 293 l 108 1032 l 270 1032 l 269 463 q 297 250 269 325 q 379 146 325 175 q 510 117 433 117 q 629 146 579 117 q 705 251 678 176 q 732 463 732 326 l 732 1032 l 893 1032 l 893 429 q 797 103 893 217 q 505 -11 701 -11 z "},"V":{"ha":923,"x_min":12,"x_max":911,"o":"m 398 -8 l 12 1032 l 185 1032 l 419 360 l 467 194 l 516 360 l 740 1032 l 911 1032 l 534 -8 l 398 -8 z "},"W":{"ha":1308,"x_min":13,"x_max":1294,"o":"m 295 -11 l 13 1032 l 179 1032 l 337 374 l 383 108 l 359 108 l 407 374 l 593 1032 l 717 1032 l 908 374 l 967 108 l 940 108 l 984 373 l 1131 1032 l 1294 1032 l 1028 -11 l 866 -11 l 679 647 l 628 930 l 678 928 l 629 647 l 440 -11 l 295 -11 z "},"X":{"ha":899,"x_min":28,"x_max":871,"o":"m 28 0 l 366 557 l 375 494 l 31 1032 l 213 1033 l 379 760 l 474 601 l 440 601 l 533 760 l 691 1032 l 864 1032 l 533 493 l 514 557 l 871 0 l 687 0 l 508 301 l 419 449 l 463 450 l 376 301 l 201 0 l 28 0 z "},"Y":{"ha":854,"x_min":7,"x_max":848,"o":"m 347 0 l 347 439 l 371 349 l 7 1032 l 181 1032 l 403 593 l 447 488 l 422 488 l 458 593 l 676 1032 l 848 1032 l 488 349 l 512 437 l 512 0 l 347 0 z "},"Z":{"ha":853,"x_min":42,"x_max":814,"o":"m 72 0 l 42 57 l 558 856 l 597 904 l 99 904 l 99 1032 l 782 1032 l 814 978 l 308 186 l 258 126 l 775 126 l 775 0 l 72 0 z "},"À":{"ha":956,"x_min":10,"x_max":947,"o":"m 182 0 l 10 0 l 401 1043 l 560 1043 l 947 0 l 769 0 l 512 776 l 483 875 l 452 776 l 182 0 m 204 253 l 232 374 l 706 374 l 735 253 l 204 253 m 566 1191 l 497 1124 q 436 1155 473 1133 q 360 1205 400 1176 q 286 1262 321 1233 q 232 1315 252 1291 l 340 1405 q 364 1378 342 1401 q 419 1325 387 1356 q 485 1265 452 1294 q 541 1214 518 1235 q 566 1191 564 1193 z "},"Á":{"ha":956,"x_min":10,"x_max":947,"o":"m 182 0 l 10 0 l 401 1043 l 560 1043 l 947 0 l 769 0 l 512 776 l 483 875 l 452 776 l 182 0 m 204 253 l 232 374 l 706 374 l 735 253 l 204 253 m 435 1124 l 366 1189 q 391 1211 367 1190 q 448 1263 415 1233 q 515 1325 481 1294 q 572 1378 549 1356 q 596 1403 594 1400 l 701 1313 q 644 1260 677 1288 q 574 1204 611 1231 q 501 1156 537 1177 q 435 1124 465 1135 z "},"Â":{"ha":956,"x_min":10,"x_max":947,"o":"m 182 0 l 10 0 l 401 1043 l 560 1043 l 947 0 l 769 0 l 512 776 l 483 875 l 452 776 l 182 0 m 204 253 l 232 374 l 706 374 l 735 253 l 204 253 m 326 1121 l 230 1163 l 408 1369 l 545 1369 l 724 1165 l 624 1121 l 476 1258 l 326 1121 z "},"Ã":{"ha":956,"x_min":10,"x_max":947,"o":"m 182 0 l 10 0 l 401 1043 l 560 1043 l 947 0 l 769 0 l 512 776 l 483 875 l 452 776 l 182 0 m 204 253 l 232 374 l 706 374 l 735 253 l 204 253 m 576 1122 q 509 1136 535 1122 q 463 1169 483 1151 q 424 1202 443 1188 q 378 1217 405 1217 q 327 1208 347 1217 q 295 1186 307 1200 q 274 1154 283 1172 l 206 1186 q 240 1256 219 1222 q 294 1313 261 1290 q 374 1335 327 1335 q 440 1321 413 1335 q 486 1288 466 1307 q 527 1256 506 1269 q 573 1242 547 1242 q 620 1250 600 1242 q 653 1272 640 1258 q 674 1304 666 1286 l 745 1268 q 713 1195 737 1228 q 653 1142 688 1163 q 576 1122 617 1122 z "},"Ä":{"ha":956,"x_min":10,"x_max":947,"o":"m 182 0 l 10 0 l 401 1043 l 560 1043 l 947 0 l 769 0 l 512 776 l 483 875 l 452 776 l 182 0 m 204 253 l 232 374 l 706 374 l 735 253 l 204 253 m 299 1124 q 231 1149 260 1124 q 203 1217 203 1174 q 237 1295 203 1264 q 315 1326 272 1326 q 388 1299 364 1326 q 411 1231 411 1272 q 378 1153 411 1183 q 299 1124 344 1124 m 639 1124 q 571 1149 599 1124 q 543 1217 543 1174 q 577 1295 543 1264 q 653 1326 612 1326 q 727 1299 703 1326 q 751 1231 751 1272 q 718 1153 751 1183 q 639 1124 684 1124 z "},"Å":{"ha":956,"x_min":10,"x_max":947,"o":"m 182 0 l 10 0 l 401 1043 l 560 1043 l 947 0 l 769 0 l 512 776 l 483 875 l 452 776 l 182 0 m 204 253 l 232 374 l 706 374 l 735 253 l 204 253 m 474 1030 q 315 1080 374 1030 q 256 1217 256 1129 q 290 1321 257 1282 q 373 1378 322 1360 q 476 1395 423 1395 q 638 1349 578 1395 q 698 1215 698 1303 q 666 1109 697 1149 q 584 1049 635 1068 q 474 1030 534 1030 m 474 1118 q 558 1139 526 1118 q 590 1215 590 1160 q 557 1284 590 1261 q 474 1308 524 1308 q 400 1290 434 1309 q 365 1217 365 1272 q 395 1146 365 1172 q 474 1118 424 1119 z "},"Æ":{"ha":1271,"x_min":-54,"x_max":1219,"o":"m -54 0 l 442 1032 l 579 957 l 124 0 l -54 0 m 571 1032 l 626 933 l 463 933 l 442 1032 l 571 1032 m 160 260 l 189 379 l 661 379 l 685 260 l 160 260 m 571 0 l 571 1032 l 1170 1032 l 1170 907 l 733 907 l 733 594 l 1056 594 l 1056 469 l 733 469 l 733 128 l 1219 128 l 1219 0 l 571 0 z "},"Ç":{"ha":889,"x_min":65,"x_max":820,"o":"m 65 512 q 103 739 65 640 q 209 906 142 838 q 364 1008 276 974 q 547 1043 451 1043 q 678 1035 625 1043 q 765 1018 731 1027 q 820 1004 799 1009 l 797 859 q 758 878 785 866 q 683 902 731 891 q 558 913 634 913 q 383 865 458 913 q 268 730 309 817 q 228 522 228 642 q 268 312 228 403 q 383 169 308 221 q 561 117 458 117 q 664 126 613 117 q 755 151 715 136 q 813 181 794 165 l 813 43 q 747 19 783 31 q 664 -2 710 6 q 553 -11 617 -11 q 295 55 405 -11 q 125 238 185 120 q 65 512 65 356 m 335 -296 l 345 -197 q 370 -204 355 -202 q 401 -206 385 -206 q 467 -182 442 -206 q 492 -104 492 -159 q 488 -29 494 -59 q 472 21 481 1 l 534 24 l 565 21 q 587 -20 578 5 q 600 -78 596 -46 q 603 -147 603 -110 q 579 -243 603 -206 q 517 -298 555 -280 q 440 -315 479 -315 q 399 -313 420 -315 q 360 -306 378 -310 q 335 -296 343 -301 z "},"È":{"ha":821,"x_min":122,"x_max":771,"o":"m 122 0 l 122 1032 l 722 1032 l 722 907 l 286 907 l 286 593 l 610 593 l 610 469 l 286 469 l 286 128 l 771 128 l 771 0 l 122 0 m 526 1191 l 458 1124 q 397 1155 433 1133 q 321 1205 360 1176 q 247 1262 281 1233 q 192 1315 213 1291 l 301 1405 q 325 1378 302 1401 q 380 1325 347 1356 q 445 1265 413 1294 q 501 1214 478 1235 q 526 1191 524 1193 z "},"É":{"ha":821,"x_min":122,"x_max":771,"o":"m 122 0 l 122 1032 l 722 1032 l 722 907 l 286 907 l 286 593 l 610 593 l 610 469 l 286 469 l 286 128 l 771 128 l 771 0 l 122 0 m 396 1124 l 326 1189 q 351 1211 328 1190 q 408 1263 375 1233 q 475 1325 442 1294 q 532 1378 509 1356 q 556 1403 555 1400 l 661 1313 q 605 1260 638 1288 q 534 1204 572 1231 q 461 1156 497 1177 q 396 1124 425 1135 z "},"Ê":{"ha":821,"x_min":122,"x_max":771,"o":"m 122 0 l 122 1032 l 722 1032 l 722 907 l 286 907 l 286 593 l 610 593 l 610 469 l 286 469 l 286 128 l 771 128 l 771 0 l 122 0 m 286 1121 l 190 1163 l 368 1369 l 506 1369 l 685 1165 l 585 1121 l 436 1258 l 286 1121 z "},"Ë":{"ha":821,"x_min":122,"x_max":771,"o":"m 122 0 l 122 1032 l 722 1032 l 722 907 l 286 907 l 286 593 l 610 593 l 610 469 l 286 469 l 286 128 l 771 128 l 771 0 l 122 0 m 260 1124 q 192 1149 220 1124 q 163 1217 163 1174 q 198 1295 163 1264 q 275 1326 232 1326 q 348 1299 324 1326 q 372 1231 372 1272 q 338 1153 372 1183 q 260 1124 305 1124 m 599 1124 q 531 1149 559 1124 q 503 1217 503 1174 q 538 1295 503 1264 q 614 1326 572 1326 q 688 1299 663 1326 q 712 1231 712 1272 q 678 1153 712 1183 q 599 1124 644 1124 z "},"Ì":{"ha":444,"x_min":-22,"x_max":312,"o":"m 140 0 l 140 1032 l 303 1032 l 303 0 l 140 0 m 312 1191 l 243 1124 q 182 1155 219 1133 q 106 1205 146 1176 q 32 1262 67 1233 q -22 1315 -2 1291 l 86 1405 q 110 1378 88 1401 q 165 1325 133 1356 q 231 1265 198 1294 q 287 1214 264 1235 q 312 1191 310 1193 z "},"Í":{"ha":444,"x_min":112,"x_max":447,"o":"m 140 0 l 140 1032 l 303 1032 l 303 0 l 140 0 m 181 1124 l 112 1189 q 137 1211 113 1190 q 194 1263 160 1233 q 261 1325 227 1294 q 317 1378 294 1356 q 342 1403 340 1400 l 447 1313 q 390 1260 423 1288 q 320 1204 357 1231 q 247 1156 283 1177 q 181 1124 210 1135 z "},"Î":{"ha":444,"x_min":-24,"x_max":470,"o":"m 140 0 l 140 1032 l 303 1032 l 303 0 l 140 0 m 72 1121 l -24 1163 l 153 1369 l 291 1369 l 470 1165 l 370 1121 l 222 1258 l 72 1121 z "},"Ï":{"ha":444,"x_min":-51,"x_max":497,"o":"m 140 0 l 140 1032 l 303 1032 l 303 0 l 140 0 m 45 1124 q -23 1149 6 1124 q -51 1217 -51 1174 q -17 1295 -51 1264 q 60 1326 17 1326 q 133 1299 110 1326 q 157 1231 157 1272 q 124 1153 157 1183 q 45 1124 90 1124 m 385 1124 q 317 1149 344 1124 q 289 1217 289 1174 q 323 1295 289 1264 q 399 1326 358 1326 q 473 1299 449 1326 q 497 1231 497 1272 q 464 1153 497 1183 q 385 1124 430 1124 z "},"Ð":{"ha":1008,"x_min":45,"x_max":942,"o":"m 45 485 l 45 592 l 554 592 l 554 485 l 45 485 m 122 0 l 122 1032 q 150 1032 136 1032 q 176 1032 163 1032 q 203 1032 190 1032 q 275 1035 235 1032 q 359 1040 315 1038 q 449 1043 403 1043 q 821 912 700 1043 q 942 546 942 781 q 880 244 942 369 q 703 52 817 118 q 432 -11 588 -14 q 310 -5 377 -10 q 189 0 242 0 q 167 0 178 0 q 144 0 156 0 q 122 0 133 0 m 286 124 q 366 114 319 117 q 456 111 413 110 q 619 155 548 113 q 731 288 690 197 q 771 522 771 378 q 731 759 771 672 q 613 885 692 847 q 417 924 534 924 q 342 921 376 924 q 286 914 308 918 l 286 124 z "},"Ñ":{"ha":1047,"x_min":122,"x_max":925,"o":"m 122 0 l 122 1032 l 271 1032 l 703 364 l 840 107 l 792 107 l 774 396 l 774 1032 l 925 1032 l 925 0 l 769 0 l 354 643 l 194 933 l 254 933 l 271 621 l 271 0 l 122 0 m 631 1122 q 564 1136 590 1122 q 518 1169 538 1151 q 479 1202 498 1188 q 433 1217 460 1217 q 382 1208 401 1217 q 350 1186 362 1200 q 329 1154 338 1172 l 261 1186 q 295 1256 274 1222 q 349 1313 316 1290 q 429 1335 382 1335 q 494 1321 468 1335 q 541 1288 521 1307 q 582 1256 561 1269 q 628 1242 602 1242 q 675 1250 655 1242 q 708 1272 694 1258 q 729 1304 721 1286 l 800 1268 q 767 1195 792 1228 q 708 1142 743 1163 q 631 1122 672 1122 z "},"Ò":{"ha":1061,"x_min":62,"x_max":999,"o":"m 526 -11 q 278 55 383 -14 q 117 245 173 123 q 65 524 62 367 q 134 812 69 697 q 307 985 199 927 q 547 1043 415 1042 q 787 979 685 1044 q 944 795 889 914 q 996 517 999 676 q 931 227 992 344 q 764 51 869 111 q 526 -11 659 -8 m 531 114 q 749 218 668 114 q 831 524 831 322 q 798 720 831 631 q 702 865 766 810 q 542 919 638 919 q 387 876 458 919 q 273 744 316 833 q 231 514 231 654 q 264 316 231 408 q 365 169 298 225 q 531 114 431 114 m 636 1191 l 567 1124 q 507 1155 543 1133 q 431 1205 470 1176 q 357 1262 391 1233 q 302 1315 322 1291 l 410 1405 q 434 1378 412 1401 q 490 1325 457 1356 q 555 1265 522 1294 q 611 1214 588 1235 q 636 1191 634 1193 z "},"Ó":{"ha":1061,"x_min":62,"x_max":999,"o":"m 526 -11 q 278 55 383 -14 q 117 245 173 123 q 65 524 62 367 q 134 812 69 697 q 307 985 199 927 q 547 1043 415 1042 q 787 979 685 1044 q 944 795 889 914 q 996 517 999 676 q 931 227 992 344 q 764 51 869 111 q 526 -11 659 -8 m 531 114 q 749 218 668 114 q 831 524 831 322 q 798 720 831 631 q 702 865 766 810 q 542 919 638 919 q 387 876 458 919 q 273 744 316 833 q 231 514 231 654 q 264 316 231 408 q 365 169 298 225 q 531 114 431 114 m 506 1124 l 436 1189 q 461 1211 438 1190 q 518 1263 485 1233 q 585 1325 551 1294 q 642 1378 619 1356 q 666 1403 665 1400 l 771 1313 q 714 1260 747 1288 q 644 1204 681 1231 q 571 1156 607 1177 q 506 1124 535 1135 z "},"Ô":{"ha":1061,"x_min":62,"x_max":999,"o":"m 526 -11 q 278 55 383 -14 q 117 245 173 123 q 65 524 62 367 q 134 812 69 697 q 307 985 199 927 q 547 1043 415 1042 q 787 979 685 1044 q 944 795 889 914 q 996 517 999 676 q 931 227 992 344 q 764 51 869 111 q 526 -11 659 -8 m 531 114 q 749 218 668 114 q 831 524 831 322 q 798 720 831 631 q 702 865 766 810 q 542 919 638 919 q 387 876 458 919 q 273 744 316 833 q 231 514 231 654 q 264 316 231 408 q 365 169 298 225 q 531 114 431 114 m 396 1121 l 300 1163 l 478 1369 l 615 1369 l 794 1165 l 694 1121 l 546 1258 l 396 1121 z "},"Õ":{"ha":1061,"x_min":62,"x_max":999,"o":"m 526 -11 q 278 55 383 -14 q 117 245 173 123 q 65 524 62 367 q 134 812 69 697 q 307 985 199 927 q 547 1043 415 1042 q 787 979 685 1044 q 944 795 889 914 q 996 517 999 676 q 931 227 992 344 q 764 51 869 111 q 526 -11 659 -8 m 531 114 q 749 218 668 114 q 831 524 831 322 q 798 720 831 631 q 702 865 766 810 q 542 919 638 919 q 387 876 458 919 q 273 744 316 833 q 231 514 231 654 q 264 316 231 408 q 365 169 298 225 q 531 114 431 114 m 646 1122 q 579 1136 606 1122 q 533 1169 553 1151 q 494 1202 513 1188 q 449 1217 475 1217 q 397 1208 417 1217 q 365 1186 377 1200 q 344 1154 353 1172 l 276 1186 q 310 1256 289 1222 q 364 1313 331 1290 q 444 1335 397 1335 q 510 1321 483 1335 q 556 1288 536 1307 q 597 1256 576 1269 q 643 1242 617 1242 q 690 1250 670 1242 q 723 1272 710 1258 q 744 1304 736 1286 l 815 1268 q 783 1195 807 1228 q 723 1142 758 1163 q 646 1122 688 1122 z "},"Ö":{"ha":1061,"x_min":62,"x_max":999,"o":"m 526 -11 q 278 55 383 -14 q 117 245 173 123 q 65 524 62 367 q 134 812 69 697 q 307 985 199 927 q 547 1043 415 1042 q 787 979 685 1044 q 944 795 889 914 q 996 517 999 676 q 931 227 992 344 q 764 51 869 111 q 526 -11 659 -8 m 531 114 q 749 218 668 114 q 831 524 831 322 q 798 720 831 631 q 702 865 766 810 q 542 919 638 919 q 387 876 458 919 q 273 744 316 833 q 231 514 231 654 q 264 316 231 408 q 365 169 298 225 q 531 114 431 114 m 369 1124 q 301 1149 330 1124 q 273 1217 273 1174 q 307 1295 273 1264 q 385 1326 342 1326 q 458 1299 434 1326 q 481 1231 481 1272 q 448 1153 481 1183 q 369 1124 415 1124 m 709 1124 q 641 1149 669 1124 q 613 1217 613 1174 q 648 1295 613 1264 q 724 1326 682 1326 q 797 1299 773 1326 q 822 1231 822 1272 q 788 1153 822 1183 q 709 1124 754 1124 z "},"Ø":{"ha":1067,"x_min":65,"x_max":1003,"o":"m 249 -138 l 168 -114 l 819 1184 l 900 1160 l 249 -138 m 529 -11 q 281 55 385 -14 q 120 245 176 123 q 68 523 65 367 q 136 812 72 697 q 309 985 201 927 q 550 1043 417 1042 q 790 979 688 1044 q 948 795 892 914 q 999 517 1003 676 q 934 227 996 343 q 767 51 872 110 q 529 -11 663 -8 m 533 113 q 752 217 670 113 q 834 524 834 322 q 802 720 834 631 q 705 865 769 810 q 544 919 641 919 q 390 876 460 919 q 276 744 319 833 q 233 514 233 654 q 266 317 233 408 q 367 169 300 225 q 533 113 434 113 z "},"Ù":{"ha":999,"x_min":107,"x_max":893,"o":"m 505 -11 q 273 42 361 -11 q 146 194 185 94 q 107 432 107 293 l 108 1032 l 270 1032 l 269 463 q 297 250 269 325 q 379 146 325 175 q 510 117 433 117 q 629 146 579 117 q 705 251 678 176 q 732 463 732 326 l 732 1032 l 893 1032 l 893 429 q 797 103 893 217 q 505 -11 701 -11 m 597 1191 l 528 1124 q 468 1155 504 1133 q 392 1205 431 1176 q 318 1262 352 1233 q 263 1315 283 1291 l 372 1405 q 395 1378 373 1401 q 451 1325 418 1356 q 516 1265 483 1294 q 572 1214 549 1235 q 597 1191 595 1193 z "},"Ú":{"ha":999,"x_min":107,"x_max":893,"o":"m 505 -11 q 273 42 361 -11 q 146 194 185 94 q 107 432 107 293 l 108 1032 l 270 1032 l 269 463 q 297 250 269 325 q 379 146 325 175 q 510 117 433 117 q 629 146 579 117 q 705 251 678 176 q 732 463 732 326 l 732 1032 l 893 1032 l 893 429 q 797 103 893 217 q 505 -11 701 -11 m 467 1124 l 397 1189 q 422 1211 399 1190 q 479 1263 446 1233 q 546 1325 513 1294 q 603 1378 580 1356 q 627 1403 626 1400 l 732 1313 q 675 1260 708 1288 q 605 1204 642 1231 q 532 1156 568 1177 q 467 1124 496 1135 z "},"Û":{"ha":999,"x_min":107,"x_max":893,"o":"m 505 -11 q 273 42 361 -11 q 146 194 185 94 q 107 432 107 293 l 108 1032 l 270 1032 l 269 463 q 297 250 269 325 q 379 146 325 175 q 510 117 433 117 q 629 146 579 117 q 705 251 678 176 q 732 463 732 326 l 732 1032 l 893 1032 l 893 429 q 797 103 893 217 q 505 -11 701 -11 m 357 1121 l 261 1163 l 439 1369 l 576 1369 l 756 1165 l 656 1121 l 507 1258 l 357 1121 z "},"Ü":{"ha":999,"x_min":107,"x_max":893,"o":"m 505 -11 q 273 42 361 -11 q 146 194 185 94 q 107 432 107 293 l 108 1032 l 270 1032 l 269 463 q 297 250 269 325 q 379 146 325 175 q 510 117 433 117 q 629 146 579 117 q 705 251 678 176 q 732 463 732 326 l 732 1032 l 893 1032 l 893 429 q 797 103 893 217 q 505 -11 701 -11 m 331 1124 q 263 1149 291 1124 q 234 1217 234 1174 q 268 1295 234 1264 q 346 1326 303 1326 q 419 1299 395 1326 q 442 1231 442 1272 q 409 1153 442 1183 q 331 1124 376 1124 m 670 1124 q 602 1149 630 1124 q 574 1217 574 1174 q 609 1295 574 1264 q 685 1326 643 1326 q 758 1299 734 1326 q 783 1231 783 1272 q 749 1153 783 1183 q 670 1124 715 1124 z "},"Ý":{"ha":854,"x_min":7,"x_max":848,"o":"m 347 0 l 347 439 l 371 349 l 7 1032 l 181 1032 l 403 593 l 447 488 l 422 488 l 458 593 l 676 1032 l 848 1032 l 488 349 l 512 437 l 512 0 l 347 0 m 392 1124 l 322 1189 q 347 1211 324 1190 q 404 1263 371 1233 q 471 1325 438 1294 q 528 1378 505 1356 q 552 1403 551 1400 l 657 1313 q 600 1260 633 1288 q 530 1204 567 1231 q 457 1156 493 1177 q 392 1124 421 1135 z "},"Þ":{"ha":860,"x_min":122,"x_max":806,"o":"m 411 190 q 328 193 361 190 q 275 196 295 196 l 275 318 q 338 311 308 312 q 394 310 367 310 q 517 326 460 310 q 609 392 574 343 q 644 538 644 441 q 582 694 644 645 q 392 739 519 743 q 332 735 363 738 q 275 724 301 732 l 228 846 q 329 852 274 847 q 444 857 384 857 q 712 779 619 857 q 806 539 806 701 q 705 282 806 374 q 411 190 604 190 m 122 0 l 122 1032 l 286 1032 l 286 0 l 122 0 z "},"Ā":{"ha":956,"x_min":10,"x_max":947,"o":"m 182 0 l 10 0 l 401 1043 l 560 1043 l 947 0 l 769 0 l 512 776 l 483 875 l 452 776 l 182 0 m 204 253 l 232 374 l 706 374 l 735 253 l 204 253 m 288 1167 l 288 1282 l 667 1282 l 667 1167 l 288 1167 z "},"Ă":{"ha":956,"x_min":10,"x_max":947,"o":"m 182 0 l 10 0 l 401 1043 l 560 1043 l 947 0 l 769 0 l 512 776 l 483 875 l 452 776 l 182 0 m 204 253 l 232 374 l 706 374 l 735 253 l 204 253 m 477 1107 q 345 1143 400 1107 q 264 1236 291 1180 q 242 1353 238 1292 l 352 1353 q 355 1325 353 1345 q 369 1283 358 1306 q 406 1244 380 1260 q 478 1228 432 1228 q 551 1244 525 1228 q 588 1283 576 1260 q 603 1325 600 1306 q 606 1353 606 1345 l 713 1353 q 690 1236 718 1292 q 606 1143 661 1180 q 477 1107 551 1107 z "},"Ą":{"ha":956,"x_min":10,"x_max":951,"o":"m 622 -206 q 649 -120 621 -160 q 719 -49 677 -81 q 802 2 762 -17 l 900 22 l 930 7 q 851 -44 888 -15 q 793 -105 815 -73 q 772 -171 771 -137 q 798 -227 773 -212 q 858 -241 823 -241 q 904 -235 880 -241 q 951 -222 928 -230 l 951 -306 q 877 -338 921 -328 q 790 -348 833 -348 q 706 -332 744 -348 q 645 -283 668 -315 q 622 -206 623 -251 m 182 0 l 10 0 l 401 1043 l 560 1043 l 947 0 l 769 0 l 512 776 l 483 875 l 452 776 l 182 0 m 204 253 l 232 374 l 706 374 l 735 253 l 204 253 z "},"Ć":{"ha":889,"x_min":65,"x_max":820,"o":"m 65 512 q 103 739 65 640 q 209 906 142 838 q 364 1008 276 974 q 547 1043 451 1043 q 678 1035 625 1043 q 765 1018 731 1027 q 820 1004 799 1009 l 797 859 q 758 878 785 866 q 683 902 731 891 q 558 913 634 913 q 383 865 458 913 q 268 730 309 817 q 228 522 228 642 q 268 312 228 403 q 383 169 308 221 q 561 117 458 117 q 664 126 613 117 q 755 151 715 136 q 813 181 794 165 l 813 43 q 747 19 783 31 q 664 -2 710 6 q 553 -11 617 -11 q 295 55 405 -11 q 125 238 185 120 q 65 512 65 356 m 501 1124 l 432 1189 q 457 1211 433 1190 q 514 1263 481 1233 q 581 1325 547 1294 q 638 1378 615 1356 q 662 1403 660 1400 l 767 1313 q 710 1260 743 1288 q 640 1204 677 1231 q 567 1156 603 1177 q 501 1124 531 1135 z "},"Ĉ":{"ha":889,"x_min":65,"x_max":820,"o":"m 65 512 q 103 739 65 640 q 209 906 142 838 q 364 1008 276 974 q 547 1043 451 1043 q 678 1035 625 1043 q 765 1018 731 1027 q 820 1004 799 1009 l 797 859 q 758 878 785 866 q 683 902 731 891 q 558 913 634 913 q 383 865 458 913 q 268 730 309 817 q 228 522 228 642 q 268 312 228 403 q 383 169 308 221 q 561 117 458 117 q 664 126 613 117 q 755 151 715 136 q 813 181 794 165 l 813 43 q 747 19 783 31 q 664 -2 710 6 q 553 -11 617 -11 q 295 55 405 -11 q 125 238 185 120 q 65 512 65 356 m 392 1121 l 296 1163 l 474 1369 l 611 1369 l 790 1165 l 690 1121 l 542 1258 l 392 1121 z "},"Ċ":{"ha":889,"x_min":65,"x_max":820,"o":"m 65 512 q 103 739 65 640 q 209 906 142 838 q 364 1008 276 974 q 547 1043 451 1043 q 678 1035 625 1043 q 765 1018 731 1027 q 820 1004 799 1009 l 797 859 q 758 878 785 866 q 683 902 731 891 q 558 913 634 913 q 383 865 458 913 q 268 730 309 817 q 228 522 228 642 q 268 312 228 403 q 383 169 308 221 q 561 117 458 117 q 664 126 613 117 q 755 151 715 136 q 813 181 794 165 l 813 43 q 747 19 783 31 q 664 -2 710 6 q 553 -11 617 -11 q 295 55 405 -11 q 125 238 185 120 q 65 512 65 356 m 536 1153 q 467 1178 496 1153 q 438 1247 438 1203 q 473 1324 438 1292 q 551 1355 508 1355 q 625 1328 601 1355 q 649 1260 649 1301 q 615 1183 649 1213 q 536 1153 581 1153 z "},"Č":{"ha":889,"x_min":65,"x_max":820,"o":"m 65 512 q 103 739 65 640 q 209 906 142 838 q 364 1008 276 974 q 547 1043 451 1043 q 678 1035 625 1043 q 765 1018 731 1027 q 820 1004 799 1009 l 797 859 q 758 878 785 866 q 683 902 731 891 q 558 913 634 913 q 383 865 458 913 q 268 730 309 817 q 228 522 228 642 q 268 312 228 403 q 383 169 308 221 q 561 117 458 117 q 664 126 613 117 q 755 151 715 136 q 813 181 794 165 l 813 43 q 747 19 783 31 q 664 -2 710 6 q 553 -11 617 -11 q 295 55 405 -11 q 125 238 185 120 q 65 512 65 356 m 476 1131 l 306 1310 l 397 1356 l 543 1237 l 693 1356 l 779 1313 l 613 1131 l 476 1131 z "},"Ď":{"ha":1000,"x_min":122,"x_max":942,"o":"m 122 0 l 122 1032 q 150 1032 136 1032 q 176 1032 163 1032 q 203 1032 190 1032 q 275 1035 235 1032 q 359 1040 315 1038 q 449 1043 403 1043 q 821 912 700 1043 q 942 546 942 781 q 880 244 942 369 q 703 52 817 118 q 432 -11 588 -14 q 310 -5 377 -10 q 189 0 242 0 q 167 0 178 0 q 144 0 156 0 q 122 0 133 0 m 286 124 q 366 114 319 117 q 456 111 413 110 q 619 155 548 113 q 731 288 690 197 q 771 522 771 378 q 731 759 771 672 q 613 885 692 847 q 417 924 534 924 q 342 921 376 924 q 286 914 308 918 l 286 124 m 424 1131 l 253 1310 l 344 1356 l 490 1237 l 640 1356 l 726 1313 l 560 1131 l 424 1131 z "},"Đ":{"ha":1008,"x_min":45,"x_max":942,"o":"m 45 485 l 45 592 l 554 592 l 554 485 l 45 485 m 122 0 l 122 1032 q 150 1032 136 1032 q 176 1032 163 1032 q 203 1032 190 1032 q 275 1035 235 1032 q 359 1040 315 1038 q 449 1043 403 1043 q 821 912 700 1043 q 942 546 942 781 q 880 244 942 369 q 703 52 817 118 q 432 -11 588 -14 q 310 -5 377 -10 q 189 0 242 0 q 167 0 178 0 q 144 0 156 0 q 122 0 133 0 m 286 124 q 366 114 319 117 q 456 111 413 110 q 619 155 548 113 q 731 288 690 197 q 771 522 771 378 q 731 759 771 672 q 613 885 692 847 q 417 924 534 924 q 342 921 376 924 q 286 914 308 918 l 286 124 z "},"Ē":{"ha":821,"x_min":122,"x_max":771,"o":"m 122 0 l 122 1032 l 722 1032 l 722 907 l 286 907 l 286 593 l 610 593 l 610 469 l 286 469 l 286 128 l 771 128 l 771 0 l 122 0 m 248 1167 l 248 1282 l 627 1282 l 627 1167 l 248 1167 z "},"Ĕ":{"ha":821,"x_min":122,"x_max":771,"o":"m 122 0 l 122 1032 l 722 1032 l 722 907 l 286 907 l 286 593 l 610 593 l 610 469 l 286 469 l 286 128 l 771 128 l 771 0 l 122 0 m 438 1107 q 306 1143 360 1107 q 225 1236 251 1180 q 203 1353 198 1292 l 313 1353 q 316 1325 313 1345 q 329 1283 318 1306 q 366 1244 340 1260 q 439 1228 392 1228 q 511 1244 485 1228 q 549 1283 537 1260 q 563 1325 560 1306 q 567 1353 566 1345 l 674 1353 q 650 1236 678 1292 q 567 1143 622 1180 q 438 1107 512 1107 z "},"Ė":{"ha":821,"x_min":122,"x_max":771,"o":"m 122 0 l 122 1032 l 722 1032 l 722 907 l 286 907 l 286 593 l 610 593 l 610 469 l 286 469 l 286 128 l 771 128 l 771 0 l 122 0 m 431 1153 q 361 1178 390 1153 q 332 1247 332 1203 q 367 1324 332 1292 q 446 1355 403 1355 q 519 1328 495 1355 q 543 1260 543 1301 q 509 1183 543 1213 q 431 1153 476 1153 z "},"Ę":{"ha":821,"x_min":122,"x_max":827,"o":"m 122 0 l 122 1032 l 722 1032 l 722 907 l 286 907 l 286 593 l 610 593 l 610 469 l 286 469 l 286 128 l 771 128 l 771 0 l 122 0 m 639 -347 q 557 -331 596 -347 q 494 -283 518 -315 q 468 -207 469 -252 q 493 -123 467 -162 q 560 -52 519 -84 q 647 0 601 -20 l 662 7 l 771 0 q 694 -48 733 -19 q 631 -110 656 -77 q 606 -176 606 -144 q 628 -228 606 -212 q 692 -244 650 -244 q 764 -233 728 -244 q 816 -214 799 -221 l 827 -297 q 754 -330 801 -314 q 639 -347 707 -347 z "},"Ě":{"ha":821,"x_min":122,"x_max":771,"o":"m 122 0 l 122 1032 l 722 1032 l 722 907 l 286 907 l 286 593 l 610 593 l 610 469 l 286 469 l 286 128 l 771 128 l 771 0 l 122 0 m 371 1131 l 200 1310 l 291 1356 l 438 1237 l 588 1356 l 674 1313 l 507 1131 l 371 1131 z "},"Ĝ":{"ha":979,"x_min":67,"x_max":900,"o":"m 67 511 q 104 745 67 645 q 208 911 142 844 q 363 1010 274 977 q 552 1043 451 1043 q 677 1036 630 1043 q 760 1020 724 1030 q 842 1003 797 1011 l 835 858 q 722 899 785 883 q 544 915 658 915 q 384 869 454 915 q 275 738 315 824 q 235 529 235 651 q 269 318 235 413 q 370 168 302 224 q 544 113 439 113 q 657 122 601 113 q 743 150 714 131 l 743 424 l 784 395 l 561 405 l 561 524 l 900 524 l 900 63 q 849 50 877 62 q 781 25 820 39 q 684 0 741 10 q 549 -11 628 -11 q 288 57 395 -11 q 123 242 180 124 q 67 511 67 360 m 400 1121 l 304 1163 l 482 1369 l 619 1369 l 799 1165 l 699 1121 l 550 1258 l 400 1121 z "},"Ğ":{"ha":979,"x_min":67,"x_max":900,"o":"m 67 511 q 104 745 67 645 q 208 911 142 844 q 363 1010 274 977 q 552 1043 451 1043 q 677 1036 630 1043 q 760 1020 724 1030 q 842 1003 797 1011 l 835 858 q 722 899 785 883 q 544 915 658 915 q 384 869 454 915 q 275 738 315 824 q 235 529 235 651 q 269 318 235 413 q 370 168 302 224 q 544 113 439 113 q 657 122 601 113 q 743 150 714 131 l 743 424 l 784 395 l 561 405 l 561 524 l 900 524 l 900 63 q 849 50 877 62 q 781 25 820 39 q 684 0 741 10 q 549 -11 628 -11 q 288 57 395 -11 q 123 242 180 124 q 67 511 67 360 m 551 1107 q 420 1143 474 1107 q 339 1236 365 1180 q 317 1353 312 1292 l 426 1353 q 430 1325 427 1345 q 443 1283 432 1306 q 480 1244 454 1260 q 553 1228 506 1228 q 625 1244 599 1228 q 663 1283 651 1260 q 677 1325 674 1306 q 681 1353 680 1345 l 788 1353 q 764 1236 792 1292 q 681 1143 735 1180 q 551 1107 626 1107 z "},"Ġ":{"ha":979,"x_min":67,"x_max":900,"o":"m 67 511 q 104 745 67 645 q 208 911 142 844 q 363 1010 274 977 q 552 1043 451 1043 q 677 1036 630 1043 q 760 1020 724 1030 q 842 1003 797 1011 l 835 858 q 722 899 785 883 q 544 915 658 915 q 384 869 454 915 q 275 738 315 824 q 235 529 235 651 q 269 318 235 413 q 370 168 302 224 q 544 113 439 113 q 657 122 601 113 q 743 150 714 131 l 743 424 l 784 395 l 561 405 l 561 524 l 900 524 l 900 63 q 849 50 877 62 q 781 25 820 39 q 684 0 741 10 q 549 -11 628 -11 q 288 57 395 -11 q 123 242 180 124 q 67 511 67 360 m 544 1153 q 475 1178 504 1153 q 446 1247 446 1203 q 481 1324 446 1292 q 560 1355 517 1355 q 633 1328 609 1355 q 657 1260 657 1301 q 623 1183 657 1213 q 544 1153 590 1153 z "},"Ģ":{"ha":979,"x_min":67,"x_max":900,"o":"m 67 511 q 104 745 67 645 q 208 911 142 844 q 363 1010 274 977 q 552 1043 451 1043 q 677 1036 630 1043 q 760 1020 724 1030 q 842 1003 797 1011 l 835 858 q 722 899 785 883 q 544 915 658 915 q 384 869 454 915 q 275 738 315 824 q 235 529 235 651 q 269 318 235 413 q 370 168 302 224 q 544 113 439 113 q 657 122 601 113 q 743 150 714 131 l 743 424 l 784 395 l 561 405 l 561 524 l 900 524 l 900 63 q 849 50 877 62 q 781 25 820 39 q 684 0 741 10 q 549 -11 628 -11 q 288 57 395 -11 q 123 242 180 124 q 67 511 67 360 m 476 -379 l 419 -351 l 419 -334 q 438 -296 430 -322 q 445 -237 445 -270 q 433 -184 445 -210 q 401 -153 421 -158 l 401 -119 l 511 -56 q 557 -104 535 -67 q 578 -199 578 -141 q 560 -284 578 -247 q 519 -346 543 -322 q 476 -379 495 -371 z "},"Ĥ":{"ha":1042,"x_min":122,"x_max":919,"o":"m 122 0 l 122 1032 l 286 1032 l 286 583 l 757 583 l 757 1032 l 919 1032 l 919 0 l 757 0 l 757 458 l 286 458 l 286 0 l 122 0 m 369 1121 l 274 1163 l 451 1369 l 589 1369 l 768 1165 l 668 1121 l 519 1258 l 369 1121 z "},"Ħ":{"ha":1067,"x_min":8,"x_max":1062,"o":"m 131 0 l 131 1032 l 294 1032 l 294 574 l 774 574 l 774 1032 l 935 1032 l 935 0 l 774 0 l 774 451 l 294 451 l 294 0 l 131 0 m 8 719 l 8 822 l 1062 822 l 1062 719 l 8 719 z "},"Ĩ":{"ha":444,"x_min":-48,"x_max":491,"o":"m 140 0 l 140 1032 l 303 1032 l 303 0 l 140 0 m 322 1122 q 255 1136 281 1122 q 209 1169 228 1151 q 170 1202 189 1188 q 124 1217 151 1217 q 73 1208 92 1217 q 41 1186 53 1200 q 20 1154 28 1172 l -48 1186 q -14 1256 -35 1222 q 40 1313 7 1290 q 120 1335 73 1335 q 185 1321 159 1335 q 232 1288 212 1307 q 273 1256 252 1269 q 319 1242 293 1242 q 366 1250 346 1242 q 399 1272 385 1258 q 420 1304 412 1286 l 491 1268 q 458 1195 483 1228 q 399 1142 434 1163 q 322 1122 363 1122 z "},"Ī":{"ha":444,"x_min":33,"x_max":413,"o":"m 140 0 l 140 1032 l 303 1032 l 303 0 l 140 0 m 33 1167 l 33 1282 l 413 1282 l 413 1167 l 33 1167 z "},"Ĭ":{"ha":444,"x_min":-17,"x_max":464,"o":"m 140 0 l 140 1032 l 303 1032 l 303 0 l 140 0 m 223 1107 q 91 1143 146 1107 q 10 1236 37 1180 q -12 1353 -17 1292 l 98 1353 q 101 1325 99 1345 q 115 1283 103 1306 q 152 1244 126 1260 q 224 1228 178 1228 q 297 1244 271 1228 q 334 1283 322 1260 q 349 1325 346 1306 q 352 1353 351 1345 l 459 1353 q 435 1236 464 1292 q 352 1143 407 1180 q 223 1107 297 1107 z "},"Į":{"ha":444,"x_min":0,"x_max":360,"o":"m 140 0 l 140 1032 l 303 1032 l 303 0 l 140 0 m 172 -347 q 90 -331 128 -347 q 26 -283 51 -315 q 1 -207 2 -252 q 26 -123 0 -162 q 93 -52 51 -84 q 179 0 134 -20 l 194 7 l 303 0 q 227 -48 265 -19 q 164 -110 189 -77 q 139 -176 139 -144 q 161 -228 139 -212 q 225 -244 183 -244 q 296 -233 261 -244 q 349 -214 331 -221 l 360 -297 q 286 -330 333 -314 q 172 -347 240 -347 z "},"İ":{"ha":444,"x_min":117,"x_max":328,"o":"m 140 0 l 140 1032 l 303 1032 l 303 0 l 140 0 m 216 1153 q 147 1178 176 1153 q 117 1247 117 1203 q 153 1324 117 1292 q 231 1355 188 1355 q 305 1328 281 1355 q 328 1260 328 1301 q 295 1183 328 1213 q 216 1153 261 1153 z "},"Ĳ":{"ha":938,"x_min":140,"x_max":793,"o":"m 140 0 l 140 1032 l 303 1032 l 303 0 l 140 0 m 467 -225 l 419 -140 q 528 -74 473 -119 q 606 51 584 -29 q 625 208 622 112 q 628 413 628 305 l 628 1032 l 792 1032 l 792 415 q 792 224 792 315 q 779 59 793 133 q 733 -59 767 -8 q 654 -144 699 -110 q 559 -199 608 -179 q 467 -225 510 -219 z "},"Ĵ":{"ha":494,"x_min":-25,"x_max":510,"o":"m 23 -225 l -25 -140 q 84 -74 28 -119 q 161 51 140 -29 q 180 208 177 112 q 183 413 183 305 l 183 1032 l 347 1032 l 347 415 q 348 224 347 315 q 335 59 349 133 q 289 -59 322 -8 q 209 -144 255 -110 q 115 -199 164 -179 q 23 -225 66 -219 m 111 1121 l 15 1163 l 193 1369 l 331 1369 l 510 1165 l 410 1121 l 261 1258 l 111 1121 z "},"Ķ":{"ha":929,"x_min":122,"x_max":888,"o":"m 122 0 l 122 1032 l 283 1032 l 283 522 l 686 1032 l 874 1032 l 456 519 l 435 497 l 247 283 l 283 418 l 283 0 l 122 0 m 660 76 q 595 186 632 128 q 520 302 559 244 q 445 415 481 361 q 383 513 410 469 l 439 550 l 497 615 q 541 545 510 592 q 612 437 572 498 q 695 311 652 376 q 777 184 738 246 q 843 75 816 123 q 858 50 851 63 q 873 25 865 38 q 888 0 880 13 l 701 0 q 685 30 692 14 q 660 76 678 45 m 447 -379 l 391 -351 l 391 -334 q 409 -296 401 -322 q 417 -237 417 -270 q 405 -184 417 -210 q 372 -153 392 -158 l 372 -119 l 483 -56 q 528 -104 507 -67 q 549 -199 549 -141 q 532 -284 549 -247 q 491 -346 515 -322 q 447 -379 467 -371 z "},"Ĺ":{"ha":729,"x_min":93,"x_max":690,"o":"m 122 0 l 122 1032 l 285 1032 l 285 129 l 690 129 l 690 0 l 122 0 m 163 1124 l 93 1189 q 118 1211 94 1190 q 175 1263 142 1233 q 242 1325 208 1294 q 299 1378 276 1356 q 323 1403 322 1400 l 428 1313 q 371 1260 404 1288 q 301 1204 338 1231 q 228 1156 264 1177 q 163 1124 192 1135 z "},"Ļ":{"ha":729,"x_min":122,"x_max":690,"o":"m 122 0 l 122 1032 l 285 1032 l 285 129 l 690 129 l 690 0 l 122 0 m 347 -379 l 291 -351 l 291 -334 q 309 -296 301 -322 q 317 -237 317 -270 q 305 -184 317 -210 q 272 -153 292 -158 l 272 -119 l 383 -56 q 428 -104 407 -67 q 449 -199 449 -141 q 432 -284 449 -247 q 391 -346 415 -322 q 347 -379 367 -371 z "},"Ľ":{"ha":737,"x_min":122,"x_max":690,"o":"m 122 0 l 122 1032 l 285 1032 l 285 129 l 690 129 l 690 0 l 122 0 m 474 836 l 378 836 l 374 844 q 380 908 378 873 q 383 981 383 943 q 379 1051 383 1020 q 367 1100 376 1083 l 374 1124 l 506 1124 q 516 1079 514 1102 q 519 1022 519 1056 q 513 968 519 1004 q 498 895 508 932 q 474 836 488 858 z "},"Ŀ":{"ha":926,"x_min":122,"x_max":831,"o":"m 716 453 q 644 484 674 453 q 612 561 613 515 q 627 623 611 595 q 670 667 644 651 q 726 684 697 684 q 803 652 776 684 q 830 577 829 620 q 815 514 831 542 q 773 470 799 486 q 716 453 747 453 m 122 0 l 122 1032 l 285 1032 l 285 129 l 690 129 l 690 0 l 122 0 z "},"Ł":{"ha":729,"x_min":13,"x_max":690,"o":"m 13 482 l 551 681 l 589 582 l 51 385 l 13 482 m 122 0 l 122 1032 l 285 1032 l 285 129 l 690 129 l 690 0 l 122 0 z "},"Ń":{"ha":1047,"x_min":122,"x_max":925,"o":"m 122 0 l 122 1032 l 271 1032 l 703 364 l 840 107 l 792 107 l 774 396 l 774 1032 l 925 1032 l 925 0 l 769 0 l 354 643 l 194 933 l 254 933 l 271 621 l 271 0 l 122 0 m 490 1124 l 421 1189 q 446 1211 422 1190 q 503 1263 469 1233 q 570 1325 536 1294 q 626 1378 603 1356 q 651 1403 649 1400 l 756 1313 q 699 1260 732 1288 q 629 1204 666 1231 q 556 1156 592 1177 q 490 1124 519 1135 z "},"Ņ":{"ha":1047,"x_min":122,"x_max":925,"o":"m 122 0 l 122 1032 l 271 1032 l 703 364 l 840 107 l 792 107 l 774 396 l 774 1032 l 925 1032 l 925 0 l 769 0 l 354 643 l 194 933 l 254 933 l 271 621 l 271 0 l 122 0 m 510 -379 l 453 -351 l 453 -334 q 472 -296 464 -322 q 479 -237 479 -270 q 467 -184 479 -210 q 435 -153 455 -158 l 435 -119 l 545 -56 q 591 -104 569 -67 q 612 -199 612 -141 q 594 -284 612 -247 q 553 -346 577 -322 q 510 -379 529 -371 z "},"Ň":{"ha":1047,"x_min":122,"x_max":925,"o":"m 122 0 l 122 1032 l 271 1032 l 703 364 l 840 107 l 792 107 l 774 396 l 774 1032 l 925 1032 l 925 0 l 769 0 l 354 643 l 194 933 l 254 933 l 271 621 l 271 0 l 122 0 m 465 1131 l 294 1310 l 385 1356 l 532 1237 l 682 1356 l 768 1313 l 601 1131 l 465 1131 z "},"Ŋ":{"ha":1078,"x_min":130,"x_max":948,"o":"m 290 0 l 131 0 l 130 1032 l 281 1032 l 725 359 l 858 108 l 807 108 l 788 394 l 788 1032 l 948 1032 l 948 350 q 948 230 948 287 q 944 123 948 174 q 931 25 941 72 q 877 -96 916 -42 q 786 -188 839 -149 q 673 -250 733 -227 q 557 -279 613 -273 l 517 -206 q 606 -169 560 -193 q 690 -112 651 -144 q 752 -44 728 -80 q 776 27 776 -8 l 363 649 l 210 928 l 274 928 l 290 622 l 290 0 z "},"Ō":{"ha":1061,"x_min":62,"x_max":999,"o":"m 526 -11 q 278 55 383 -14 q 117 245 173 123 q 65 524 62 367 q 134 812 69 697 q 307 985 199 927 q 547 1043 415 1042 q 787 979 685 1044 q 944 795 889 914 q 996 517 999 676 q 931 227 992 344 q 764 51 869 111 q 526 -11 659 -8 m 531 114 q 749 218 668 114 q 831 524 831 322 q 798 720 831 631 q 702 865 766 810 q 542 919 638 919 q 387 876 458 919 q 273 744 316 833 q 231 514 231 654 q 264 316 231 408 q 365 169 298 225 q 531 114 431 114 m 358 1167 l 358 1282 l 737 1282 l 737 1167 l 358 1167 z "},"Ŏ":{"ha":1061,"x_min":62,"x_max":999,"o":"m 526 -11 q 278 55 383 -14 q 117 245 173 123 q 65 524 62 367 q 134 812 69 697 q 307 985 199 927 q 547 1043 415 1042 q 787 979 685 1044 q 944 795 889 914 q 996 517 999 676 q 931 227 992 344 q 764 51 869 111 q 526 -11 659 -8 m 531 114 q 749 218 668 114 q 831 524 831 322 q 798 720 831 631 q 702 865 766 810 q 542 919 638 919 q 387 876 458 919 q 273 744 316 833 q 231 514 231 654 q 264 316 231 408 q 365 169 298 225 q 531 114 431 114 m 547 1107 q 416 1143 470 1107 q 334 1236 361 1180 q 313 1353 308 1292 l 422 1353 q 425 1325 423 1345 q 439 1283 428 1306 q 476 1244 450 1260 q 549 1228 502 1228 q 621 1244 595 1228 q 658 1283 647 1260 q 673 1325 670 1306 q 676 1353 676 1345 l 783 1353 q 760 1236 788 1292 q 676 1143 731 1180 q 547 1107 622 1107 z "},"Ő":{"ha":1061,"x_min":62,"x_max":999,"o":"m 526 -11 q 278 55 383 -14 q 117 245 173 123 q 65 524 62 367 q 134 812 69 697 q 307 985 199 927 q 547 1043 415 1042 q 787 979 685 1044 q 944 795 889 914 q 996 517 999 676 q 931 227 992 344 q 764 51 869 111 q 526 -11 659 -8 m 531 114 q 749 218 668 114 q 831 524 831 322 q 798 720 831 631 q 702 865 766 810 q 542 919 638 919 q 387 876 458 919 q 273 744 316 833 q 231 514 231 654 q 264 316 231 408 q 365 169 298 225 q 531 114 431 114 m 390 1124 l 301 1176 q 318 1198 303 1178 q 353 1244 333 1217 q 394 1300 374 1272 q 428 1349 414 1328 q 443 1374 442 1369 l 567 1311 q 508 1236 540 1273 q 447 1169 477 1199 q 390 1124 416 1139 m 713 1124 l 624 1176 q 642 1197 627 1178 q 678 1243 657 1216 q 720 1298 699 1270 q 756 1345 741 1325 q 772 1369 770 1365 l 890 1306 q 834 1234 865 1270 q 772 1168 803 1198 q 713 1124 740 1139 z "},"Œ":{"ha":1407,"x_min":65,"x_max":1356,"o":"m 69 521 q 134 806 72 692 q 303 980 196 921 q 547 1043 410 1039 q 652 1033 597 1044 q 750 990 707 1022 l 758 823 q 673 894 724 869 q 545 919 621 919 q 428 897 485 919 q 328 825 372 874 q 258 699 283 776 q 232 514 232 622 q 266 313 232 405 q 368 166 301 222 q 535 111 435 111 q 662 138 606 111 q 756 222 717 165 l 758 67 q 658 12 713 33 q 527 -11 604 -9 q 280 56 384 -13 q 120 245 176 124 q 69 521 65 367 m 707 0 l 707 1032 l 1308 1032 l 1308 907 l 870 907 l 870 594 l 1192 594 l 1192 469 l 870 469 l 870 128 l 1356 128 l 1356 0 l 707 0 z "},"Ŕ":{"ha":926,"x_min":122,"x_max":886,"o":"m 286 0 l 122 0 l 122 1032 q 147 1032 135 1032 q 170 1032 158 1032 q 194 1032 182 1032 q 311 1038 244 1032 q 460 1043 378 1043 q 602 1027 538 1043 q 714 975 667 1010 q 788 884 762 940 q 814 749 814 828 q 783 592 814 656 q 693 491 751 528 q 556 442 635 454 q 497 435 527 438 q 418 432 467 433 q 286 431 369 431 l 286 0 m 286 547 q 331 544 301 545 q 392 543 361 543 q 442 543 424 543 q 596 592 542 543 q 650 742 650 641 q 630 842 650 801 q 563 903 610 883 q 436 924 516 924 q 357 920 396 924 q 286 911 317 917 l 286 547 m 703 0 q 688 28 694 14 q 665 76 681 43 q 623 182 644 123 q 577 296 602 240 q 521 390 553 351 q 446 435 489 428 l 508 483 l 606 475 q 679 413 647 458 q 739 308 711 367 q 791 188 766 249 q 844 76 817 126 q 865 38 855 57 q 886 0 876 19 l 703 0 m 396 1124 l 326 1189 q 351 1211 328 1190 q 408 1263 375 1233 q 475 1325 442 1294 q 532 1378 509 1356 q 556 1403 555 1400 l 661 1313 q 605 1260 638 1288 q 534 1204 572 1231 q 461 1156 497 1177 q 396 1124 425 1135 z "},"Ŗ":{"ha":926,"x_min":122,"x_max":886,"o":"m 286 0 l 122 0 l 122 1032 q 147 1032 135 1032 q 170 1032 158 1032 q 194 1032 182 1032 q 311 1038 244 1032 q 460 1043 378 1043 q 602 1027 538 1043 q 714 975 667 1010 q 788 884 762 940 q 814 749 814 828 q 783 592 814 656 q 693 491 751 528 q 556 442 635 454 q 497 435 527 438 q 418 432 467 433 q 286 431 369 431 l 286 0 m 286 547 q 331 544 301 545 q 392 543 361 543 q 442 543 424 543 q 596 592 542 543 q 650 742 650 641 q 630 842 650 801 q 563 903 610 883 q 436 924 516 924 q 357 920 396 924 q 286 911 317 917 l 286 547 m 703 0 q 688 28 694 14 q 665 76 681 43 q 623 182 644 123 q 577 296 602 240 q 521 390 553 351 q 446 435 489 428 l 508 483 l 606 475 q 679 413 647 458 q 739 308 711 367 q 791 188 766 249 q 844 76 817 126 q 865 38 855 57 q 886 0 876 19 l 703 0 m 446 -379 l 390 -351 l 390 -334 q 408 -296 400 -322 q 415 -237 415 -270 q 403 -184 415 -210 q 371 -153 391 -158 l 371 -119 l 481 -56 q 527 -104 506 -67 q 548 -199 548 -141 q 531 -284 548 -247 q 489 -346 513 -322 q 446 -379 465 -371 z "},"Ř":{"ha":926,"x_min":122,"x_max":886,"o":"m 286 0 l 122 0 l 122 1032 q 147 1032 135 1032 q 170 1032 158 1032 q 194 1032 182 1032 q 311 1038 244 1032 q 460 1043 378 1043 q 602 1027 538 1043 q 714 975 667 1010 q 788 884 762 940 q 814 749 814 828 q 783 592 814 656 q 693 491 751 528 q 556 442 635 454 q 497 435 527 438 q 418 432 467 433 q 286 431 369 431 l 286 0 m 286 547 q 331 544 301 545 q 392 543 361 543 q 442 543 424 543 q 596 592 542 543 q 650 742 650 641 q 630 842 650 801 q 563 903 610 883 q 436 924 516 924 q 357 920 396 924 q 286 911 317 917 l 286 547 m 703 0 q 688 28 694 14 q 665 76 681 43 q 623 182 644 123 q 577 296 602 240 q 521 390 553 351 q 446 435 489 428 l 508 483 l 606 475 q 679 413 647 458 q 739 308 711 367 q 791 188 766 249 q 844 76 817 126 q 865 38 855 57 q 886 0 876 19 l 703 0 m 371 1131 l 200 1310 l 291 1356 l 438 1237 l 588 1356 l 674 1313 l 507 1131 l 371 1131 z "},"Ś":{"ha":785,"x_min":86,"x_max":729,"o":"m 383 -11 q 255 -1 315 -11 q 152 23 195 9 q 90 49 109 37 l 124 181 q 190 151 151 166 q 277 127 230 137 q 373 118 324 118 q 518 150 468 118 q 568 254 568 182 q 543 336 568 303 q 468 398 518 369 q 344 463 419 427 q 222 538 281 494 q 124 640 163 581 q 86 776 86 699 q 116 902 86 851 q 195 984 145 953 q 307 1029 245 1015 q 433 1043 368 1043 q 589 1025 527 1043 q 678 988 651 1006 l 646 860 q 563 900 610 882 q 433 917 515 917 q 339 904 382 917 q 269 864 296 891 q 243 794 243 837 q 263 714 243 747 q 327 654 283 682 q 444 588 372 626 q 547 531 496 561 q 639 464 597 501 q 705 380 680 427 q 729 271 729 332 q 685 114 729 176 q 563 20 641 51 q 383 -11 485 -11 m 372 1124 l 303 1189 q 328 1211 304 1190 q 385 1263 351 1233 q 452 1325 418 1294 q 508 1378 485 1356 q 533 1403 531 1400 l 638 1313 q 581 1260 614 1288 q 511 1204 548 1231 q 438 1156 474 1177 q 372 1124 401 1135 z "},"Ŝ":{"ha":785,"x_min":86,"x_max":729,"o":"m 383 -11 q 255 -1 315 -11 q 152 23 195 9 q 90 49 109 37 l 124 181 q 190 151 151 166 q 277 127 230 137 q 373 118 324 118 q 518 150 468 118 q 568 254 568 182 q 543 336 568 303 q 468 398 518 369 q 344 463 419 427 q 222 538 281 494 q 124 640 163 581 q 86 776 86 699 q 116 902 86 851 q 195 984 145 953 q 307 1029 245 1015 q 433 1043 368 1043 q 589 1025 527 1043 q 678 988 651 1006 l 646 860 q 563 900 610 882 q 433 917 515 917 q 339 904 382 917 q 269 864 296 891 q 243 794 243 837 q 263 714 243 747 q 327 654 283 682 q 444 588 372 626 q 547 531 496 561 q 639 464 597 501 q 705 380 680 427 q 729 271 729 332 q 685 114 729 176 q 563 20 641 51 q 383 -11 485 -11 m 263 1121 l 167 1163 l 344 1369 l 482 1369 l 661 1165 l 561 1121 l 413 1258 l 263 1121 z "},"Ş":{"ha":785,"x_min":86,"x_max":729,"o":"m 383 -11 q 255 -1 315 -11 q 152 23 195 9 q 90 49 109 37 l 124 181 q 190 151 151 166 q 277 127 230 137 q 373 118 324 118 q 518 150 468 118 q 568 254 568 182 q 543 336 568 303 q 468 398 518 369 q 344 463 419 427 q 222 538 281 494 q 124 640 163 581 q 86 776 86 699 q 116 902 86 851 q 195 984 145 953 q 307 1029 245 1015 q 433 1043 368 1043 q 589 1025 527 1043 q 678 988 651 1006 l 646 860 q 563 900 610 882 q 433 917 515 917 q 339 904 382 917 q 269 864 296 891 q 243 794 243 837 q 263 714 243 747 q 327 654 283 682 q 444 588 372 626 q 547 531 496 561 q 639 464 597 501 q 705 380 680 427 q 729 271 729 332 q 685 114 729 176 q 563 20 641 51 q 383 -11 485 -11 m 189 -296 l 199 -197 q 224 -204 208 -202 q 254 -206 239 -206 q 320 -182 296 -206 q 346 -104 345 -159 q 341 -29 347 -59 q 325 21 335 1 l 388 24 l 418 21 q 441 -20 432 5 q 453 -78 449 -46 q 457 -147 457 -110 q 433 -243 457 -206 q 370 -298 408 -280 q 293 -315 333 -315 q 252 -313 274 -315 q 214 -306 231 -310 q 189 -296 197 -301 z "},"Š":{"ha":785,"x_min":86,"x_max":729,"o":"m 383 -11 q 255 -1 315 -11 q 152 23 195 9 q 90 49 109 37 l 124 181 q 190 151 151 166 q 277 127 230 137 q 373 118 324 118 q 518 150 468 118 q 568 254 568 182 q 543 336 568 303 q 468 398 518 369 q 344 463 419 427 q 222 538 281 494 q 124 640 163 581 q 86 776 86 699 q 116 902 86 851 q 195 984 145 953 q 307 1029 245 1015 q 433 1043 368 1043 q 589 1025 527 1043 q 678 988 651 1006 l 646 860 q 563 900 610 882 q 433 917 515 917 q 339 904 382 917 q 269 864 296 891 q 243 794 243 837 q 263 714 243 747 q 327 654 283 682 q 444 588 372 626 q 547 531 496 561 q 639 464 597 501 q 705 380 680 427 q 729 271 729 332 q 685 114 729 176 q 563 20 641 51 q 383 -11 485 -11 m 347 1131 l 176 1310 l 267 1356 l 414 1237 l 564 1356 l 650 1313 l 483 1131 l 347 1131 z "},"Ţ":{"ha":877,"x_min":39,"x_max":838,"o":"m 357 0 l 357 907 l 39 907 l 39 1032 l 838 1032 l 838 907 l 521 907 l 521 0 l 357 0 m 238 -296 l 248 -197 q 273 -204 258 -202 q 303 -206 288 -206 q 370 -182 345 -206 q 395 -104 394 -159 q 390 -29 397 -59 q 374 21 384 1 l 437 24 l 467 21 q 490 -20 481 5 q 502 -78 499 -46 q 506 -147 506 -110 q 482 -243 506 -206 q 420 -298 458 -280 q 342 -315 382 -315 q 302 -313 323 -315 q 263 -306 281 -310 q 238 -296 246 -301 z "},"Ť":{"ha":877,"x_min":39,"x_max":838,"o":"m 357 0 l 357 907 l 39 907 l 39 1032 l 838 1032 l 838 907 l 521 907 l 521 0 l 357 0 m 367 1131 l 196 1310 l 287 1356 l 433 1237 l 583 1356 l 669 1313 l 503 1131 l 367 1131 z "},"Ŧ":{"ha":877,"x_min":39,"x_max":838,"o":"m 163 435 l 163 540 l 720 540 l 720 435 l 163 435 m 357 0 l 357 907 l 39 907 l 39 1032 l 838 1032 l 838 907 l 521 907 l 521 0 l 357 0 z "},"Ũ":{"ha":999,"x_min":107,"x_max":893,"o":"m 505 -11 q 273 42 361 -11 q 146 194 185 94 q 107 432 107 293 l 108 1032 l 270 1032 l 269 463 q 297 250 269 325 q 379 146 325 175 q 510 117 433 117 q 629 146 579 117 q 705 251 678 176 q 732 463 732 326 l 732 1032 l 893 1032 l 893 429 q 797 103 893 217 q 505 -11 701 -11 m 607 1122 q 540 1136 567 1122 q 494 1169 514 1151 q 455 1202 474 1188 q 410 1217 436 1217 q 358 1208 378 1217 q 326 1186 338 1200 q 306 1154 314 1172 l 238 1186 q 271 1256 250 1222 q 325 1313 292 1290 q 406 1335 358 1335 q 471 1321 444 1335 q 517 1288 497 1307 q 558 1256 538 1269 q 604 1242 578 1242 q 651 1250 631 1242 q 684 1272 671 1258 q 706 1304 697 1286 l 776 1268 q 744 1195 768 1228 q 684 1142 719 1163 q 607 1122 649 1122 z "},"Ū":{"ha":999,"x_min":107,"x_max":893,"o":"m 505 -11 q 273 42 361 -11 q 146 194 185 94 q 107 432 107 293 l 108 1032 l 270 1032 l 269 463 q 297 250 269 325 q 379 146 325 175 q 510 117 433 117 q 629 146 579 117 q 705 251 678 176 q 732 463 732 326 l 732 1032 l 893 1032 l 893 429 q 797 103 893 217 q 505 -11 701 -11 m 319 1167 l 319 1282 l 698 1282 l 698 1167 l 319 1167 z "},"Ŭ":{"ha":999,"x_min":107,"x_max":893,"o":"m 505 -11 q 273 42 361 -11 q 146 194 185 94 q 107 432 107 293 l 108 1032 l 270 1032 l 269 463 q 297 250 269 325 q 379 146 325 175 q 510 117 433 117 q 629 146 579 117 q 705 251 678 176 q 732 463 732 326 l 732 1032 l 893 1032 l 893 429 q 797 103 893 217 q 505 -11 701 -11 m 508 1107 q 377 1143 431 1107 q 295 1236 322 1180 q 274 1353 269 1292 l 383 1353 q 386 1325 384 1345 q 400 1283 389 1306 q 437 1244 411 1260 q 510 1228 463 1228 q 582 1244 556 1228 q 619 1283 608 1260 q 634 1325 631 1306 q 638 1353 637 1345 l 744 1353 q 721 1236 749 1292 q 638 1143 692 1180 q 508 1107 583 1107 z "},"Ů":{"ha":999,"x_min":107,"x_max":893,"o":"m 505 -11 q 273 42 361 -11 q 146 194 185 94 q 107 432 107 293 l 108 1032 l 270 1032 l 269 463 q 297 250 269 325 q 379 146 325 175 q 510 117 433 117 q 629 146 579 117 q 705 251 678 176 q 732 463 732 326 l 732 1032 l 893 1032 l 893 429 q 797 103 893 217 q 505 -11 701 -11 m 506 1030 q 346 1080 406 1030 q 288 1217 287 1129 q 321 1321 288 1282 q 404 1378 353 1360 q 508 1395 454 1395 q 669 1349 609 1395 q 729 1215 729 1303 q 697 1109 728 1149 q 616 1049 666 1068 q 506 1030 565 1030 m 506 1118 q 589 1139 557 1118 q 622 1215 622 1160 q 588 1284 622 1261 q 506 1308 555 1308 q 431 1290 465 1309 q 397 1217 397 1272 q 426 1146 397 1172 q 506 1118 456 1119 z "},"Ű":{"ha":999,"x_min":107,"x_max":893,"o":"m 505 -11 q 273 42 361 -11 q 146 194 185 94 q 107 432 107 293 l 108 1032 l 270 1032 l 269 463 q 297 250 269 325 q 379 146 325 175 q 510 117 433 117 q 629 146 579 117 q 705 251 678 176 q 732 463 732 326 l 732 1032 l 893 1032 l 893 429 q 797 103 893 217 q 505 -11 701 -11 m 351 1124 l 263 1176 q 279 1198 265 1178 q 314 1244 294 1217 q 355 1300 335 1272 q 389 1349 375 1328 q 404 1374 403 1369 l 528 1311 q 469 1236 501 1273 q 408 1169 438 1199 q 351 1124 377 1139 m 674 1124 l 585 1176 q 603 1197 588 1178 q 639 1243 618 1216 q 681 1298 660 1270 q 717 1345 702 1325 q 733 1369 731 1365 l 851 1306 q 795 1234 826 1270 q 733 1168 765 1198 q 674 1124 701 1139 z "},"Ų":{"ha":999,"x_min":107,"x_max":893,"o":"m 505 -11 q 273 42 361 -11 q 146 194 185 94 q 107 432 107 293 l 108 1032 l 270 1032 l 269 463 q 297 250 269 325 q 379 146 325 175 q 510 117 433 117 q 629 146 579 117 q 705 251 678 176 q 732 463 732 326 l 732 1032 l 893 1032 l 893 429 q 797 103 893 217 q 505 -11 701 -11 m 483 -347 q 401 -331 440 -347 q 338 -283 362 -315 q 312 -207 313 -252 q 337 -123 311 -162 q 404 -52 363 -84 q 490 0 445 -20 l 506 7 l 615 0 q 538 -48 576 -19 q 475 -110 500 -77 q 450 -176 450 -144 q 472 -228 450 -212 q 536 -244 494 -244 q 607 -233 572 -244 q 660 -214 642 -221 l 671 -297 q 598 -330 644 -314 q 483 -347 551 -347 z "},"Ŵ":{"ha":1308,"x_min":13,"x_max":1294,"o":"m 295 -11 l 13 1032 l 179 1032 l 337 374 l 383 108 l 359 108 l 407 374 l 593 1032 l 717 1032 l 908 374 l 967 108 l 940 108 l 984 373 l 1131 1032 l 1294 1032 l 1028 -11 l 866 -11 l 679 647 l 628 930 l 678 928 l 629 647 l 440 -11 l 295 -11 m 501 1121 l 405 1163 l 583 1369 l 720 1369 l 899 1165 l 799 1121 l 651 1258 l 501 1121 z "},"Ŷ":{"ha":854,"x_min":7,"x_max":848,"o":"m 347 0 l 347 439 l 371 349 l 7 1032 l 181 1032 l 403 593 l 447 488 l 422 488 l 458 593 l 676 1032 l 848 1032 l 488 349 l 512 437 l 512 0 l 347 0 m 282 1121 l 186 1163 l 364 1369 l 501 1369 l 681 1165 l 581 1121 l 432 1258 l 282 1121 z "},"Ÿ":{"ha":854,"x_min":7,"x_max":848,"o":"m 347 0 l 347 439 l 371 349 l 7 1032 l 181 1032 l 403 593 l 447 488 l 422 488 l 458 593 l 676 1032 l 848 1032 l 488 349 l 512 437 l 512 0 l 347 0 m 256 1124 q 188 1149 216 1124 q 159 1217 159 1174 q 193 1295 159 1264 q 271 1326 228 1326 q 344 1299 320 1326 q 367 1231 367 1272 q 334 1153 367 1183 q 256 1124 301 1124 m 595 1124 q 527 1149 555 1124 q 499 1217 499 1174 q 534 1295 499 1264 q 610 1326 568 1326 q 683 1299 659 1326 q 708 1231 708 1272 q 674 1153 708 1183 q 595 1124 640 1124 z "},"Ź":{"ha":853,"x_min":42,"x_max":814,"o":"m 72 0 l 42 57 l 558 856 l 597 904 l 99 904 l 99 1032 l 782 1032 l 814 978 l 308 186 l 258 126 l 775 126 l 775 0 l 72 0 m 393 1124 l 324 1189 q 349 1211 325 1190 q 406 1263 372 1233 q 473 1325 439 1294 q 529 1378 506 1356 q 553 1403 552 1400 l 658 1313 q 602 1260 635 1288 q 532 1204 569 1231 q 458 1156 494 1177 q 393 1124 422 1135 z "},"Ż":{"ha":853,"x_min":42,"x_max":814,"o":"m 72 0 l 42 57 l 558 856 l 597 904 l 99 904 l 99 1032 l 782 1032 l 814 978 l 308 186 l 258 126 l 775 126 l 775 0 l 72 0 m 428 1153 q 358 1178 388 1153 q 329 1247 329 1203 q 365 1324 329 1292 q 443 1355 400 1355 q 516 1328 492 1355 q 540 1260 540 1301 q 507 1183 540 1213 q 428 1153 473 1153 z "},"Ž":{"ha":853,"x_min":42,"x_max":814,"o":"m 72 0 l 42 57 l 558 856 l 597 904 l 99 904 l 99 1032 l 782 1032 l 814 978 l 308 186 l 258 126 l 775 126 l 775 0 l 72 0 m 368 1131 l 197 1310 l 288 1356 l 435 1237 l 585 1356 l 671 1313 l 504 1131 l 368 1131 z "},"Ə":{"ha":1028,"x_min":65,"x_max":963,"o":"m 474 -11 q 322 14 395 -11 q 191 92 249 40 q 99 226 133 144 q 65 418 65 307 q 68 503 65 474 q 75 564 71 532 l 868 564 l 850 435 l 221 435 q 230 321 218 378 q 273 217 242 264 q 358 142 304 170 q 492 114 412 114 q 666 169 597 114 q 768 318 735 224 q 801 529 801 413 q 762 738 801 651 q 654 870 723 824 q 497 915 585 915 q 298 882 384 915 q 154 789 213 849 l 117 918 q 214 984 156 956 q 343 1028 271 1013 q 500 1044 415 1044 q 679 1012 595 1045 q 826 913 763 979 q 926 748 890 847 q 963 517 963 649 q 908 237 963 356 q 744 54 853 119 q 474 -11 635 -11 z "},"Ơ":{"ha":1061,"x_min":62,"x_max":999,"o":"m 526 -11 q 278 55 383 -14 q 117 245 173 123 q 65 524 62 367 q 134 812 69 697 q 307 985 199 927 q 547 1043 415 1042 q 787 979 685 1044 q 944 795 889 914 q 996 517 999 676 q 931 227 992 344 q 764 51 869 111 q 526 -11 659 -8 m 531 114 q 749 218 668 114 q 831 524 831 322 q 798 720 831 631 q 702 865 766 810 q 542 919 638 919 q 387 876 458 919 q 273 744 316 833 q 231 514 231 654 q 264 316 231 408 q 365 169 298 225 q 531 114 431 114 m 711 907 l 711 1000 q 789 1016 758 1000 q 839 1055 820 1031 q 866 1105 857 1079 q 878 1153 875 1131 q 880 1166 879 1160 q 879 1176 881 1172 l 988 1176 q 990 1161 989 1168 q 990 1146 990 1153 q 951 1025 990 1079 q 848 939 912 971 q 711 907 785 907 z "},"Ư":{"ha":999,"x_min":107,"x_max":1072,"o":"m 505 -11 q 273 42 361 -11 q 146 194 185 94 q 107 432 107 293 l 108 1032 l 270 1032 l 269 463 q 297 250 269 325 q 379 146 325 175 q 510 117 433 117 q 629 146 579 117 q 705 251 678 176 q 732 463 732 326 l 732 1032 l 893 1032 l 893 429 q 797 103 893 217 q 505 -11 701 -11 m 793 938 l 793 1031 q 871 1046 840 1031 q 920 1086 902 1062 q 948 1136 939 1110 q 960 1183 957 1162 q 962 1197 961 1191 q 961 1207 963 1203 l 1069 1207 q 1072 1191 1071 1199 q 1072 1176 1072 1184 q 1033 1056 1072 1110 q 930 969 994 1001 q 793 938 867 938 z "},"Ʒ":{"ha":788,"x_min":81,"x_max":743,"o":"m 242 -14 q 154 -9 196 -14 q 81 -1 112 -3 l 81 118 q 124 110 101 114 q 167 105 147 107 q 200 103 187 103 q 402 130 320 103 q 525 206 483 156 q 567 326 567 256 q 537 423 567 386 q 460 476 507 460 q 363 493 413 493 q 288 484 324 493 q 224 458 251 475 l 221 594 l 422 824 l 517 907 l 93 907 l 93 1032 l 693 1032 l 690 914 l 406 599 q 550 581 488 604 q 656 516 613 557 q 721 424 699 474 q 743 326 743 374 q 693 158 743 235 q 534 33 644 81 q 242 -14 424 -14 z "},"Ǆ":{"ha":1825,"x_min":122,"x_max":1786,"o":"m 122 0 l 122 1032 q 150 1032 136 1032 q 176 1032 163 1032 q 203 1032 190 1032 q 275 1035 235 1032 q 359 1040 315 1038 q 449 1043 403 1043 q 821 912 700 1043 q 942 546 942 781 q 880 244 942 369 q 703 52 817 118 q 432 -11 588 -14 q 310 -5 377 -10 q 189 0 242 0 q 167 0 178 0 q 144 0 156 0 q 122 0 133 0 m 286 124 q 366 114 319 117 q 456 111 413 110 q 619 155 548 113 q 731 288 690 197 q 771 522 771 378 q 731 759 771 672 q 613 885 692 847 q 417 924 534 924 q 342 921 376 924 q 286 914 308 918 l 286 124 m 1044 0 l 1014 57 l 1531 856 l 1569 904 l 1071 904 l 1071 1032 l 1754 1032 l 1786 978 l 1281 186 l 1231 126 l 1747 126 l 1747 0 l 1044 0 m 1340 1131 l 1169 1310 l 1260 1356 l 1407 1237 l 1557 1356 l 1643 1313 l 1476 1131 l 1340 1131 z "},"Ǉ":{"ha":1223,"x_min":122,"x_max":1078,"o":"m 122 0 l 122 1032 l 285 1032 l 285 129 l 690 129 l 690 0 l 122 0 m 752 -225 l 704 -140 q 813 -74 758 -119 q 890 51 869 -29 q 909 208 906 112 q 913 413 913 305 l 913 1032 l 1076 1032 l 1076 415 q 1077 224 1076 315 q 1064 59 1078 133 q 1018 -59 1051 -8 q 939 -144 984 -110 q 844 -199 893 -179 q 752 -225 795 -219 z "},"Ǌ":{"ha":1541,"x_min":122,"x_max":1396,"o":"m 122 0 l 122 1032 l 271 1032 l 703 364 l 840 107 l 792 107 l 774 396 l 774 1032 l 925 1032 l 925 0 l 769 0 l 354 643 l 194 933 l 254 933 l 271 621 l 271 0 l 122 0 m 1070 -225 l 1022 -140 q 1131 -74 1076 -119 q 1208 51 1187 -29 q 1227 208 1224 112 q 1231 413 1231 305 l 1231 1032 l 1394 1032 l 1394 415 q 1395 224 1394 315 q 1382 59 1396 133 q 1336 -59 1369 -8 q 1257 -144 1302 -110 q 1162 -199 1211 -179 q 1070 -225 1113 -219 z "},"Ǎ":{"ha":956,"x_min":10,"x_max":947,"o":"m 182 0 l 10 0 l 401 1043 l 560 1043 l 947 0 l 769 0 l 512 776 l 483 875 l 452 776 l 182 0 m 204 253 l 232 374 l 706 374 l 735 253 l 204 253 m 410 1131 l 240 1310 l 331 1356 l 477 1237 l 627 1356 l 713 1313 l 547 1131 l 410 1131 z "},"Ǐ":{"ha":444,"x_min":-15,"x_max":459,"o":"m 140 0 l 140 1032 l 303 1032 l 303 0 l 140 0 m 156 1131 l -15 1310 l 76 1356 l 223 1237 l 373 1356 l 459 1313 l 292 1131 l 156 1131 z "},"Ǒ":{"ha":1061,"x_min":62,"x_max":999,"o":"m 526 -11 q 278 55 383 -14 q 117 245 173 123 q 65 524 62 367 q 134 812 69 697 q 307 985 199 927 q 547 1043 415 1042 q 787 979 685 1044 q 944 795 889 914 q 996 517 999 676 q 931 227 992 344 q 764 51 869 111 q 526 -11 659 -8 m 531 114 q 749 218 668 114 q 831 524 831 322 q 798 720 831 631 q 702 865 766 810 q 542 919 638 919 q 387 876 458 919 q 273 744 316 833 q 231 514 231 654 q 264 316 231 408 q 365 169 298 225 q 531 114 431 114 m 481 1131 l 310 1310 l 401 1356 l 547 1237 l 697 1356 l 783 1313 l 617 1131 l 481 1131 z "},"Ǔ":{"ha":999,"x_min":107,"x_max":893,"o":"m 505 -11 q 273 42 361 -11 q 146 194 185 94 q 107 432 107 293 l 108 1032 l 270 1032 l 269 463 q 297 250 269 325 q 379 146 325 175 q 510 117 433 117 q 629 146 579 117 q 705 251 678 176 q 732 463 732 326 l 732 1032 l 893 1032 l 893 429 q 797 103 893 217 q 505 -11 701 -11 m 442 1131 l 271 1310 l 362 1356 l 508 1237 l 658 1356 l 744 1313 l 578 1131 l 442 1131 z "},"Ǖ":{"ha":999,"x_min":107,"x_max":893,"o":"m 505 -11 q 273 42 361 -11 q 146 194 185 94 q 107 432 107 293 l 108 1032 l 270 1032 l 269 463 q 297 250 269 325 q 379 146 325 175 q 510 117 433 117 q 629 146 579 117 q 705 251 678 176 q 732 463 732 326 l 732 1032 l 893 1032 l 893 429 q 797 103 893 217 q 505 -11 701 -11 m 331 1124 q 263 1149 291 1124 q 234 1217 234 1174 q 268 1295 234 1264 q 346 1326 303 1326 q 419 1299 395 1326 q 442 1231 442 1272 q 409 1153 442 1183 q 331 1124 376 1124 m 670 1124 q 602 1149 630 1124 q 574 1217 574 1174 q 609 1295 574 1264 q 685 1326 643 1326 q 758 1299 734 1326 q 783 1231 783 1272 q 749 1153 783 1183 q 670 1124 715 1124 m 319 1415 l 319 1529 l 698 1529 l 698 1415 l 319 1415 z "},"Ǘ":{"ha":999,"x_min":107,"x_max":893,"o":"m 505 -11 q 273 42 361 -11 q 146 194 185 94 q 107 432 107 293 l 108 1032 l 270 1032 l 269 463 q 297 250 269 325 q 379 146 325 175 q 510 117 433 117 q 629 146 579 117 q 705 251 678 176 q 732 463 732 326 l 732 1032 l 893 1032 l 893 429 q 797 103 893 217 q 505 -11 701 -11 m 331 1124 q 263 1149 291 1124 q 234 1217 234 1174 q 268 1295 234 1264 q 346 1326 303 1326 q 419 1299 395 1326 q 442 1231 442 1272 q 409 1153 442 1183 q 331 1124 376 1124 m 670 1124 q 602 1149 630 1124 q 574 1217 574 1174 q 609 1295 574 1264 q 685 1326 643 1326 q 758 1299 734 1326 q 783 1231 783 1272 q 749 1153 783 1183 q 670 1124 715 1124 m 467 1372 l 397 1436 q 422 1459 399 1438 q 479 1510 446 1480 q 546 1572 513 1541 q 603 1625 580 1603 q 627 1650 626 1647 l 732 1560 q 675 1507 708 1535 q 605 1451 642 1478 q 532 1403 568 1424 q 467 1372 496 1382 z "},"Ǚ":{"ha":999,"x_min":107,"x_max":893,"o":"m 505 -11 q 273 42 361 -11 q 146 194 185 94 q 107 432 107 293 l 108 1032 l 270 1032 l 269 463 q 297 250 269 325 q 379 146 325 175 q 510 117 433 117 q 629 146 579 117 q 705 251 678 176 q 732 463 732 326 l 732 1032 l 893 1032 l 893 429 q 797 103 893 217 q 505 -11 701 -11 m 331 1124 q 263 1149 291 1124 q 234 1217 234 1174 q 268 1295 234 1264 q 346 1326 303 1326 q 419 1299 395 1326 q 442 1231 442 1272 q 409 1153 442 1183 q 331 1124 376 1124 m 670 1124 q 602 1149 630 1124 q 574 1217 574 1174 q 609 1295 574 1264 q 685 1326 643 1326 q 758 1299 734 1326 q 783 1231 783 1272 q 749 1153 783 1183 q 670 1124 715 1124 m 442 1378 l 271 1558 l 362 1603 l 508 1484 l 658 1603 l 744 1560 l 578 1378 l 442 1378 z "},"Ǜ":{"ha":999,"x_min":107,"x_max":893,"o":"m 505 -11 q 273 42 361 -11 q 146 194 185 94 q 107 432 107 293 l 108 1032 l 270 1032 l 269 463 q 297 250 269 325 q 379 146 325 175 q 510 117 433 117 q 629 146 579 117 q 705 251 678 176 q 732 463 732 326 l 732 1032 l 893 1032 l 893 429 q 797 103 893 217 q 505 -11 701 -11 m 331 1124 q 263 1149 291 1124 q 234 1217 234 1174 q 268 1295 234 1264 q 346 1326 303 1326 q 419 1299 395 1326 q 442 1231 442 1272 q 409 1153 442 1183 q 331 1124 376 1124 m 670 1124 q 602 1149 630 1124 q 574 1217 574 1174 q 609 1295 574 1264 q 685 1326 643 1326 q 758 1299 734 1326 q 783 1231 783 1272 q 749 1153 783 1183 q 670 1124 715 1124 m 597 1438 l 528 1372 q 468 1402 504 1381 q 392 1452 431 1424 q 318 1509 352 1481 q 263 1562 283 1538 l 372 1652 q 395 1625 373 1648 q 451 1572 418 1603 q 516 1512 483 1542 q 572 1461 549 1482 q 597 1438 595 1440 z "},"Ǧ":{"ha":979,"x_min":67,"x_max":900,"o":"m 67 511 q 104 745 67 645 q 208 911 142 844 q 363 1010 274 977 q 552 1043 451 1043 q 677 1036 630 1043 q 760 1020 724 1030 q 842 1003 797 1011 l 835 858 q 722 899 785 883 q 544 915 658 915 q 384 869 454 915 q 275 738 315 824 q 235 529 235 651 q 269 318 235 413 q 370 168 302 224 q 544 113 439 113 q 657 122 601 113 q 743 150 714 131 l 743 424 l 784 395 l 561 405 l 561 524 l 900 524 l 900 63 q 849 50 877 62 q 781 25 820 39 q 684 0 741 10 q 549 -11 628 -11 q 288 57 395 -11 q 123 242 180 124 q 67 511 67 360 m 485 1131 l 314 1310 l 405 1356 l 551 1237 l 701 1356 l 788 1313 l 621 1131 l 485 1131 z "},"Ǫ":{"ha":1061,"x_min":62,"x_max":999,"o":"m 526 -11 q 278 55 383 -14 q 117 245 173 123 q 65 524 62 367 q 134 812 69 697 q 307 985 199 927 q 547 1043 415 1042 q 787 979 685 1044 q 944 795 889 914 q 996 517 999 676 q 931 227 992 344 q 764 51 869 111 q 526 -11 659 -8 m 531 114 q 749 218 668 114 q 831 524 831 322 q 798 720 831 631 q 702 865 766 810 q 542 919 638 919 q 387 876 458 919 q 273 744 316 833 q 231 514 231 654 q 264 316 231 408 q 365 169 298 225 q 531 114 431 114 m 493 -347 q 411 -331 450 -347 q 348 -283 372 -315 q 322 -207 324 -252 q 347 -123 322 -162 q 414 -52 373 -84 q 501 0 456 -20 l 516 7 l 625 0 q 549 -48 587 -19 q 485 -110 510 -77 q 460 -176 460 -144 q 482 -228 460 -212 q 547 -244 504 -244 q 618 -233 583 -244 q 670 -214 653 -221 l 681 -297 q 608 -330 655 -314 q 493 -347 561 -347 z "},"Ǯ":{"ha":788,"x_min":81,"x_max":743,"o":"m 242 -14 q 154 -9 196 -14 q 81 -1 112 -3 l 81 118 q 124 110 101 114 q 167 105 147 107 q 200 103 187 103 q 402 130 320 103 q 525 206 483 156 q 567 326 567 256 q 537 423 567 386 q 460 476 507 460 q 363 493 413 493 q 288 484 324 493 q 224 458 251 475 l 221 594 l 422 824 l 517 907 l 93 907 l 93 1032 l 693 1032 l 690 914 l 406 599 q 550 581 488 604 q 656 516 613 557 q 721 424 699 474 q 743 326 743 374 q 693 158 743 235 q 534 33 644 81 q 242 -14 424 -14 m 326 1131 l 155 1310 l 246 1356 l 392 1237 l 542 1356 l 628 1313 l 462 1131 l 326 1131 z "},"Ǳ":{"ha":1825,"x_min":122,"x_max":1786,"o":"m 122 0 l 122 1032 q 150 1032 136 1032 q 176 1032 163 1032 q 203 1032 190 1032 q 275 1035 235 1032 q 359 1040 315 1038 q 449 1043 403 1043 q 821 912 700 1043 q 942 546 942 781 q 880 244 942 369 q 703 52 817 118 q 432 -11 588 -14 q 310 -5 377 -10 q 189 0 242 0 q 167 0 178 0 q 144 0 156 0 q 122 0 133 0 m 286 124 q 366 114 319 117 q 456 111 413 110 q 619 155 548 113 q 731 288 690 197 q 771 522 771 378 q 731 759 771 672 q 613 885 692 847 q 417 924 534 924 q 342 921 376 924 q 286 914 308 918 l 286 124 m 1044 0 l 1014 57 l 1531 856 l 1569 904 l 1071 904 l 1071 1032 l 1754 1032 l 1786 978 l 1281 186 l 1231 126 l 1747 126 l 1747 0 l 1044 0 z "},"Ǻ":{"ha":956,"x_min":10,"x_max":947,"o":"m 182 0 l 10 0 l 401 1043 l 560 1043 l 947 0 l 769 0 l 512 776 l 483 875 l 452 776 l 182 0 m 204 253 l 232 374 l 706 374 l 735 253 l 204 253 m 474 1030 q 315 1080 374 1030 q 256 1217 256 1129 q 290 1321 257 1282 q 373 1378 322 1360 q 476 1395 423 1395 q 638 1349 578 1395 q 698 1215 698 1303 q 666 1109 697 1149 q 584 1049 635 1068 q 474 1030 534 1030 m 474 1118 q 558 1139 526 1118 q 590 1215 590 1160 q 557 1284 590 1261 q 474 1308 524 1308 q 400 1290 434 1309 q 365 1217 365 1272 q 395 1146 365 1172 q 474 1118 424 1119 m 529 1319 l 460 1383 q 485 1406 461 1385 q 542 1458 508 1427 q 609 1519 575 1488 q 665 1572 642 1550 q 690 1597 688 1594 l 794 1507 q 738 1454 771 1483 q 668 1399 705 1426 q 594 1350 631 1372 q 529 1319 558 1329 z "},"Ǽ":{"ha":1271,"x_min":-54,"x_max":1219,"o":"m -54 0 l 442 1032 l 579 957 l 124 0 l -54 0 m 571 1032 l 626 933 l 463 933 l 442 1032 l 571 1032 m 160 260 l 189 379 l 661 379 l 685 260 l 160 260 m 571 0 l 571 1032 l 1170 1032 l 1170 907 l 733 907 l 733 594 l 1056 594 l 1056 469 l 733 469 l 733 128 l 1219 128 l 1219 0 l 571 0 m 653 1124 l 584 1189 q 609 1211 585 1190 q 666 1263 633 1233 q 733 1325 699 1294 q 790 1378 767 1356 q 814 1403 813 1400 l 919 1313 q 862 1260 895 1288 q 792 1204 829 1231 q 719 1156 755 1177 q 653 1124 683 1135 z "},"Ǿ":{"ha":1067,"x_min":65,"x_max":1003,"o":"m 249 -138 l 168 -114 l 819 1184 l 900 1160 l 249 -138 m 529 -11 q 281 55 385 -14 q 120 245 176 123 q 68 523 65 367 q 136 812 72 697 q 309 985 201 927 q 550 1043 417 1042 q 790 979 688 1044 q 948 795 892 914 q 999 517 1003 676 q 934 227 996 343 q 767 51 872 110 q 529 -11 663 -8 m 533 113 q 752 217 670 113 q 834 524 834 322 q 802 720 834 631 q 705 865 769 810 q 544 919 641 919 q 390 876 460 919 q 276 744 319 833 q 233 514 233 654 q 266 317 233 408 q 367 169 300 225 q 533 113 434 113 m 481 1124 l 411 1189 q 436 1211 413 1190 q 493 1263 460 1233 q 560 1325 526 1294 q 617 1378 594 1356 q 641 1403 640 1400 l 746 1313 q 689 1260 722 1288 q 619 1204 656 1231 q 546 1156 582 1177 q 481 1124 510 1135 z "},"Ȁ":{"ha":956,"x_min":10,"x_max":947,"o":"m 182 0 l 10 0 l 401 1043 l 560 1043 l 947 0 l 769 0 l 512 776 l 483 875 l 452 776 l 182 0 m 204 253 l 232 374 l 706 374 l 735 253 l 204 253 m 640 1124 q 583 1169 614 1139 q 521 1236 553 1199 q 462 1311 490 1274 l 587 1374 q 602 1349 588 1369 q 636 1300 616 1328 q 676 1244 656 1272 q 711 1198 697 1217 q 728 1176 726 1178 l 640 1124 m 316 1124 q 257 1169 289 1139 q 195 1235 226 1199 q 140 1307 164 1272 l 258 1369 q 273 1346 259 1366 q 309 1298 288 1326 q 351 1244 330 1271 q 387 1198 372 1217 q 405 1176 402 1178 l 316 1124 z "},"Ȃ":{"ha":956,"x_min":10,"x_max":947,"o":"m 182 0 l 10 0 l 401 1043 l 560 1043 l 947 0 l 769 0 l 512 776 l 483 875 l 452 776 l 182 0 m 204 253 l 232 374 l 706 374 l 735 253 l 204 253 m 477 1380 q 606 1343 551 1380 q 690 1251 661 1307 q 713 1133 718 1194 l 606 1133 q 603 1161 606 1141 q 588 1203 600 1181 q 551 1242 576 1226 q 478 1258 525 1258 q 406 1242 432 1258 q 369 1203 380 1226 q 355 1161 358 1181 q 352 1133 353 1141 l 242 1133 q 264 1251 238 1194 q 345 1343 291 1307 q 477 1380 400 1380 z "},"Ȅ":{"ha":821,"x_min":100,"x_max":771,"o":"m 122 0 l 122 1032 l 722 1032 l 722 907 l 286 907 l 286 593 l 610 593 l 610 469 l 286 469 l 286 128 l 771 128 l 771 0 l 122 0 m 600 1124 q 544 1169 574 1139 q 482 1236 513 1199 q 422 1311 450 1274 l 547 1374 q 563 1349 549 1369 q 597 1300 576 1328 q 637 1244 617 1272 q 672 1198 657 1217 q 689 1176 686 1178 l 600 1124 m 276 1124 q 218 1169 249 1139 q 155 1235 186 1199 q 100 1307 124 1272 l 218 1369 q 234 1346 219 1366 q 269 1298 248 1326 q 311 1244 290 1271 q 348 1198 333 1217 q 365 1176 363 1178 l 276 1124 z "},"Ȇ":{"ha":821,"x_min":122,"x_max":771,"o":"m 122 0 l 122 1032 l 722 1032 l 722 907 l 286 907 l 286 593 l 610 593 l 610 469 l 286 469 l 286 128 l 771 128 l 771 0 l 122 0 m 438 1380 q 567 1343 512 1380 q 650 1251 622 1307 q 674 1133 678 1194 l 567 1133 q 563 1161 566 1141 q 549 1203 560 1181 q 511 1242 537 1226 q 439 1258 485 1258 q 366 1242 392 1258 q 329 1203 340 1226 q 316 1161 318 1181 q 313 1133 313 1141 l 203 1133 q 225 1251 198 1194 q 306 1343 251 1307 q 438 1380 360 1380 z "},"Ȉ":{"ha":444,"x_min":-115,"x_max":474,"o":"m 140 0 l 140 1032 l 303 1032 l 303 0 l 140 0 m 385 1124 q 329 1169 360 1139 q 267 1236 299 1199 q 208 1311 235 1274 l 333 1374 q 348 1349 334 1369 q 382 1300 362 1328 q 422 1244 402 1272 q 457 1198 442 1217 q 474 1176 472 1178 l 385 1124 m 62 1124 q 3 1169 35 1139 q -59 1235 -28 1199 q -115 1307 -90 1272 l 3 1369 q 19 1346 5 1366 q 55 1298 33 1326 q 97 1244 76 1271 q 133 1198 118 1217 q 151 1176 148 1178 l 62 1124 z "},"Ȋ":{"ha":444,"x_min":-17,"x_max":464,"o":"m 140 0 l 140 1032 l 303 1032 l 303 0 l 140 0 m 223 1380 q 352 1343 297 1380 q 435 1251 407 1307 q 459 1133 464 1194 l 352 1133 q 349 1161 351 1141 q 334 1203 346 1181 q 297 1242 322 1226 q 224 1258 271 1258 q 152 1242 178 1258 q 115 1203 126 1226 q 101 1161 103 1181 q 98 1133 99 1141 l -12 1133 q 10 1251 -17 1194 q 91 1343 37 1307 q 223 1380 146 1380 z "},"Ȍ":{"ha":1061,"x_min":62,"x_max":999,"o":"m 526 -11 q 278 55 383 -14 q 117 245 173 123 q 65 524 62 367 q 134 812 69 697 q 307 985 199 927 q 547 1043 415 1042 q 787 979 685 1044 q 944 795 889 914 q 996 517 999 676 q 931 227 992 344 q 764 51 869 111 q 526 -11 659 -8 m 531 114 q 749 218 668 114 q 831 524 831 322 q 798 720 831 631 q 702 865 766 810 q 542 919 638 919 q 387 876 458 919 q 273 744 316 833 q 231 514 231 654 q 264 316 231 408 q 365 169 298 225 q 531 114 431 114 m 710 1124 q 653 1169 684 1139 q 591 1236 623 1199 q 532 1311 560 1274 l 657 1374 q 672 1349 658 1369 q 706 1300 686 1328 q 747 1244 726 1272 q 781 1198 767 1217 q 799 1176 796 1178 l 710 1124 m 386 1124 q 327 1169 359 1139 q 265 1235 296 1199 q 210 1307 234 1272 l 328 1369 q 343 1346 329 1366 q 379 1298 358 1326 q 421 1244 400 1271 q 457 1198 442 1217 q 475 1176 472 1178 l 386 1124 z "},"Ȏ":{"ha":1061,"x_min":62,"x_max":999,"o":"m 526 -11 q 278 55 383 -14 q 117 245 173 123 q 65 524 62 367 q 134 812 69 697 q 307 985 199 927 q 547 1043 415 1042 q 787 979 685 1044 q 944 795 889 914 q 996 517 999 676 q 931 227 992 344 q 764 51 869 111 q 526 -11 659 -8 m 531 114 q 749 218 668 114 q 831 524 831 322 q 798 720 831 631 q 702 865 766 810 q 542 919 638 919 q 387 876 458 919 q 273 744 316 833 q 231 514 231 654 q 264 316 231 408 q 365 169 298 225 q 531 114 431 114 m 547 1380 q 676 1343 622 1380 q 760 1251 731 1307 q 783 1133 788 1194 l 676 1133 q 673 1161 676 1141 q 658 1203 670 1181 q 621 1242 647 1226 q 549 1258 595 1258 q 476 1242 502 1258 q 439 1203 450 1226 q 425 1161 428 1181 q 422 1133 423 1141 l 313 1133 q 334 1251 308 1194 q 416 1343 361 1307 q 547 1380 470 1380 z "},"Ȑ":{"ha":926,"x_min":100,"x_max":886,"o":"m 286 0 l 122 0 l 122 1032 q 147 1032 135 1032 q 170 1032 158 1032 q 194 1032 182 1032 q 311 1038 244 1032 q 460 1043 378 1043 q 602 1027 538 1043 q 714 975 667 1010 q 788 884 762 940 q 814 749 814 828 q 783 592 814 656 q 693 491 751 528 q 556 442 635 454 q 497 435 527 438 q 418 432 467 433 q 286 431 369 431 l 286 0 m 286 547 q 331 544 301 545 q 392 543 361 543 q 442 543 424 543 q 596 592 542 543 q 650 742 650 641 q 630 842 650 801 q 563 903 610 883 q 436 924 516 924 q 357 920 396 924 q 286 911 317 917 l 286 547 m 703 0 q 688 28 694 14 q 665 76 681 43 q 623 182 644 123 q 577 296 602 240 q 521 390 553 351 q 446 435 489 428 l 508 483 l 606 475 q 679 413 647 458 q 739 308 711 367 q 791 188 766 249 q 844 76 817 126 q 865 38 855 57 q 886 0 876 19 l 703 0 m 600 1124 q 544 1169 574 1139 q 482 1236 513 1199 q 422 1311 450 1274 l 547 1374 q 563 1349 549 1369 q 597 1300 576 1328 q 637 1244 617 1272 q 672 1198 657 1217 q 689 1176 686 1178 l 600 1124 m 276 1124 q 218 1169 249 1139 q 155 1235 186 1199 q 100 1307 124 1272 l 218 1369 q 234 1346 219 1366 q 269 1298 248 1326 q 311 1244 290 1271 q 348 1198 333 1217 q 365 1176 363 1178 l 276 1124 z "},"Ȓ":{"ha":926,"x_min":122,"x_max":886,"o":"m 286 0 l 122 0 l 122 1032 q 147 1032 135 1032 q 170 1032 158 1032 q 194 1032 182 1032 q 311 1038 244 1032 q 460 1043 378 1043 q 602 1027 538 1043 q 714 975 667 1010 q 788 884 762 940 q 814 749 814 828 q 783 592 814 656 q 693 491 751 528 q 556 442 635 454 q 497 435 527 438 q 418 432 467 433 q 286 431 369 431 l 286 0 m 286 547 q 331 544 301 545 q 392 543 361 543 q 442 543 424 543 q 596 592 542 543 q 650 742 650 641 q 630 842 650 801 q 563 903 610 883 q 436 924 516 924 q 357 920 396 924 q 286 911 317 917 l 286 547 m 703 0 q 688 28 694 14 q 665 76 681 43 q 623 182 644 123 q 577 296 602 240 q 521 390 553 351 q 446 435 489 428 l 508 483 l 606 475 q 679 413 647 458 q 739 308 711 367 q 791 188 766 249 q 844 76 817 126 q 865 38 855 57 q 886 0 876 19 l 703 0 m 438 1380 q 567 1343 512 1380 q 650 1251 622 1307 q 674 1133 678 1194 l 567 1133 q 563 1161 566 1141 q 549 1203 560 1181 q 511 1242 537 1226 q 439 1258 485 1258 q 366 1242 392 1258 q 329 1203 340 1226 q 316 1161 318 1181 q 313 1133 313 1141 l 203 1133 q 225 1251 198 1194 q 306 1343 251 1307 q 438 1380 360 1380 z "},"Ȕ":{"ha":999,"x_min":107,"x_max":893,"o":"m 505 -11 q 273 42 361 -11 q 146 194 185 94 q 107 432 107 293 l 108 1032 l 270 1032 l 269 463 q 297 250 269 325 q 379 146 325 175 q 510 117 433 117 q 629 146 579 117 q 705 251 678 176 q 732 463 732 326 l 732 1032 l 893 1032 l 893 429 q 797 103 893 217 q 505 -11 701 -11 m 671 1124 q 615 1169 645 1139 q 552 1236 584 1199 q 493 1311 521 1274 l 618 1374 q 633 1349 619 1369 q 667 1300 647 1328 q 708 1244 688 1272 q 742 1198 728 1217 q 760 1176 757 1178 l 671 1124 m 347 1124 q 289 1169 320 1139 q 226 1235 257 1199 q 171 1307 195 1272 l 289 1369 q 305 1346 290 1366 q 340 1298 319 1326 q 382 1244 361 1271 q 418 1198 403 1217 q 436 1176 433 1178 l 347 1124 z "},"Ȗ":{"ha":999,"x_min":107,"x_max":893,"o":"m 505 -11 q 273 42 361 -11 q 146 194 185 94 q 107 432 107 293 l 108 1032 l 270 1032 l 269 463 q 297 250 269 325 q 379 146 325 175 q 510 117 433 117 q 629 146 579 117 q 705 251 678 176 q 732 463 732 326 l 732 1032 l 893 1032 l 893 429 q 797 103 893 217 q 505 -11 701 -11 m 508 1380 q 638 1343 583 1380 q 721 1251 692 1307 q 744 1133 749 1194 l 638 1133 q 634 1161 637 1141 q 619 1203 631 1181 q 582 1242 608 1226 q 510 1258 556 1258 q 437 1242 463 1258 q 400 1203 411 1226 q 386 1161 389 1181 q 383 1133 384 1141 l 274 1133 q 295 1251 269 1194 q 377 1343 322 1307 q 508 1380 431 1380 z "},"Ș":{"ha":785,"x_min":86,"x_max":729,"o":"m 383 -11 q 255 -1 315 -11 q 152 23 195 9 q 90 49 109 37 l 124 181 q 190 151 151 166 q 277 127 230 137 q 373 118 324 118 q 518 150 468 118 q 568 254 568 182 q 543 336 568 303 q 468 398 518 369 q 344 463 419 427 q 222 538 281 494 q 124 640 163 581 q 86 776 86 699 q 116 902 86 851 q 195 984 145 953 q 307 1029 245 1015 q 433 1043 368 1043 q 589 1025 527 1043 q 678 988 651 1006 l 646 860 q 563 900 610 882 q 433 917 515 917 q 339 904 382 917 q 269 864 296 891 q 243 794 243 837 q 263 714 243 747 q 327 654 283 682 q 444 588 372 626 q 547 531 496 561 q 639 464 597 501 q 705 380 680 427 q 729 271 729 332 q 685 114 729 176 q 563 20 641 51 q 383 -11 485 -11 m 375 -379 l 319 -351 l 319 -334 q 337 -296 329 -322 q 344 -237 344 -270 q 332 -184 344 -210 q 300 -153 320 -158 l 300 -119 l 410 -56 q 456 -104 435 -67 q 477 -199 477 -141 q 460 -284 477 -247 q 418 -346 442 -322 q 375 -379 394 -371 z "},"Ț":{"ha":877,"x_min":39,"x_max":838,"o":"m 357 0 l 357 907 l 39 907 l 39 1032 l 838 1032 l 838 907 l 521 907 l 521 0 l 357 0 m 424 -379 l 368 -351 l 368 -334 q 386 -296 378 -322 q 394 -237 394 -270 q 382 -184 394 -210 q 349 -153 369 -158 l 349 -119 l 460 -56 q 505 -104 484 -67 q 526 -199 526 -141 q 509 -284 526 -247 q 468 -346 492 -322 q 424 -379 444 -371 z "},"Ȫ":{"ha":1061,"x_min":62,"x_max":999,"o":"m 526 -11 q 278 55 383 -14 q 117 245 173 123 q 65 524 62 367 q 134 812 69 697 q 307 985 199 927 q 547 1043 415 1042 q 787 979 685 1044 q 944 795 889 914 q 996 517 999 676 q 931 227 992 344 q 764 51 869 111 q 526 -11 659 -8 m 531 114 q 749 218 668 114 q 831 524 831 322 q 798 720 831 631 q 702 865 766 810 q 542 919 638 919 q 387 876 458 919 q 273 744 316 833 q 231 514 231 654 q 264 316 231 408 q 365 169 298 225 q 531 114 431 114 m 369 1124 q 301 1149 330 1124 q 273 1217 273 1174 q 307 1295 273 1264 q 385 1326 342 1326 q 458 1299 434 1326 q 481 1231 481 1272 q 448 1153 481 1183 q 369 1124 415 1124 m 709 1124 q 641 1149 669 1124 q 613 1217 613 1174 q 648 1295 613 1264 q 724 1326 682 1326 q 797 1299 773 1326 q 822 1231 822 1272 q 788 1153 822 1183 q 709 1124 754 1124 m 358 1415 l 358 1529 l 737 1529 l 737 1415 l 358 1415 z "},"Ȭ":{"ha":1061,"x_min":62,"x_max":999,"o":"m 526 -11 q 278 55 383 -14 q 117 245 173 123 q 65 524 62 367 q 134 812 69 697 q 307 985 199 927 q 547 1043 415 1042 q 787 979 685 1044 q 944 795 889 914 q 996 517 999 676 q 931 227 992 344 q 764 51 869 111 q 526 -11 659 -8 m 531 114 q 749 218 668 114 q 831 524 831 322 q 798 720 831 631 q 702 865 766 810 q 542 919 638 919 q 387 876 458 919 q 273 744 316 833 q 231 514 231 654 q 264 316 231 408 q 365 169 298 225 q 531 114 431 114 m 646 1122 q 579 1136 606 1122 q 533 1169 553 1151 q 494 1202 513 1188 q 449 1217 475 1217 q 397 1208 417 1217 q 365 1186 377 1200 q 344 1154 353 1172 l 276 1186 q 310 1256 289 1222 q 364 1313 331 1290 q 444 1335 397 1335 q 510 1321 483 1335 q 556 1288 536 1307 q 597 1256 576 1269 q 643 1242 617 1242 q 690 1250 670 1242 q 723 1272 710 1258 q 744 1304 736 1286 l 815 1268 q 783 1195 807 1228 q 723 1142 758 1163 q 646 1122 688 1122 m 358 1423 l 358 1538 l 737 1538 l 737 1423 l 358 1423 z "},"Ȱ":{"ha":1061,"x_min":62,"x_max":999,"o":"m 526 -11 q 278 55 383 -14 q 117 245 173 123 q 65 524 62 367 q 134 812 69 697 q 307 985 199 927 q 547 1043 415 1042 q 787 979 685 1044 q 944 795 889 914 q 996 517 999 676 q 931 227 992 344 q 764 51 869 111 q 526 -11 659 -8 m 531 114 q 749 218 668 114 q 831 524 831 322 q 798 720 831 631 q 702 865 766 810 q 542 919 638 919 q 387 876 458 919 q 273 744 316 833 q 231 514 231 654 q 264 316 231 408 q 365 169 298 225 q 531 114 431 114 m 540 1153 q 471 1178 500 1153 q 442 1247 442 1203 q 477 1324 442 1292 q 556 1355 513 1355 q 629 1328 605 1355 q 653 1260 653 1301 q 619 1183 653 1213 q 540 1153 585 1153 m 358 1442 l 358 1557 l 737 1557 l 737 1442 l 358 1442 z "},"Ȳ":{"ha":854,"x_min":7,"x_max":848,"o":"m 347 0 l 347 439 l 371 349 l 7 1032 l 181 1032 l 403 593 l 447 488 l 422 488 l 458 593 l 676 1032 l 848 1032 l 488 349 l 512 437 l 512 0 l 347 0 m 244 1167 l 244 1282 l 623 1282 l 623 1167 l 244 1167 z "},"Ḃ":{"ha":918,"x_min":131,"x_max":857,"o":"m 131 0 l 131 1033 l 208 1032 q 277 1034 242 1032 q 353 1039 313 1037 q 445 1042 394 1042 q 640 1011 564 1042 q 753 925 717 981 q 790 796 790 870 q 774 697 790 747 q 723 609 758 647 q 633 557 688 572 q 747 518 697 553 q 827 429 797 483 q 857 310 857 374 q 819 144 857 217 q 691 31 782 72 q 439 -10 600 -10 q 314 -6 378 -10 q 212 0 249 -2 l 131 0 m 292 591 q 334 587 311 588 q 381 586 357 586 q 428 587 406 587 q 469 588 451 588 q 586 633 540 588 q 633 774 633 679 q 577 890 633 852 q 418 927 522 927 q 379 926 406 927 q 327 923 352 925 q 292 917 302 921 l 292 591 m 292 123 q 333 113 304 116 q 396 108 363 109 q 454 107 430 107 q 629 148 566 107 q 692 294 692 189 q 636 430 692 388 q 460 473 579 473 q 417 473 440 473 q 370 473 394 474 q 327 472 347 473 q 292 469 307 472 l 292 123 m 446 1153 q 376 1178 406 1153 q 347 1247 347 1203 q 383 1324 347 1292 q 461 1355 418 1355 q 534 1328 510 1355 q 558 1260 558 1301 q 525 1183 558 1213 q 446 1153 491 1153 z "},"Ḉ":{"ha":889,"x_min":65,"x_max":820,"o":"m 65 512 q 103 739 65 640 q 209 906 142 838 q 364 1008 276 974 q 547 1043 451 1043 q 678 1035 625 1043 q 765 1018 731 1027 q 820 1004 799 1009 l 797 859 q 758 878 785 866 q 683 902 731 891 q 558 913 634 913 q 383 865 458 913 q 268 730 309 817 q 228 522 228 642 q 268 312 228 403 q 383 169 308 221 q 561 117 458 117 q 664 126 613 117 q 755 151 715 136 q 813 181 794 165 l 813 43 q 747 19 783 31 q 664 -2 710 6 q 553 -11 617 -11 q 295 55 405 -11 q 125 238 185 120 q 65 512 65 356 m 335 -296 l 345 -197 q 370 -204 355 -202 q 401 -206 385 -206 q 467 -182 442 -206 q 492 -104 492 -159 q 488 -29 494 -59 q 472 21 481 1 l 534 24 l 565 21 q 587 -20 578 5 q 600 -78 596 -46 q 603 -147 603 -110 q 579 -243 603 -206 q 517 -298 555 -280 q 440 -315 479 -315 q 399 -313 420 -315 q 360 -306 378 -310 q 335 -296 343 -301 m 501 1124 l 432 1189 q 457 1211 433 1190 q 514 1263 481 1233 q 581 1325 547 1294 q 638 1378 615 1356 q 662 1403 660 1400 l 767 1313 q 710 1260 743 1288 q 640 1204 677 1231 q 567 1156 603 1177 q 501 1124 531 1135 z "},"Ḋ":{"ha":1000,"x_min":122,"x_max":942,"o":"m 122 0 l 122 1032 q 150 1032 136 1032 q 176 1032 163 1032 q 203 1032 190 1032 q 275 1035 235 1032 q 359 1040 315 1038 q 449 1043 403 1043 q 821 912 700 1043 q 942 546 942 781 q 880 244 942 369 q 703 52 817 118 q 432 -11 588 -14 q 310 -5 377 -10 q 189 0 242 0 q 167 0 178 0 q 144 0 156 0 q 122 0 133 0 m 286 124 q 366 114 319 117 q 456 111 413 110 q 619 155 548 113 q 731 288 690 197 q 771 522 771 378 q 731 759 771 672 q 613 885 692 847 q 417 924 534 924 q 342 921 376 924 q 286 914 308 918 l 286 124 m 483 1153 q 414 1178 443 1153 q 385 1247 385 1203 q 420 1324 385 1292 q 499 1355 456 1355 q 572 1328 548 1355 q 596 1260 596 1301 q 562 1183 596 1213 q 483 1153 528 1153 z "},"Ḍ":{"ha":1000,"x_min":122,"x_max":942,"o":"m 122 0 l 122 1032 q 150 1032 136 1032 q 176 1032 163 1032 q 203 1032 190 1032 q 275 1035 235 1032 q 359 1040 315 1038 q 449 1043 403 1043 q 821 912 700 1043 q 942 546 942 781 q 880 244 942 369 q 703 52 817 118 q 432 -11 588 -14 q 310 -5 377 -10 q 189 0 242 0 q 167 0 178 0 q 144 0 156 0 q 122 0 133 0 m 286 124 q 366 114 319 117 q 456 111 413 110 q 619 155 548 113 q 731 288 690 197 q 771 522 771 378 q 731 759 771 672 q 613 885 692 847 q 417 924 534 924 q 342 921 376 924 q 286 914 308 918 l 286 124 m 490 -299 q 420 -273 450 -299 q 390 -203 390 -247 q 407 -148 390 -172 q 450 -108 424 -123 q 506 -93 477 -93 q 580 -121 555 -93 q 605 -189 605 -149 q 570 -268 605 -237 q 490 -299 535 -299 z "},"Ḏ":{"ha":1000,"x_min":122,"x_max":942,"o":"m 122 0 l 122 1032 q 150 1032 136 1032 q 176 1032 163 1032 q 203 1032 190 1032 q 275 1035 235 1032 q 359 1040 315 1038 q 449 1043 403 1043 q 821 912 700 1043 q 942 546 942 781 q 880 244 942 369 q 703 52 817 118 q 432 -11 588 -14 q 310 -5 377 -10 q 189 0 242 0 q 167 0 178 0 q 144 0 156 0 q 122 0 133 0 m 286 124 q 366 114 319 117 q 456 111 413 110 q 619 155 548 113 q 731 288 690 197 q 771 522 771 378 q 731 759 771 672 q 613 885 692 847 q 417 924 534 924 q 342 921 376 924 q 286 914 308 918 l 286 124 m 294 -224 l 294 -108 l 700 -108 l 700 -224 l 294 -224 z "},"Ḕ":{"ha":821,"x_min":122,"x_max":771,"o":"m 122 0 l 122 1032 l 722 1032 l 722 907 l 286 907 l 286 593 l 610 593 l 610 469 l 286 469 l 286 128 l 771 128 l 771 0 l 122 0 m 248 1167 l 248 1282 l 627 1282 l 627 1167 l 248 1167 m 526 1420 l 458 1353 q 397 1384 433 1363 q 321 1434 360 1406 q 247 1491 281 1463 q 192 1544 213 1520 l 301 1634 q 325 1607 302 1630 q 380 1554 347 1585 q 445 1494 413 1524 q 501 1443 478 1464 q 526 1420 524 1422 z "},"Ḗ":{"ha":821,"x_min":122,"x_max":771,"o":"m 122 0 l 122 1032 l 722 1032 l 722 907 l 286 907 l 286 593 l 610 593 l 610 469 l 286 469 l 286 128 l 771 128 l 771 0 l 122 0 m 248 1167 l 248 1282 l 627 1282 l 627 1167 l 248 1167 m 396 1353 l 326 1418 q 351 1441 328 1419 q 408 1492 375 1462 q 475 1554 442 1523 q 532 1607 509 1585 q 556 1632 555 1629 l 661 1542 q 605 1489 638 1517 q 534 1433 572 1460 q 461 1385 497 1406 q 396 1353 425 1364 z "},"Ḝ":{"ha":821,"x_min":122,"x_max":771,"o":"m 122 0 l 122 1032 l 722 1032 l 722 907 l 286 907 l 286 593 l 610 593 l 610 469 l 286 469 l 286 128 l 771 128 l 771 0 l 122 0 m 247 -296 l 257 -197 q 282 -204 267 -202 q 313 -206 297 -206 q 379 -182 354 -206 q 404 -104 403 -159 q 399 -29 406 -59 q 383 21 393 1 l 446 24 l 476 21 q 499 -20 490 5 q 511 -78 508 -46 q 515 -147 515 -110 q 491 -243 515 -206 q 429 -298 467 -280 q 351 -315 391 -315 q 311 -313 332 -315 q 272 -306 290 -310 q 247 -296 255 -301 m 438 1107 q 306 1143 360 1107 q 225 1236 251 1180 q 203 1353 198 1292 l 313 1353 q 316 1325 313 1345 q 329 1283 318 1306 q 366 1244 340 1260 q 439 1228 392 1228 q 511 1244 485 1228 q 549 1283 537 1260 q 563 1325 560 1306 q 567 1353 566 1345 l 674 1353 q 650 1236 678 1292 q 567 1143 622 1180 q 438 1107 512 1107 z "},"Ḟ":{"ha":733,"x_min":122,"x_max":721,"o":"m 122 0 l 122 1032 l 721 1032 l 721 907 l 286 907 l 286 581 l 611 581 l 611 456 l 286 456 l 286 0 l 122 0 m 443 1153 q 374 1178 403 1153 q 344 1247 344 1203 q 380 1324 344 1292 q 458 1355 415 1355 q 532 1328 508 1355 q 556 1260 556 1301 q 522 1183 556 1213 q 443 1153 488 1153 z "},"Ḡ":{"ha":979,"x_min":67,"x_max":900,"o":"m 67 511 q 104 745 67 645 q 208 911 142 844 q 363 1010 274 977 q 552 1043 451 1043 q 677 1036 630 1043 q 760 1020 724 1030 q 842 1003 797 1011 l 835 858 q 722 899 785 883 q 544 915 658 915 q 384 869 454 915 q 275 738 315 824 q 235 529 235 651 q 269 318 235 413 q 370 168 302 224 q 544 113 439 113 q 657 122 601 113 q 743 150 714 131 l 743 424 l 784 395 l 561 405 l 561 524 l 900 524 l 900 63 q 849 50 877 62 q 781 25 820 39 q 684 0 741 10 q 549 -11 628 -11 q 288 57 395 -11 q 123 242 180 124 q 67 511 67 360 m 362 1167 l 362 1282 l 741 1282 l 741 1167 l 362 1167 z "},"Ḥ":{"ha":1042,"x_min":122,"x_max":919,"o":"m 122 0 l 122 1032 l 286 1032 l 286 583 l 757 583 l 757 1032 l 919 1032 l 919 0 l 757 0 l 757 458 l 286 458 l 286 0 l 122 0 m 514 -299 q 444 -273 474 -299 q 414 -203 414 -247 q 431 -148 414 -172 q 474 -108 447 -123 q 529 -93 501 -93 q 603 -121 578 -93 q 628 -189 628 -149 q 594 -268 628 -237 q 514 -299 559 -299 z "},"Ḫ":{"ha":1042,"x_min":122,"x_max":919,"o":"m 122 0 l 122 1032 l 286 1032 l 286 583 l 757 583 l 757 1032 l 919 1032 l 919 0 l 757 0 l 757 458 l 286 458 l 286 0 l 122 0 m 521 -322 q 389 -285 444 -322 q 308 -190 335 -249 q 286 -65 281 -131 l 396 -65 q 399 -94 397 -73 q 413 -140 401 -116 q 450 -182 424 -165 q 522 -200 476 -200 q 594 -182 569 -200 q 632 -140 620 -165 q 647 -94 644 -116 q 650 -65 649 -73 l 757 -65 q 733 -190 762 -131 q 650 -285 705 -249 q 521 -322 595 -322 z "},"Ḯ":{"ha":444,"x_min":-51,"x_max":497,"o":"m 140 0 l 140 1032 l 303 1032 l 303 0 l 140 0 m 45 1124 q -23 1149 6 1124 q -51 1217 -51 1174 q -17 1295 -51 1264 q 60 1326 17 1326 q 133 1299 110 1326 q 157 1231 157 1272 q 124 1153 157 1183 q 45 1124 90 1124 m 385 1124 q 317 1149 344 1124 q 289 1217 289 1174 q 323 1295 289 1264 q 399 1326 358 1326 q 473 1299 449 1326 q 497 1231 497 1272 q 464 1153 497 1183 q 385 1124 430 1124 m 181 1372 l 112 1436 q 137 1459 113 1438 q 194 1510 160 1480 q 261 1572 227 1541 q 317 1625 294 1603 q 342 1650 340 1647 l 447 1560 q 390 1507 423 1535 q 320 1451 357 1478 q 247 1403 283 1424 q 181 1372 210 1382 z "},"Ḷ":{"ha":729,"x_min":122,"x_max":690,"o":"m 122 0 l 122 1032 l 285 1032 l 285 129 l 690 129 l 690 0 l 122 0 m 354 -299 q 284 -273 314 -299 q 254 -203 254 -247 q 271 -148 254 -172 q 314 -108 288 -123 q 369 -93 341 -93 q 444 -121 419 -93 q 469 -189 469 -149 q 434 -268 469 -237 q 354 -299 399 -299 z "},"Ḻ":{"ha":729,"x_min":122,"x_max":690,"o":"m 122 0 l 122 1032 l 285 1032 l 285 129 l 690 129 l 690 0 l 122 0 m 158 -224 l 158 -108 l 564 -108 l 564 -224 l 158 -224 z "},"Ṁ":{"ha":1300,"x_min":83,"x_max":1217,"o":"m 83 0 l 189 1032 l 418 1032 l 600 451 l 653 231 l 701 451 l 874 1032 l 1094 1032 l 1217 0 l 1055 0 l 994 626 l 974 910 l 903 626 l 700 -10 l 602 -10 l 388 626 l 313 910 l 293 626 l 239 0 l 83 0 m 646 1112 q 576 1136 606 1112 q 547 1206 547 1161 q 583 1282 547 1251 q 661 1313 618 1313 q 734 1286 710 1313 q 758 1219 758 1260 q 725 1142 758 1172 q 646 1112 691 1112 z "},"Ṃ":{"ha":1300,"x_min":83,"x_max":1217,"o":"m 83 0 l 189 1032 l 418 1032 l 600 451 l 653 231 l 701 451 l 874 1032 l 1094 1032 l 1217 0 l 1055 0 l 994 626 l 974 910 l 903 626 l 700 -10 l 602 -10 l 388 626 l 313 910 l 293 626 l 239 0 l 83 0 m 644 -299 q 574 -273 603 -299 q 544 -203 544 -247 q 560 -148 544 -172 q 604 -108 577 -123 q 659 -93 631 -93 q 733 -121 708 -93 q 758 -189 758 -149 q 724 -268 758 -237 q 644 -299 689 -299 z "},"Ṅ":{"ha":1047,"x_min":122,"x_max":925,"o":"m 122 0 l 122 1032 l 271 1032 l 703 364 l 840 107 l 792 107 l 774 396 l 774 1032 l 925 1032 l 925 0 l 769 0 l 354 643 l 194 933 l 254 933 l 271 621 l 271 0 l 122 0 m 525 1153 q 456 1178 485 1153 q 426 1247 426 1203 q 462 1324 426 1292 q 540 1355 497 1355 q 614 1328 590 1355 q 638 1260 638 1301 q 604 1183 638 1213 q 525 1153 570 1153 z "},"Ṇ":{"ha":1047,"x_min":122,"x_max":925,"o":"m 122 0 l 122 1032 l 271 1032 l 703 364 l 840 107 l 792 107 l 774 396 l 774 1032 l 925 1032 l 925 0 l 769 0 l 354 643 l 194 933 l 254 933 l 271 621 l 271 0 l 122 0 m 517 -299 q 447 -273 476 -299 q 417 -203 417 -247 q 433 -148 417 -172 q 477 -108 450 -123 q 532 -93 503 -93 q 606 -121 581 -93 q 631 -189 631 -149 q 597 -268 631 -237 q 517 -299 562 -299 z "},"Ṉ":{"ha":1047,"x_min":122,"x_max":925,"o":"m 122 0 l 122 1032 l 271 1032 l 703 364 l 840 107 l 792 107 l 774 396 l 774 1032 l 925 1032 l 925 0 l 769 0 l 354 643 l 194 933 l 254 933 l 271 621 l 271 0 l 122 0 m 321 -224 l 321 -108 l 726 -108 l 726 -224 l 321 -224 z "},"Ṍ":{"ha":1061,"x_min":62,"x_max":999,"o":"m 526 -11 q 278 55 383 -14 q 117 245 173 123 q 65 524 62 367 q 134 812 69 697 q 307 985 199 927 q 547 1043 415 1042 q 787 979 685 1044 q 944 795 889 914 q 996 517 999 676 q 931 227 992 344 q 764 51 869 111 q 526 -11 659 -8 m 531 114 q 749 218 668 114 q 831 524 831 322 q 798 720 831 631 q 702 865 766 810 q 542 919 638 919 q 387 876 458 919 q 273 744 316 833 q 231 514 231 654 q 264 316 231 408 q 365 169 298 225 q 531 114 431 114 m 646 1122 q 579 1136 606 1122 q 533 1169 553 1151 q 494 1202 513 1188 q 449 1217 475 1217 q 397 1208 417 1217 q 365 1186 377 1200 q 344 1154 353 1172 l 276 1186 q 310 1256 289 1222 q 364 1313 331 1290 q 444 1335 397 1335 q 510 1321 483 1335 q 556 1288 536 1307 q 597 1256 576 1269 q 643 1242 617 1242 q 690 1250 670 1242 q 723 1272 710 1258 q 744 1304 736 1286 l 815 1268 q 783 1195 807 1228 q 723 1142 758 1163 q 646 1122 688 1122 m 506 1438 l 436 1503 q 461 1525 438 1504 q 518 1577 485 1547 q 585 1639 551 1608 q 642 1692 619 1669 q 666 1717 665 1714 l 771 1626 q 714 1574 747 1602 q 644 1518 681 1545 q 571 1470 607 1491 q 506 1438 535 1449 z "},"Ṏ":{"ha":1061,"x_min":62,"x_max":999,"o":"m 526 -11 q 278 55 383 -14 q 117 245 173 123 q 65 524 62 367 q 134 812 69 697 q 307 985 199 927 q 547 1043 415 1042 q 787 979 685 1044 q 944 795 889 914 q 996 517 999 676 q 931 227 992 344 q 764 51 869 111 q 526 -11 659 -8 m 531 114 q 749 218 668 114 q 831 524 831 322 q 798 720 831 631 q 702 865 766 810 q 542 919 638 919 q 387 876 458 919 q 273 744 316 833 q 231 514 231 654 q 264 316 231 408 q 365 169 298 225 q 531 114 431 114 m 646 1122 q 579 1136 606 1122 q 533 1169 553 1151 q 494 1202 513 1188 q 449 1217 475 1217 q 397 1208 417 1217 q 365 1186 377 1200 q 344 1154 353 1172 l 276 1186 q 310 1256 289 1222 q 364 1313 331 1290 q 444 1335 397 1335 q 510 1321 483 1335 q 556 1288 536 1307 q 597 1256 576 1269 q 643 1242 617 1242 q 690 1250 670 1242 q 723 1272 710 1258 q 744 1304 736 1286 l 815 1268 q 783 1195 807 1228 q 723 1142 758 1163 q 646 1122 688 1122 m 369 1438 q 301 1463 330 1438 q 273 1531 273 1488 q 307 1609 273 1578 q 385 1640 342 1640 q 458 1613 434 1640 q 481 1545 481 1586 q 448 1467 481 1497 q 369 1438 415 1438 m 709 1438 q 641 1463 669 1438 q 613 1531 613 1488 q 648 1609 613 1578 q 724 1640 682 1640 q 797 1613 773 1640 q 822 1545 822 1586 q 788 1467 822 1497 q 709 1438 754 1438 z "},"Ṑ":{"ha":1061,"x_min":62,"x_max":999,"o":"m 526 -11 q 278 55 383 -14 q 117 245 173 123 q 65 524 62 367 q 134 812 69 697 q 307 985 199 927 q 547 1043 415 1042 q 787 979 685 1044 q 944 795 889 914 q 996 517 999 676 q 931 227 992 344 q 764 51 869 111 q 526 -11 659 -8 m 531 114 q 749 218 668 114 q 831 524 831 322 q 798 720 831 631 q 702 865 766 810 q 542 919 638 919 q 387 876 458 919 q 273 744 316 833 q 231 514 231 654 q 264 316 231 408 q 365 169 298 225 q 531 114 431 114 m 358 1167 l 358 1282 l 737 1282 l 737 1167 l 358 1167 m 636 1420 l 567 1353 q 507 1384 543 1363 q 431 1434 470 1406 q 357 1491 391 1463 q 302 1544 322 1520 l 410 1634 q 434 1607 412 1630 q 490 1554 457 1585 q 555 1494 522 1524 q 611 1443 588 1464 q 636 1420 634 1422 z "},"Ṓ":{"ha":1061,"x_min":62,"x_max":999,"o":"m 526 -11 q 278 55 383 -14 q 117 245 173 123 q 65 524 62 367 q 134 812 69 697 q 307 985 199 927 q 547 1043 415 1042 q 787 979 685 1044 q 944 795 889 914 q 996 517 999 676 q 931 227 992 344 q 764 51 869 111 q 526 -11 659 -8 m 531 114 q 749 218 668 114 q 831 524 831 322 q 798 720 831 631 q 702 865 766 810 q 542 919 638 919 q 387 876 458 919 q 273 744 316 833 q 231 514 231 654 q 264 316 231 408 q 365 169 298 225 q 531 114 431 114 m 358 1167 l 358 1282 l 737 1282 l 737 1167 l 358 1167 m 506 1353 l 436 1418 q 461 1441 438 1419 q 518 1492 485 1462 q 585 1554 551 1523 q 642 1607 619 1585 q 666 1632 665 1629 l 771 1542 q 714 1489 747 1517 q 644 1433 681 1460 q 571 1385 607 1406 q 506 1353 535 1364 z "},"Ṗ":{"ha":864,"x_min":122,"x_max":814,"o":"m 122 0 l 122 1032 l 193 1032 q 319 1038 257 1032 q 451 1043 382 1043 q 645 1008 564 1043 q 770 898 726 973 q 814 704 814 824 q 712 441 814 535 q 417 347 610 347 q 336 348 368 347 q 286 349 305 349 l 286 0 l 122 0 m 286 474 q 348 468 317 469 q 407 467 379 467 q 528 485 472 467 q 618 555 584 503 q 653 704 653 606 q 589 877 653 823 q 406 926 526 931 q 344 923 376 926 q 286 914 313 920 l 286 474 m 461 1153 q 392 1178 421 1153 q 363 1247 363 1203 q 398 1324 363 1292 q 476 1355 433 1355 q 550 1328 526 1355 q 574 1260 574 1301 q 540 1183 574 1213 q 461 1153 506 1153 z "},"Ṛ":{"ha":926,"x_min":122,"x_max":886,"o":"m 286 0 l 122 0 l 122 1032 q 147 1032 135 1032 q 170 1032 158 1032 q 194 1032 182 1032 q 311 1038 244 1032 q 460 1043 378 1043 q 602 1027 538 1043 q 714 975 667 1010 q 788 884 762 940 q 814 749 814 828 q 783 592 814 656 q 693 491 751 528 q 556 442 635 454 q 497 435 527 438 q 418 432 467 433 q 286 431 369 431 l 286 0 m 286 547 q 331 544 301 545 q 392 543 361 543 q 442 543 424 543 q 596 592 542 543 q 650 742 650 641 q 630 842 650 801 q 563 903 610 883 q 436 924 516 924 q 357 920 396 924 q 286 911 317 917 l 286 547 m 703 0 q 688 28 694 14 q 665 76 681 43 q 623 182 644 123 q 577 296 602 240 q 521 390 553 351 q 446 435 489 428 l 508 483 l 606 475 q 679 413 647 458 q 739 308 711 367 q 791 188 766 249 q 844 76 817 126 q 865 38 855 57 q 886 0 876 19 l 703 0 m 453 -299 q 383 -273 413 -299 q 353 -203 353 -247 q 369 -148 353 -172 q 413 -108 386 -123 q 468 -93 440 -93 q 542 -121 517 -93 q 567 -189 567 -149 q 533 -268 567 -237 q 453 -299 498 -299 z "},"Ṟ":{"ha":926,"x_min":122,"x_max":886,"o":"m 286 0 l 122 0 l 122 1032 q 147 1032 135 1032 q 170 1032 158 1032 q 194 1032 182 1032 q 311 1038 244 1032 q 460 1043 378 1043 q 602 1027 538 1043 q 714 975 667 1010 q 788 884 762 940 q 814 749 814 828 q 783 592 814 656 q 693 491 751 528 q 556 442 635 454 q 497 435 527 438 q 418 432 467 433 q 286 431 369 431 l 286 0 m 286 547 q 331 544 301 545 q 392 543 361 543 q 442 543 424 543 q 596 592 542 543 q 650 742 650 641 q 630 842 650 801 q 563 903 610 883 q 436 924 516 924 q 357 920 396 924 q 286 911 317 917 l 286 547 m 703 0 q 688 28 694 14 q 665 76 681 43 q 623 182 644 123 q 577 296 602 240 q 521 390 553 351 q 446 435 489 428 l 508 483 l 606 475 q 679 413 647 458 q 739 308 711 367 q 791 188 766 249 q 844 76 817 126 q 865 38 855 57 q 886 0 876 19 l 703 0 m 257 -224 l 257 -108 l 663 -108 l 663 -224 l 257 -224 z "},"Ṡ":{"ha":785,"x_min":86,"x_max":729,"o":"m 383 -11 q 255 -1 315 -11 q 152 23 195 9 q 90 49 109 37 l 124 181 q 190 151 151 166 q 277 127 230 137 q 373 118 324 118 q 518 150 468 118 q 568 254 568 182 q 543 336 568 303 q 468 398 518 369 q 344 463 419 427 q 222 538 281 494 q 124 640 163 581 q 86 776 86 699 q 116 902 86 851 q 195 984 145 953 q 307 1029 245 1015 q 433 1043 368 1043 q 589 1025 527 1043 q 678 988 651 1006 l 646 860 q 563 900 610 882 q 433 917 515 917 q 339 904 382 917 q 269 864 296 891 q 243 794 243 837 q 263 714 243 747 q 327 654 283 682 q 444 588 372 626 q 547 531 496 561 q 639 464 597 501 q 705 380 680 427 q 729 271 729 332 q 685 114 729 176 q 563 20 641 51 q 383 -11 485 -11 m 407 1153 q 338 1178 367 1153 q 308 1247 308 1203 q 344 1324 308 1292 q 422 1355 379 1355 q 495 1328 472 1355 q 519 1260 519 1301 q 486 1183 519 1213 q 407 1153 452 1153 z "},"Ṣ":{"ha":785,"x_min":86,"x_max":729,"o":"m 383 -11 q 255 -1 315 -11 q 152 23 195 9 q 90 49 109 37 l 124 181 q 190 151 151 166 q 277 127 230 137 q 373 118 324 118 q 518 150 468 118 q 568 254 568 182 q 543 336 568 303 q 468 398 518 369 q 344 463 419 427 q 222 538 281 494 q 124 640 163 581 q 86 776 86 699 q 116 902 86 851 q 195 984 145 953 q 307 1029 245 1015 q 433 1043 368 1043 q 589 1025 527 1043 q 678 988 651 1006 l 646 860 q 563 900 610 882 q 433 917 515 917 q 339 904 382 917 q 269 864 296 891 q 243 794 243 837 q 263 714 243 747 q 327 654 283 682 q 444 588 372 626 q 547 531 496 561 q 639 464 597 501 q 705 380 680 427 q 729 271 729 332 q 685 114 729 176 q 563 20 641 51 q 383 -11 485 -11 m 382 -299 q 312 -273 342 -299 q 282 -203 282 -247 q 299 -148 282 -172 q 342 -108 315 -123 q 397 -93 369 -93 q 472 -121 447 -93 q 497 -189 497 -149 q 462 -268 497 -237 q 382 -299 427 -299 z "},"Ṥ":{"ha":785,"x_min":86,"x_max":729,"o":"m 383 -11 q 255 -1 315 -11 q 152 23 195 9 q 90 49 109 37 l 124 181 q 190 151 151 166 q 277 127 230 137 q 373 118 324 118 q 518 150 468 118 q 568 254 568 182 q 543 336 568 303 q 468 398 518 369 q 344 463 419 427 q 222 538 281 494 q 124 640 163 581 q 86 776 86 699 q 116 902 86 851 q 195 984 145 953 q 307 1029 245 1015 q 433 1043 368 1043 q 589 1025 527 1043 q 678 988 651 1006 l 646 860 q 563 900 610 882 q 433 917 515 917 q 339 904 382 917 q 269 864 296 891 q 243 794 243 837 q 263 714 243 747 q 327 654 283 682 q 444 588 372 626 q 547 531 496 561 q 639 464 597 501 q 705 380 680 427 q 729 271 729 332 q 685 114 729 176 q 563 20 641 51 q 383 -11 485 -11 m 372 1124 l 303 1189 q 328 1211 304 1190 q 385 1263 351 1233 q 452 1325 418 1294 q 508 1378 485 1356 q 533 1403 531 1400 l 638 1313 q 581 1260 614 1288 q 511 1204 548 1231 q 438 1156 474 1177 q 372 1124 401 1135 m 407 1423 q 338 1448 367 1423 q 308 1517 308 1472 q 344 1593 308 1562 q 422 1624 379 1624 q 495 1598 472 1624 q 519 1530 519 1571 q 486 1453 519 1483 q 407 1423 452 1423 z "},"Ṧ":{"ha":785,"x_min":86,"x_max":729,"o":"m 383 -11 q 255 -1 315 -11 q 152 23 195 9 q 90 49 109 37 l 124 181 q 190 151 151 166 q 277 127 230 137 q 373 118 324 118 q 518 150 468 118 q 568 254 568 182 q 543 336 568 303 q 468 398 518 369 q 344 463 419 427 q 222 538 281 494 q 124 640 163 581 q 86 776 86 699 q 116 902 86 851 q 195 984 145 953 q 307 1029 245 1015 q 433 1043 368 1043 q 589 1025 527 1043 q 678 988 651 1006 l 646 860 q 563 900 610 882 q 433 917 515 917 q 339 904 382 917 q 269 864 296 891 q 243 794 243 837 q 263 714 243 747 q 327 654 283 682 q 444 588 372 626 q 547 531 496 561 q 639 464 597 501 q 705 380 680 427 q 729 271 729 332 q 685 114 729 176 q 563 20 641 51 q 383 -11 485 -11 m 347 1131 l 176 1310 l 267 1356 l 414 1237 l 564 1356 l 650 1313 l 483 1131 l 347 1131 m 407 1406 q 338 1431 367 1406 q 308 1500 308 1456 q 344 1576 308 1545 q 422 1608 379 1608 q 495 1581 472 1608 q 519 1513 519 1554 q 486 1436 519 1466 q 407 1406 452 1406 z "},"Ṩ":{"ha":785,"x_min":86,"x_max":729,"o":"m 383 -11 q 255 -1 315 -11 q 152 23 195 9 q 90 49 109 37 l 124 181 q 190 151 151 166 q 277 127 230 137 q 373 118 324 118 q 518 150 468 118 q 568 254 568 182 q 543 336 568 303 q 468 398 518 369 q 344 463 419 427 q 222 538 281 494 q 124 640 163 581 q 86 776 86 699 q 116 902 86 851 q 195 984 145 953 q 307 1029 245 1015 q 433 1043 368 1043 q 589 1025 527 1043 q 678 988 651 1006 l 646 860 q 563 900 610 882 q 433 917 515 917 q 339 904 382 917 q 269 864 296 891 q 243 794 243 837 q 263 714 243 747 q 327 654 283 682 q 444 588 372 626 q 547 531 496 561 q 639 464 597 501 q 705 380 680 427 q 729 271 729 332 q 685 114 729 176 q 563 20 641 51 q 383 -11 485 -11 m 382 -299 q 312 -273 342 -299 q 282 -203 282 -247 q 299 -148 282 -172 q 342 -108 315 -123 q 397 -93 369 -93 q 472 -121 447 -93 q 497 -189 497 -149 q 462 -268 497 -237 q 382 -299 427 -299 m 407 1153 q 338 1178 367 1153 q 308 1247 308 1203 q 344 1324 308 1292 q 422 1355 379 1355 q 495 1328 472 1355 q 519 1260 519 1301 q 486 1183 519 1213 q 407 1153 452 1153 z "},"Ṫ":{"ha":877,"x_min":39,"x_max":838,"o":"m 357 0 l 357 907 l 39 907 l 39 1032 l 838 1032 l 838 907 l 521 907 l 521 0 l 357 0 m 426 1153 q 357 1178 386 1153 q 328 1247 328 1203 q 363 1324 328 1292 q 442 1355 399 1355 q 515 1328 491 1355 q 539 1260 539 1301 q 505 1183 539 1213 q 426 1153 472 1153 z "},"Ṭ":{"ha":877,"x_min":39,"x_max":838,"o":"m 357 0 l 357 907 l 39 907 l 39 1032 l 838 1032 l 838 907 l 521 907 l 521 0 l 357 0 m 431 -299 q 361 -273 391 -299 q 331 -203 331 -247 q 348 -148 331 -172 q 391 -108 365 -123 q 447 -93 418 -93 q 521 -121 496 -93 q 546 -189 546 -149 q 511 -268 546 -237 q 431 -299 476 -299 z "},"Ṯ":{"ha":877,"x_min":39,"x_max":838,"o":"m 357 0 l 357 907 l 39 907 l 39 1032 l 838 1032 l 838 907 l 521 907 l 521 0 l 357 0 m 235 -224 l 235 -108 l 641 -108 l 641 -224 l 235 -224 z "},"Ṹ":{"ha":999,"x_min":107,"x_max":893,"o":"m 505 -11 q 273 42 361 -11 q 146 194 185 94 q 107 432 107 293 l 108 1032 l 270 1032 l 269 463 q 297 250 269 325 q 379 146 325 175 q 510 117 433 117 q 629 146 579 117 q 705 251 678 176 q 732 463 732 326 l 732 1032 l 893 1032 l 893 429 q 797 103 893 217 q 505 -11 701 -11 m 607 1122 q 540 1136 567 1122 q 494 1169 514 1151 q 455 1202 474 1188 q 410 1217 436 1217 q 358 1208 378 1217 q 326 1186 338 1200 q 306 1154 314 1172 l 238 1186 q 271 1256 250 1222 q 325 1313 292 1290 q 406 1335 358 1335 q 471 1321 444 1335 q 517 1288 497 1307 q 558 1256 538 1269 q 604 1242 578 1242 q 651 1250 631 1242 q 684 1272 671 1258 q 706 1304 697 1286 l 776 1268 q 744 1195 768 1228 q 684 1142 719 1163 q 607 1122 649 1122 m 467 1438 l 397 1503 q 422 1525 399 1504 q 479 1577 446 1547 q 546 1639 513 1608 q 603 1692 580 1669 q 627 1717 626 1714 l 732 1626 q 675 1574 708 1602 q 605 1518 642 1545 q 532 1470 568 1491 q 467 1438 496 1449 z "},"Ṻ":{"ha":999,"x_min":107,"x_max":893,"o":"m 505 -11 q 273 42 361 -11 q 146 194 185 94 q 107 432 107 293 l 108 1032 l 270 1032 l 269 463 q 297 250 269 325 q 379 146 325 175 q 510 117 433 117 q 629 146 579 117 q 705 251 678 176 q 732 463 732 326 l 732 1032 l 893 1032 l 893 429 q 797 103 893 217 q 505 -11 701 -11 m 319 1167 l 319 1282 l 698 1282 l 698 1167 l 319 1167 m 331 1353 q 263 1378 291 1353 q 234 1447 234 1403 q 268 1524 234 1493 q 346 1556 303 1556 q 419 1528 395 1556 q 442 1460 442 1501 q 409 1383 442 1413 q 331 1353 376 1353 m 670 1353 q 602 1378 630 1353 q 574 1447 574 1403 q 609 1524 574 1493 q 685 1556 643 1556 q 758 1528 734 1556 q 783 1460 783 1501 q 749 1383 783 1413 q 670 1353 715 1353 z "},"Ẁ":{"ha":1308,"x_min":13,"x_max":1294,"o":"m 295 -11 l 13 1032 l 179 1032 l 337 374 l 383 108 l 359 108 l 407 374 l 593 1032 l 717 1032 l 908 374 l 967 108 l 940 108 l 984 373 l 1131 1032 l 1294 1032 l 1028 -11 l 866 -11 l 679 647 l 628 930 l 678 928 l 629 647 l 440 -11 l 295 -11 m 741 1191 l 672 1124 q 611 1155 648 1133 q 535 1205 575 1176 q 461 1262 496 1233 q 407 1315 427 1291 l 515 1405 q 539 1378 517 1401 q 594 1325 562 1356 q 660 1265 627 1294 q 716 1214 693 1235 q 741 1191 739 1193 z "},"Ẃ":{"ha":1308,"x_min":13,"x_max":1294,"o":"m 295 -11 l 13 1032 l 179 1032 l 337 374 l 383 108 l 359 108 l 407 374 l 593 1032 l 717 1032 l 908 374 l 967 108 l 940 108 l 984 373 l 1131 1032 l 1294 1032 l 1028 -11 l 866 -11 l 679 647 l 628 930 l 678 928 l 629 647 l 440 -11 l 295 -11 m 610 1124 l 541 1189 q 566 1211 542 1190 q 623 1263 590 1233 q 690 1325 656 1294 q 747 1378 724 1356 q 771 1403 769 1400 l 876 1313 q 819 1260 852 1288 q 749 1204 786 1231 q 676 1156 712 1177 q 610 1124 640 1135 z "},"Ẅ":{"ha":1308,"x_min":13,"x_max":1294,"o":"m 295 -11 l 13 1032 l 179 1032 l 337 374 l 383 108 l 359 108 l 407 374 l 593 1032 l 717 1032 l 908 374 l 967 108 l 940 108 l 984 373 l 1131 1032 l 1294 1032 l 1028 -11 l 866 -11 l 679 647 l 628 930 l 678 928 l 629 647 l 440 -11 l 295 -11 m 474 1124 q 406 1149 435 1124 q 378 1217 378 1174 q 412 1295 378 1264 q 490 1326 447 1326 q 563 1299 539 1326 q 586 1231 586 1272 q 553 1153 586 1183 q 474 1124 519 1124 m 814 1124 q 746 1149 774 1124 q 718 1217 718 1174 q 752 1295 718 1264 q 828 1326 787 1326 q 902 1299 878 1326 q 926 1231 926 1272 q 893 1153 926 1183 q 814 1124 859 1124 z "},"Ẏ":{"ha":854,"x_min":7,"x_max":848,"o":"m 347 0 l 347 439 l 371 349 l 7 1032 l 181 1032 l 403 593 l 447 488 l 422 488 l 458 593 l 676 1032 l 848 1032 l 488 349 l 512 437 l 512 0 l 347 0 m 426 1153 q 357 1178 386 1153 q 328 1247 328 1203 q 363 1324 328 1292 q 442 1355 399 1355 q 515 1328 491 1355 q 539 1260 539 1301 q 505 1183 539 1213 q 426 1153 472 1153 z "},"Ẓ":{"ha":853,"x_min":42,"x_max":814,"o":"m 72 0 l 42 57 l 558 856 l 597 904 l 99 904 l 99 1032 l 782 1032 l 814 978 l 308 186 l 258 126 l 775 126 l 775 0 l 72 0 m 407 -299 q 337 -273 367 -299 q 307 -203 307 -247 q 324 -148 307 -172 q 367 -108 340 -123 q 422 -93 394 -93 q 497 -121 472 -93 q 522 -189 522 -149 q 487 -268 522 -237 q 407 -299 452 -299 z "},"ẞ":{"ha":1017,"x_min":71,"x_max":969,"o":"m 71 0 l 71 511 q 123 795 71 676 q 281 979 176 915 q 546 1043 387 1043 q 698 1027 638 1043 q 800 996 758 1012 q 876 980 842 980 l 875 894 l 699 619 q 799 601 751 619 q 885 545 847 583 q 946 451 924 508 q 969 317 969 394 q 931 153 969 228 q 819 31 893 77 q 638 -15 745 -15 q 471 2 529 -15 q 374 42 413 19 l 430 167 q 507 127 454 144 q 614 109 560 109 q 706 131 662 109 q 777 198 749 153 q 806 313 806 244 q 778 439 806 392 q 686 506 750 485 q 513 527 622 527 l 520 593 l 694 884 q 631 913 669 903 q 550 924 593 924 q 392 887 463 924 q 281 777 322 851 q 240 589 240 703 l 240 0 l 71 0 z "},"Ạ":{"ha":956,"x_min":10,"x_max":947,"o":"m 182 0 l 10 0 l 401 1043 l 560 1043 l 947 0 l 769 0 l 512 776 l 483 875 l 452 776 l 182 0 m 204 253 l 232 374 l 706 374 l 735 253 l 204 253 m 472 -299 q 401 -273 431 -299 q 372 -203 372 -247 q 388 -148 372 -172 q 432 -108 405 -123 q 487 -93 458 -93 q 561 -121 536 -93 q 586 -189 586 -149 q 551 -268 586 -237 q 472 -299 517 -299 z "},"Ả":{"ha":956,"x_min":10,"x_max":947,"o":"m 182 0 l 10 0 l 401 1043 l 560 1043 l 947 0 l 769 0 l 512 776 l 483 875 l 452 776 l 182 0 m 204 253 l 232 374 l 706 374 l 735 253 l 204 253 m 437 1125 q 425 1155 431 1140 q 420 1189 420 1169 q 432 1231 420 1215 q 460 1258 444 1247 q 489 1284 476 1270 q 501 1319 501 1298 q 481 1361 501 1348 q 424 1375 461 1375 q 375 1368 401 1375 q 337 1353 349 1360 l 334 1443 q 393 1465 357 1458 q 456 1472 428 1472 q 575 1437 529 1472 q 620 1342 620 1401 q 608 1281 620 1304 q 578 1242 597 1258 q 541 1210 560 1226 q 523 1177 531 1201 q 523 1125 515 1152 l 437 1125 z "},"Ấ":{"ha":956,"x_min":10,"x_max":973,"o":"m 182 0 l 10 0 l 401 1043 l 560 1043 l 947 0 l 769 0 l 512 776 l 483 875 l 452 776 l 182 0 m 204 253 l 232 374 l 706 374 l 735 253 l 204 253 m 327 1099 l 231 1141 l 409 1347 l 545 1347 l 724 1142 l 624 1099 l 477 1235 l 327 1099 m 708 1236 l 638 1303 q 664 1326 640 1305 q 720 1377 687 1347 q 785 1438 753 1407 q 841 1490 818 1468 q 865 1517 864 1513 l 973 1426 q 917 1373 950 1401 q 846 1316 883 1344 q 773 1268 808 1289 q 708 1236 737 1247 z "},"Ầ":{"ha":956,"x_min":10,"x_max":947,"o":"m 182 0 l 10 0 l 401 1043 l 560 1043 l 947 0 l 769 0 l 512 776 l 483 875 l 452 776 l 182 0 m 204 253 l 232 374 l 706 374 l 735 253 l 204 253 m 327 1099 l 231 1141 l 410 1347 l 545 1347 l 725 1142 l 625 1099 l 477 1235 l 327 1099 m 842 1338 l 773 1272 q 712 1302 749 1280 q 636 1352 676 1324 q 562 1409 597 1380 q 508 1461 528 1438 l 616 1551 q 640 1525 617 1547 q 695 1472 663 1503 q 761 1411 728 1442 q 817 1360 794 1381 q 842 1338 840 1340 z "},"Ẩ":{"ha":956,"x_min":10,"x_max":947,"o":"m 182 0 l 10 0 l 401 1043 l 560 1043 l 947 0 l 769 0 l 512 776 l 483 875 l 452 776 l 182 0 m 204 253 l 232 374 l 706 374 l 735 253 l 204 253 m 327 1099 l 231 1141 l 409 1347 l 545 1347 l 724 1142 l 624 1099 l 477 1235 l 327 1099 m 672 1297 q 660 1326 665 1311 q 655 1360 655 1340 q 666 1402 655 1386 q 692 1430 678 1418 q 718 1456 707 1442 q 730 1491 730 1469 q 710 1533 730 1519 q 653 1546 690 1546 q 604 1539 630 1546 q 565 1524 578 1531 l 563 1615 q 622 1636 585 1629 q 685 1643 658 1643 q 803 1608 758 1643 q 849 1513 849 1572 q 835 1453 849 1476 q 801 1414 821 1430 q 762 1381 781 1398 q 743 1348 751 1372 q 743 1297 735 1323 l 672 1297 z "},"Ẫ":{"ha":956,"x_min":10,"x_max":947,"o":"m 182 0 l 10 0 l 401 1043 l 560 1043 l 947 0 l 769 0 l 512 776 l 483 875 l 452 776 l 182 0 m 204 253 l 232 374 l 706 374 l 735 253 l 204 253 m 327 1099 l 231 1141 l 409 1347 l 545 1347 l 725 1142 l 625 1099 l 477 1235 l 327 1099 m 576 1411 q 516 1424 540 1411 q 474 1455 492 1438 q 440 1486 456 1473 q 401 1501 423 1500 q 367 1492 380 1501 q 346 1467 354 1482 q 330 1435 338 1452 l 273 1467 q 300 1533 281 1503 q 347 1581 319 1563 q 410 1599 374 1599 q 470 1585 447 1599 q 512 1555 494 1572 q 546 1524 529 1538 q 585 1510 563 1511 q 619 1519 607 1510 q 640 1544 632 1528 q 655 1576 647 1559 l 712 1545 q 685 1477 703 1508 q 639 1429 666 1447 q 576 1411 612 1411 z "},"Ậ":{"ha":956,"x_min":10,"x_max":947,"o":"m 182 0 l 10 0 l 401 1043 l 560 1043 l 947 0 l 769 0 l 512 776 l 483 875 l 452 776 l 182 0 m 204 253 l 232 374 l 706 374 l 735 253 l 204 253 m 472 -299 q 401 -273 431 -299 q 372 -203 372 -247 q 388 -148 372 -172 q 432 -108 405 -123 q 487 -93 458 -93 q 561 -121 536 -93 q 586 -189 586 -149 q 551 -268 586 -237 q 472 -299 517 -299 m 326 1121 l 230 1163 l 408 1369 l 545 1369 l 724 1165 l 624 1121 l 476 1258 l 326 1121 z "},"Ắ":{"ha":956,"x_min":10,"x_max":947,"o":"m 182 0 l 10 0 l 401 1043 l 560 1043 l 947 0 l 769 0 l 512 776 l 483 875 l 452 776 l 182 0 m 204 253 l 232 374 l 706 374 l 735 253 l 204 253 m 482 1105 q 349 1136 403 1105 q 268 1220 294 1168 q 247 1335 242 1272 l 356 1335 q 359 1310 356 1328 q 372 1273 361 1292 q 409 1239 383 1253 q 482 1225 435 1225 q 555 1239 528 1225 q 592 1273 581 1253 q 607 1310 604 1292 q 610 1335 610 1328 l 716 1335 q 694 1220 722 1272 q 612 1136 666 1168 q 482 1105 558 1105 m 441 1317 l 371 1383 q 397 1406 374 1385 q 453 1457 420 1427 q 519 1518 486 1488 q 574 1571 551 1549 q 599 1597 597 1593 l 706 1507 q 649 1453 683 1482 q 578 1397 616 1424 q 505 1348 541 1369 q 441 1317 469 1327 z "},"Ằ":{"ha":956,"x_min":10,"x_max":947,"o":"m 182 0 l 10 0 l 401 1043 l 560 1043 l 947 0 l 769 0 l 512 776 l 483 875 l 452 776 l 182 0 m 204 253 l 232 374 l 706 374 l 735 253 l 204 253 m 477 1105 q 344 1136 398 1105 q 264 1220 290 1168 q 242 1335 238 1272 l 351 1335 q 354 1310 351 1328 q 367 1273 356 1292 q 405 1239 378 1253 q 477 1225 431 1225 q 550 1239 524 1225 q 588 1273 576 1253 q 603 1310 600 1292 q 606 1335 606 1328 l 712 1335 q 689 1220 717 1272 q 607 1136 661 1168 q 477 1105 553 1105 m 584 1410 l 515 1344 q 455 1374 491 1352 q 378 1424 418 1396 q 305 1481 339 1452 q 250 1533 270 1510 l 358 1624 q 382 1597 360 1619 q 438 1544 405 1575 q 503 1484 470 1514 q 559 1433 536 1453 q 584 1410 582 1412 z "},"Ẳ":{"ha":956,"x_min":10,"x_max":947,"o":"m 182 0 l 10 0 l 401 1043 l 560 1043 l 947 0 l 769 0 l 512 776 l 483 875 l 452 776 l 182 0 m 204 253 l 232 374 l 706 374 l 735 253 l 204 253 m 482 1105 q 349 1136 403 1105 q 268 1220 294 1168 q 247 1335 242 1272 l 356 1335 q 359 1310 356 1328 q 372 1273 361 1292 q 409 1239 383 1253 q 482 1225 435 1225 q 555 1239 528 1225 q 592 1273 581 1253 q 607 1310 604 1292 q 610 1335 610 1328 l 716 1335 q 694 1220 722 1272 q 612 1136 666 1168 q 482 1105 558 1105 m 452 1366 q 440 1395 445 1381 q 435 1429 435 1410 q 446 1472 435 1456 q 472 1499 458 1488 q 498 1525 487 1511 q 510 1560 510 1539 q 490 1602 510 1589 q 433 1615 470 1615 q 384 1608 410 1615 q 346 1593 358 1601 l 343 1684 q 401 1706 365 1699 q 465 1713 438 1713 q 584 1677 538 1713 q 629 1582 629 1642 q 615 1522 629 1545 q 581 1483 601 1499 q 542 1451 560 1467 q 523 1417 531 1442 q 523 1366 515 1392 l 452 1366 z "},"Ẵ":{"ha":956,"x_min":10,"x_max":947,"o":"m 182 0 l 10 0 l 401 1043 l 560 1043 l 947 0 l 769 0 l 512 776 l 483 875 l 452 776 l 182 0 m 204 253 l 232 374 l 706 374 l 735 253 l 204 253 m 482 1127 q 317 1187 373 1127 q 268 1335 262 1247 l 367 1335 q 370 1311 367 1328 q 382 1277 372 1295 q 416 1246 392 1259 q 482 1233 440 1233 q 548 1246 524 1233 q 583 1277 572 1259 q 596 1311 594 1295 q 599 1335 599 1328 l 696 1335 q 644 1187 702 1247 q 482 1127 585 1127 m 576 1411 q 516 1424 540 1411 q 474 1455 492 1438 q 440 1486 456 1473 q 401 1501 423 1500 q 367 1492 380 1501 q 346 1467 354 1482 q 330 1435 338 1452 l 268 1467 q 297 1533 277 1503 q 345 1581 317 1563 q 410 1599 374 1599 q 470 1585 447 1599 q 512 1555 494 1572 q 546 1524 529 1538 q 585 1510 563 1511 q 619 1519 607 1510 q 640 1544 632 1528 q 655 1576 647 1559 l 717 1545 q 689 1477 708 1508 q 640 1429 669 1447 q 576 1411 612 1411 z "},"Ặ":{"ha":956,"x_min":10,"x_max":947,"o":"m 182 0 l 10 0 l 401 1043 l 560 1043 l 947 0 l 769 0 l 512 776 l 483 875 l 452 776 l 182 0 m 204 253 l 232 374 l 706 374 l 735 253 l 204 253 m 472 -299 q 401 -273 431 -299 q 372 -203 372 -247 q 388 -148 372 -172 q 432 -108 405 -123 q 487 -93 458 -93 q 561 -121 536 -93 q 586 -189 586 -149 q 551 -268 586 -237 q 472 -299 517 -299 m 477 1107 q 345 1143 400 1107 q 264 1236 291 1180 q 242 1353 238 1292 l 352 1353 q 355 1325 353 1345 q 369 1283 358 1306 q 406 1244 380 1260 q 478 1228 432 1228 q 551 1244 525 1228 q 588 1283 576 1260 q 603 1325 600 1306 q 606 1353 606 1345 l 713 1353 q 690 1236 718 1292 q 606 1143 661 1180 q 477 1107 551 1107 z "},"Ẹ":{"ha":821,"x_min":122,"x_max":771,"o":"m 122 0 l 122 1032 l 722 1032 l 722 907 l 286 907 l 286 593 l 610 593 l 610 469 l 286 469 l 286 128 l 771 128 l 771 0 l 122 0 m 440 -299 q 370 -273 400 -299 q 340 -203 340 -247 q 357 -148 340 -172 q 400 -108 374 -123 q 456 -93 427 -93 q 530 -121 505 -93 q 555 -189 555 -149 q 520 -268 555 -237 q 440 -299 485 -299 z "},"Ẻ":{"ha":821,"x_min":122,"x_max":771,"o":"m 122 0 l 122 1032 l 722 1032 l 722 907 l 286 907 l 286 593 l 610 593 l 610 469 l 286 469 l 286 128 l 771 128 l 771 0 l 122 0 m 397 1125 q 386 1155 391 1140 q 381 1189 381 1169 q 393 1231 381 1215 q 421 1258 405 1247 q 449 1284 437 1270 q 461 1319 461 1298 q 441 1361 461 1348 q 385 1375 422 1375 q 335 1368 361 1375 q 297 1353 310 1360 l 294 1443 q 353 1465 317 1458 q 417 1472 389 1472 q 535 1437 490 1472 q 581 1342 581 1401 q 569 1281 581 1304 q 539 1242 557 1258 q 501 1210 521 1226 q 483 1177 491 1201 q 483 1125 475 1152 l 397 1125 z "},"Ẽ":{"ha":821,"x_min":122,"x_max":771,"o":"m 122 0 l 122 1032 l 722 1032 l 722 907 l 286 907 l 286 593 l 610 593 l 610 469 l 286 469 l 286 128 l 771 128 l 771 0 l 122 0 m 536 1122 q 469 1136 496 1122 q 423 1169 443 1151 q 384 1202 403 1188 q 339 1217 365 1217 q 287 1208 307 1217 q 255 1186 267 1200 q 235 1154 243 1172 l 167 1186 q 200 1256 179 1222 q 255 1313 222 1290 q 335 1335 288 1335 q 400 1321 374 1335 q 447 1288 426 1307 q 487 1256 467 1269 q 533 1242 508 1242 q 580 1250 560 1242 q 613 1272 600 1258 q 635 1304 626 1286 l 706 1268 q 673 1195 697 1228 q 613 1142 649 1163 q 536 1122 578 1122 z "},"Ế":{"ha":821,"x_min":122,"x_max":933,"o":"m 122 0 l 122 1032 l 722 1032 l 722 907 l 286 907 l 286 593 l 610 593 l 610 469 l 286 469 l 286 128 l 771 128 l 771 0 l 122 0 m 288 1099 l 191 1141 l 369 1347 l 506 1347 l 685 1142 l 585 1099 l 438 1235 l 288 1099 m 669 1236 l 599 1303 q 624 1326 601 1305 q 680 1377 647 1347 q 746 1438 713 1407 q 801 1490 778 1468 q 826 1517 824 1513 l 933 1426 q 877 1373 910 1401 q 806 1316 844 1344 q 733 1268 769 1289 q 669 1236 697 1247 z "},"Ề":{"ha":821,"x_min":122,"x_max":802,"o":"m 122 0 l 122 1032 l 722 1032 l 722 907 l 286 907 l 286 593 l 610 593 l 610 469 l 286 469 l 286 128 l 771 128 l 771 0 l 122 0 m 288 1099 l 192 1141 l 370 1347 l 506 1347 l 685 1142 l 585 1099 l 438 1235 l 288 1099 m 802 1338 l 733 1272 q 673 1302 709 1280 q 597 1352 636 1324 q 523 1409 557 1380 q 468 1461 488 1438 l 576 1551 q 600 1525 578 1547 q 656 1472 623 1503 q 721 1411 688 1442 q 777 1360 754 1381 q 802 1338 800 1340 z "},"Ể":{"ha":821,"x_min":122,"x_max":810,"o":"m 122 0 l 122 1032 l 722 1032 l 722 907 l 286 907 l 286 593 l 610 593 l 610 469 l 286 469 l 286 128 l 771 128 l 771 0 l 122 0 m 288 1099 l 191 1141 l 369 1347 l 506 1347 l 685 1142 l 585 1099 l 438 1235 l 288 1099 m 632 1297 q 620 1326 626 1311 q 615 1360 615 1340 q 627 1402 615 1386 q 653 1430 638 1418 q 679 1456 667 1442 q 690 1491 690 1469 q 670 1533 690 1519 q 614 1546 651 1546 q 564 1539 590 1546 q 526 1524 538 1531 l 523 1615 q 582 1636 546 1629 q 645 1643 618 1643 q 764 1608 718 1643 q 810 1513 810 1572 q 795 1453 810 1476 q 761 1414 781 1430 q 722 1381 741 1398 q 703 1348 712 1372 q 703 1297 695 1323 l 632 1297 z "},"Ễ":{"ha":821,"x_min":122,"x_max":771,"o":"m 122 0 l 122 1032 l 722 1032 l 722 907 l 286 907 l 286 593 l 610 593 l 610 469 l 286 469 l 286 128 l 771 128 l 771 0 l 122 0 m 288 1099 l 192 1141 l 369 1347 l 506 1347 l 685 1142 l 585 1099 l 438 1235 l 288 1099 m 537 1411 q 476 1424 501 1411 q 434 1455 452 1438 q 400 1486 417 1473 q 361 1501 383 1500 q 327 1492 340 1501 q 306 1467 315 1482 q 290 1435 298 1452 l 233 1467 q 260 1533 242 1503 q 307 1581 279 1563 q 370 1599 335 1599 q 431 1585 407 1599 q 472 1555 455 1572 q 507 1524 490 1538 q 545 1510 524 1511 q 580 1519 567 1510 q 600 1544 592 1528 q 615 1576 608 1559 l 672 1545 q 645 1477 664 1508 q 599 1429 626 1447 q 537 1411 572 1411 z "},"Ệ":{"ha":821,"x_min":122,"x_max":771,"o":"m 122 0 l 122 1032 l 722 1032 l 722 907 l 286 907 l 286 593 l 610 593 l 610 469 l 286 469 l 286 128 l 771 128 l 771 0 l 122 0 m 440 -299 q 370 -273 400 -299 q 340 -203 340 -247 q 357 -148 340 -172 q 400 -108 374 -123 q 456 -93 427 -93 q 530 -121 505 -93 q 555 -189 555 -149 q 520 -268 555 -237 q 440 -299 485 -299 m 286 1121 l 190 1163 l 368 1369 l 506 1369 l 685 1165 l 585 1121 l 436 1258 l 286 1121 z "},"Ỉ":{"ha":444,"x_min":80,"x_max":366,"o":"m 140 0 l 140 1032 l 303 1032 l 303 0 l 140 0 m 183 1125 q 171 1155 176 1140 q 166 1189 166 1169 q 178 1231 166 1215 q 206 1258 190 1247 q 234 1284 222 1270 q 247 1319 247 1298 q 227 1361 247 1348 q 170 1375 207 1375 q 121 1368 147 1375 q 83 1353 95 1360 l 80 1443 q 139 1465 103 1458 q 202 1472 174 1472 q 320 1437 275 1472 q 366 1342 366 1401 q 354 1281 366 1304 q 324 1242 342 1258 q 287 1210 306 1226 q 268 1177 276 1201 q 269 1125 260 1152 l 183 1125 z "},"Ị":{"ha":444,"x_min":116,"x_max":331,"o":"m 140 0 l 140 1032 l 303 1032 l 303 0 l 140 0 m 216 -299 q 146 -273 176 -299 q 116 -203 116 -247 q 133 -148 116 -172 q 176 -108 149 -123 q 231 -93 203 -93 q 306 -121 281 -93 q 331 -189 331 -149 q 296 -268 331 -237 q 216 -299 261 -299 z "},"Ọ":{"ha":1061,"x_min":62,"x_max":999,"o":"m 526 -11 q 278 55 383 -14 q 117 245 173 123 q 65 524 62 367 q 134 812 69 697 q 307 985 199 927 q 547 1043 415 1042 q 787 979 685 1044 q 944 795 889 914 q 996 517 999 676 q 931 227 992 344 q 764 51 869 111 q 526 -11 659 -8 m 531 114 q 749 218 668 114 q 831 524 831 322 q 798 720 831 631 q 702 865 766 810 q 542 919 638 919 q 387 876 458 919 q 273 744 316 833 q 231 514 231 654 q 264 316 231 408 q 365 169 298 225 q 531 114 431 114 m 524 -299 q 453 -273 483 -299 q 424 -203 424 -247 q 440 -148 424 -172 q 484 -108 457 -123 q 539 -93 510 -93 q 613 -121 588 -93 q 638 -189 638 -149 q 603 -268 638 -237 q 524 -299 569 -299 z "},"Ỏ":{"ha":1061,"x_min":62,"x_max":999,"o":"m 526 -11 q 278 55 383 -14 q 117 245 173 123 q 65 524 62 367 q 134 812 69 697 q 307 985 199 927 q 547 1043 415 1042 q 787 979 685 1044 q 944 795 889 914 q 996 517 999 676 q 931 227 992 344 q 764 51 869 111 q 526 -11 659 -8 m 531 114 q 749 218 668 114 q 831 524 831 322 q 798 720 831 631 q 702 865 766 810 q 542 919 638 919 q 387 876 458 919 q 273 744 316 833 q 231 514 231 654 q 264 316 231 408 q 365 169 298 225 q 531 114 431 114 m 507 1125 q 495 1155 501 1140 q 490 1189 490 1169 q 502 1231 490 1215 q 531 1258 515 1247 q 559 1284 547 1270 q 571 1319 571 1298 q 551 1361 571 1348 q 494 1375 531 1375 q 445 1368 471 1375 q 407 1353 419 1360 l 404 1443 q 463 1465 427 1458 q 526 1472 499 1472 q 645 1437 599 1472 q 690 1342 690 1401 q 678 1281 690 1304 q 649 1242 667 1258 q 611 1210 631 1226 q 593 1177 601 1201 q 593 1125 585 1152 l 507 1125 z "},"Ố":{"ha":1061,"x_min":62,"x_max":1043,"o":"m 526 -11 q 278 55 383 -14 q 117 245 173 123 q 65 524 62 367 q 134 812 69 697 q 307 985 199 927 q 547 1043 415 1042 q 787 979 685 1044 q 944 795 889 914 q 996 517 999 676 q 931 227 992 344 q 764 51 869 111 q 526 -11 659 -8 m 531 114 q 749 218 668 114 q 831 524 831 322 q 798 720 831 631 q 702 865 766 810 q 542 919 638 919 q 387 876 458 919 q 273 744 316 833 q 231 514 231 654 q 264 316 231 408 q 365 169 298 225 q 531 114 431 114 m 397 1099 l 301 1141 l 479 1347 l 615 1347 l 794 1142 l 694 1099 l 547 1235 l 397 1099 m 778 1236 l 708 1303 q 734 1326 710 1305 q 790 1377 757 1347 q 856 1438 823 1407 q 911 1490 888 1468 q 935 1517 934 1513 l 1043 1426 q 987 1373 1020 1401 q 916 1316 953 1344 q 843 1268 878 1289 q 778 1236 807 1247 z "},"Ồ":{"ha":1061,"x_min":62,"x_max":999,"o":"m 526 -11 q 278 55 383 -14 q 117 245 173 123 q 65 524 62 367 q 134 812 69 697 q 307 985 199 927 q 547 1043 415 1042 q 787 979 685 1044 q 944 795 889 914 q 996 517 999 676 q 931 227 992 344 q 764 51 869 111 q 526 -11 659 -8 m 531 114 q 749 218 668 114 q 831 524 831 322 q 798 720 831 631 q 702 865 766 810 q 542 919 638 919 q 387 876 458 919 q 273 744 316 833 q 231 514 231 654 q 264 316 231 408 q 365 169 298 225 q 531 114 431 114 m 397 1099 l 301 1141 l 480 1347 l 615 1347 l 795 1142 l 695 1099 l 547 1235 l 397 1099 m 912 1338 l 843 1272 q 782 1302 819 1280 q 706 1352 746 1324 q 632 1409 667 1380 q 578 1461 598 1438 l 686 1551 q 710 1525 688 1547 q 765 1472 733 1503 q 831 1411 798 1442 q 887 1360 864 1381 q 912 1338 910 1340 z "},"Ổ":{"ha":1061,"x_min":62,"x_max":999,"o":"m 526 -11 q 278 55 383 -14 q 117 245 173 123 q 65 524 62 367 q 134 812 69 697 q 307 985 199 927 q 547 1043 415 1042 q 787 979 685 1044 q 944 795 889 914 q 996 517 999 676 q 931 227 992 344 q 764 51 869 111 q 526 -11 659 -8 m 531 114 q 749 218 668 114 q 831 524 831 322 q 798 720 831 631 q 702 865 766 810 q 542 919 638 919 q 387 876 458 919 q 273 744 316 833 q 231 514 231 654 q 264 316 231 408 q 365 169 298 225 q 531 114 431 114 m 397 1099 l 301 1141 l 479 1347 l 615 1347 l 794 1142 l 694 1099 l 547 1235 l 397 1099 m 742 1297 q 730 1326 735 1311 q 725 1360 725 1340 q 736 1402 725 1386 q 763 1430 748 1418 q 789 1456 777 1442 q 800 1491 800 1469 q 780 1533 800 1519 q 724 1546 760 1546 q 674 1539 700 1546 q 635 1524 648 1531 l 633 1615 q 692 1636 656 1629 q 755 1643 728 1643 q 874 1608 828 1643 q 919 1513 919 1572 q 905 1453 919 1476 q 871 1414 891 1430 q 832 1381 851 1398 q 813 1348 822 1372 q 813 1297 805 1323 l 742 1297 z "},"Ỗ":{"ha":1061,"x_min":62,"x_max":999,"o":"m 526 -11 q 278 55 383 -14 q 117 245 173 123 q 65 524 62 367 q 134 812 69 697 q 307 985 199 927 q 547 1043 415 1042 q 787 979 685 1044 q 944 795 889 914 q 996 517 999 676 q 931 227 992 344 q 764 51 869 111 q 526 -11 659 -8 m 531 114 q 749 218 668 114 q 831 524 831 322 q 798 720 831 631 q 702 865 766 810 q 542 919 638 919 q 387 876 458 919 q 273 744 316 833 q 231 514 231 654 q 264 316 231 408 q 365 169 298 225 q 531 114 431 114 m 397 1099 l 301 1141 l 479 1347 l 615 1347 l 795 1142 l 695 1099 l 547 1235 l 397 1099 m 647 1411 q 586 1424 610 1411 q 544 1455 562 1438 q 510 1486 526 1473 q 471 1501 493 1500 q 437 1492 450 1501 q 416 1467 424 1482 q 400 1435 408 1452 l 343 1467 q 370 1533 351 1503 q 417 1581 389 1563 q 480 1599 444 1599 q 541 1585 517 1599 q 582 1555 565 1572 q 616 1524 599 1538 q 655 1510 633 1511 q 690 1519 677 1510 q 710 1544 702 1528 q 725 1576 717 1559 l 782 1545 q 755 1477 774 1508 q 709 1429 736 1447 q 647 1411 682 1411 z "},"Ộ":{"ha":1061,"x_min":62,"x_max":999,"o":"m 526 -11 q 278 55 383 -14 q 117 245 173 123 q 65 524 62 367 q 134 812 69 697 q 307 985 199 927 q 547 1043 415 1042 q 787 979 685 1044 q 944 795 889 914 q 996 517 999 676 q 931 227 992 344 q 764 51 869 111 q 526 -11 659 -8 m 531 114 q 749 218 668 114 q 831 524 831 322 q 798 720 831 631 q 702 865 766 810 q 542 919 638 919 q 387 876 458 919 q 273 744 316 833 q 231 514 231 654 q 264 316 231 408 q 365 169 298 225 q 531 114 431 114 m 524 -299 q 453 -273 483 -299 q 424 -203 424 -247 q 440 -148 424 -172 q 484 -108 457 -123 q 539 -93 510 -93 q 613 -121 588 -93 q 638 -189 638 -149 q 603 -268 638 -237 q 524 -299 569 -299 m 396 1121 l 300 1163 l 478 1369 l 615 1369 l 794 1165 l 694 1121 l 546 1258 l 396 1121 z "},"Ớ":{"ha":1061,"x_min":62,"x_max":999,"o":"m 526 -11 q 278 55 383 -14 q 117 245 173 123 q 65 524 62 367 q 134 812 69 697 q 307 985 199 927 q 547 1043 415 1042 q 787 979 685 1044 q 944 795 889 914 q 996 517 999 676 q 931 227 992 344 q 764 51 869 111 q 526 -11 659 -8 m 531 114 q 749 218 668 114 q 831 524 831 322 q 798 720 831 631 q 702 865 766 810 q 542 919 638 919 q 387 876 458 919 q 273 744 316 833 q 231 514 231 654 q 264 316 231 408 q 365 169 298 225 q 531 114 431 114 m 711 907 l 711 1000 q 789 1016 758 1000 q 839 1055 820 1031 q 866 1105 857 1079 q 878 1153 875 1131 q 880 1166 879 1160 q 879 1176 881 1172 l 988 1176 q 990 1161 989 1168 q 990 1146 990 1153 q 951 1025 990 1079 q 848 939 912 971 q 711 907 785 907 m 511 1124 l 442 1189 q 467 1211 443 1190 q 524 1263 490 1233 q 591 1325 557 1294 q 647 1378 624 1356 q 672 1403 670 1400 l 776 1313 q 720 1260 753 1288 q 650 1204 687 1231 q 576 1156 613 1177 q 511 1124 540 1135 z "},"Ờ":{"ha":1061,"x_min":62,"x_max":999,"o":"m 526 -11 q 278 55 383 -14 q 117 245 173 123 q 65 524 62 367 q 134 812 69 697 q 307 985 199 927 q 547 1043 415 1042 q 787 979 685 1044 q 944 795 889 914 q 996 517 999 676 q 931 227 992 344 q 764 51 869 111 q 526 -11 659 -8 m 531 114 q 749 218 668 114 q 831 524 831 322 q 798 720 831 631 q 702 865 766 810 q 542 919 638 919 q 387 876 458 919 q 273 744 316 833 q 231 514 231 654 q 264 316 231 408 q 365 169 298 225 q 531 114 431 114 m 711 907 l 711 1000 q 789 1016 758 1000 q 839 1055 820 1031 q 866 1105 857 1079 q 878 1153 875 1131 q 880 1166 879 1160 q 879 1176 881 1172 l 988 1176 q 990 1161 989 1168 q 990 1146 990 1153 q 951 1025 990 1079 q 848 939 912 971 q 711 907 785 907 m 642 1191 l 573 1124 q 512 1155 549 1133 q 436 1205 476 1176 q 362 1262 397 1233 q 308 1315 328 1291 l 416 1405 q 440 1378 417 1401 q 495 1325 463 1356 q 561 1265 528 1294 q 617 1214 594 1235 q 642 1191 640 1193 z "},"Ở":{"ha":1061,"x_min":62,"x_max":999,"o":"m 526 -11 q 278 55 383 -14 q 117 245 173 123 q 65 524 62 367 q 134 812 69 697 q 307 985 199 927 q 547 1043 415 1042 q 787 979 685 1044 q 944 795 889 914 q 996 517 999 676 q 931 227 992 344 q 764 51 869 111 q 526 -11 659 -8 m 531 114 q 749 218 668 114 q 831 524 831 322 q 798 720 831 631 q 702 865 766 810 q 542 919 638 919 q 387 876 458 919 q 273 744 316 833 q 231 514 231 654 q 264 316 231 408 q 365 169 298 225 q 531 114 431 114 m 711 907 l 711 1000 q 789 1016 758 1000 q 839 1055 820 1031 q 866 1105 857 1079 q 878 1153 875 1131 q 880 1166 879 1160 q 879 1176 881 1172 l 988 1176 q 990 1161 989 1168 q 990 1146 990 1153 q 951 1025 990 1079 q 848 939 912 971 q 711 907 785 907 m 513 1125 q 501 1155 506 1140 q 496 1189 496 1169 q 508 1231 496 1215 q 536 1258 520 1247 q 564 1284 552 1270 q 576 1319 576 1298 q 557 1361 576 1348 q 500 1375 537 1375 q 451 1368 476 1375 q 413 1353 425 1360 l 410 1443 q 468 1465 433 1458 q 532 1472 504 1472 q 650 1437 605 1472 q 696 1342 696 1401 q 684 1281 696 1304 q 654 1242 672 1258 q 617 1210 636 1226 q 598 1177 606 1201 q 599 1125 590 1152 l 513 1125 z "},"Ỡ":{"ha":1061,"x_min":62,"x_max":999,"o":"m 526 -11 q 278 55 383 -14 q 117 245 173 123 q 65 524 62 367 q 134 812 69 697 q 307 985 199 927 q 547 1043 415 1042 q 787 979 685 1044 q 944 795 889 914 q 996 517 999 676 q 931 227 992 344 q 764 51 869 111 q 526 -11 659 -8 m 531 114 q 749 218 668 114 q 831 524 831 322 q 798 720 831 631 q 702 865 766 810 q 542 919 638 919 q 387 876 458 919 q 273 744 316 833 q 231 514 231 654 q 264 316 231 408 q 365 169 298 225 q 531 114 431 114 m 711 907 l 711 1000 q 789 1016 758 1000 q 839 1055 820 1031 q 866 1105 857 1079 q 878 1153 875 1131 q 880 1166 879 1160 q 879 1176 881 1172 l 988 1176 q 990 1161 989 1168 q 990 1146 990 1153 q 951 1025 990 1079 q 848 939 912 971 q 711 907 785 907 m 651 1122 q 585 1136 611 1122 q 539 1169 558 1151 q 500 1202 519 1188 q 454 1217 481 1217 q 402 1208 422 1217 q 370 1186 383 1200 q 350 1154 358 1172 l 282 1186 q 316 1256 294 1222 q 370 1313 337 1290 q 450 1335 403 1335 q 515 1321 489 1335 q 562 1288 542 1307 q 602 1256 582 1269 q 649 1242 623 1242 q 695 1250 676 1242 q 728 1272 715 1258 q 750 1304 742 1286 l 821 1268 q 788 1195 813 1228 q 728 1142 764 1163 q 651 1122 693 1122 z "},"Ợ":{"ha":1061,"x_min":62,"x_max":999,"o":"m 526 -11 q 278 55 383 -14 q 117 245 173 123 q 65 524 62 367 q 134 812 69 697 q 307 985 199 927 q 547 1043 415 1042 q 787 979 685 1044 q 944 795 889 914 q 996 517 999 676 q 931 227 992 344 q 764 51 869 111 q 526 -11 659 -8 m 531 114 q 749 218 668 114 q 831 524 831 322 q 798 720 831 631 q 702 865 766 810 q 542 919 638 919 q 387 876 458 919 q 273 744 316 833 q 231 514 231 654 q 264 316 231 408 q 365 169 298 225 q 531 114 431 114 m 711 907 l 711 1000 q 789 1016 758 1000 q 839 1055 820 1031 q 866 1105 857 1079 q 878 1153 875 1131 q 880 1166 879 1160 q 879 1176 881 1172 l 988 1176 q 990 1161 989 1168 q 990 1146 990 1153 q 951 1025 990 1079 q 848 939 912 971 q 711 907 785 907 m 526 -299 q 456 -273 486 -299 q 426 -203 426 -247 q 443 -148 426 -172 q 486 -108 460 -123 q 542 -93 513 -93 q 616 -121 591 -93 q 641 -189 641 -149 q 606 -268 641 -237 q 526 -299 572 -299 z "},"Ụ":{"ha":999,"x_min":107,"x_max":893,"o":"m 505 -11 q 273 42 361 -11 q 146 194 185 94 q 107 432 107 293 l 108 1032 l 270 1032 l 269 463 q 297 250 269 325 q 379 146 325 175 q 510 117 433 117 q 629 146 579 117 q 705 251 678 176 q 732 463 732 326 l 732 1032 l 893 1032 l 893 429 q 797 103 893 217 q 505 -11 701 -11 m 493 -299 q 423 -273 453 -299 q 393 -203 393 -247 q 410 -148 393 -172 q 453 -108 426 -123 q 508 -93 480 -93 q 583 -121 558 -93 q 608 -189 608 -149 q 573 -268 608 -237 q 493 -299 538 -299 z "},"Ủ":{"ha":999,"x_min":107,"x_max":893,"o":"m 505 -11 q 273 42 361 -11 q 146 194 185 94 q 107 432 107 293 l 108 1032 l 270 1032 l 269 463 q 297 250 269 325 q 379 146 325 175 q 510 117 433 117 q 629 146 579 117 q 705 251 678 176 q 732 463 732 326 l 732 1032 l 893 1032 l 893 429 q 797 103 893 217 q 505 -11 701 -11 m 468 1125 q 457 1155 462 1140 q 451 1189 451 1169 q 464 1231 451 1215 q 492 1258 476 1247 q 520 1284 508 1270 q 532 1319 532 1298 q 512 1361 532 1348 q 456 1375 492 1375 q 406 1368 432 1375 q 368 1353 381 1360 l 365 1443 q 424 1465 388 1458 q 488 1472 460 1472 q 606 1437 560 1472 q 651 1342 651 1401 q 640 1281 651 1304 q 610 1242 628 1258 q 572 1210 592 1226 q 554 1177 562 1201 q 554 1125 546 1152 l 468 1125 z "},"Ứ":{"ha":999,"x_min":107,"x_max":1072,"o":"m 505 -11 q 273 42 361 -11 q 146 194 185 94 q 107 432 107 293 l 108 1032 l 270 1032 l 269 463 q 297 250 269 325 q 379 146 325 175 q 510 117 433 117 q 629 146 579 117 q 705 251 678 176 q 732 463 732 326 l 732 1032 l 893 1032 l 893 429 q 797 103 893 217 q 505 -11 701 -11 m 793 938 l 793 1031 q 871 1046 840 1031 q 920 1086 902 1062 q 948 1136 939 1110 q 960 1183 957 1162 q 962 1197 961 1191 q 961 1207 963 1203 l 1069 1207 q 1072 1191 1071 1199 q 1072 1176 1072 1184 q 1033 1056 1072 1110 q 930 969 994 1001 q 793 938 867 938 m 465 1124 l 396 1189 q 421 1211 397 1190 q 478 1263 444 1233 q 545 1325 511 1294 q 601 1378 578 1356 q 626 1403 624 1400 l 731 1313 q 674 1260 707 1288 q 604 1204 641 1231 q 531 1156 567 1177 q 465 1124 494 1135 z "},"Ừ":{"ha":999,"x_min":107,"x_max":1072,"o":"m 505 -11 q 273 42 361 -11 q 146 194 185 94 q 107 432 107 293 l 108 1032 l 270 1032 l 269 463 q 297 250 269 325 q 379 146 325 175 q 510 117 433 117 q 629 146 579 117 q 705 251 678 176 q 732 463 732 326 l 732 1032 l 893 1032 l 893 429 q 797 103 893 217 q 505 -11 701 -11 m 793 938 l 793 1031 q 871 1046 840 1031 q 920 1086 902 1062 q 948 1136 939 1110 q 960 1183 957 1162 q 962 1197 961 1191 q 961 1207 963 1203 l 1069 1207 q 1072 1191 1071 1199 q 1072 1176 1072 1184 q 1033 1056 1072 1110 q 930 969 994 1001 q 793 938 867 938 m 596 1191 l 527 1124 q 466 1155 503 1133 q 390 1205 430 1176 q 316 1262 351 1233 q 262 1315 282 1291 l 370 1405 q 394 1378 372 1401 q 449 1325 417 1356 q 515 1265 482 1294 q 571 1214 548 1235 q 596 1191 594 1193 z "},"Ử":{"ha":999,"x_min":107,"x_max":1072,"o":"m 505 -11 q 273 42 361 -11 q 146 194 185 94 q 107 432 107 293 l 108 1032 l 270 1032 l 269 463 q 297 250 269 325 q 379 146 325 175 q 510 117 433 117 q 629 146 579 117 q 705 251 678 176 q 732 463 732 326 l 732 1032 l 893 1032 l 893 429 q 797 103 893 217 q 505 -11 701 -11 m 793 938 l 793 1031 q 871 1046 840 1031 q 920 1086 902 1062 q 948 1136 939 1110 q 960 1183 957 1162 q 962 1197 961 1191 q 961 1207 963 1203 l 1069 1207 q 1072 1191 1071 1199 q 1072 1176 1072 1184 q 1033 1056 1072 1110 q 930 969 994 1001 q 793 938 867 938 m 467 1125 q 455 1155 460 1140 q 450 1189 450 1169 q 462 1231 450 1215 q 490 1258 474 1247 q 518 1284 506 1270 q 531 1319 531 1298 q 511 1361 531 1348 q 454 1375 491 1375 q 405 1368 431 1375 q 367 1353 379 1360 l 364 1443 q 423 1465 387 1458 q 486 1472 458 1472 q 605 1437 559 1472 q 650 1342 650 1401 q 638 1281 650 1304 q 608 1242 626 1258 q 571 1210 590 1226 q 552 1177 560 1201 q 553 1125 544 1152 l 467 1125 z "},"Ữ":{"ha":999,"x_min":107,"x_max":1072,"o":"m 505 -11 q 273 42 361 -11 q 146 194 185 94 q 107 432 107 293 l 108 1032 l 270 1032 l 269 463 q 297 250 269 325 q 379 146 325 175 q 510 117 433 117 q 629 146 579 117 q 705 251 678 176 q 732 463 732 326 l 732 1032 l 893 1032 l 893 429 q 797 103 893 217 q 505 -11 701 -11 m 793 938 l 793 1031 q 871 1046 840 1031 q 920 1086 902 1062 q 948 1136 939 1110 q 960 1183 957 1162 q 962 1197 961 1191 q 961 1207 963 1203 l 1069 1207 q 1072 1191 1071 1199 q 1072 1176 1072 1184 q 1033 1056 1072 1110 q 930 969 994 1001 q 793 938 867 938 m 606 1122 q 539 1136 565 1122 q 493 1169 513 1151 q 454 1202 473 1188 q 408 1217 435 1217 q 357 1208 376 1217 q 325 1186 337 1200 q 304 1154 313 1172 l 236 1186 q 270 1256 249 1222 q 324 1313 291 1290 q 404 1335 357 1335 q 469 1321 443 1335 q 516 1288 496 1307 q 557 1256 536 1269 q 603 1242 577 1242 q 650 1250 630 1242 q 683 1272 669 1258 q 704 1304 696 1286 l 775 1268 q 742 1195 767 1228 q 683 1142 718 1163 q 606 1122 647 1122 z "},"Ự":{"ha":999,"x_min":107,"x_max":1072,"o":"m 505 -11 q 273 42 361 -11 q 146 194 185 94 q 107 432 107 293 l 108 1032 l 270 1032 l 269 463 q 297 250 269 325 q 379 146 325 175 q 510 117 433 117 q 629 146 579 117 q 705 251 678 176 q 732 463 732 326 l 732 1032 l 893 1032 l 893 429 q 797 103 893 217 q 505 -11 701 -11 m 793 938 l 793 1031 q 871 1046 840 1031 q 920 1086 902 1062 q 948 1136 939 1110 q 960 1183 957 1162 q 962 1197 961 1191 q 961 1207 963 1203 l 1069 1207 q 1072 1191 1071 1199 q 1072 1176 1072 1184 q 1033 1056 1072 1110 q 930 969 994 1001 q 793 938 867 938 m 493 -299 q 423 -273 453 -299 q 393 -203 393 -247 q 410 -148 393 -172 q 453 -108 426 -123 q 508 -93 480 -93 q 583 -121 558 -93 q 608 -189 608 -149 q 573 -268 608 -237 q 493 -299 538 -299 z "},"Ỳ":{"ha":854,"x_min":7,"x_max":848,"o":"m 347 0 l 347 439 l 371 349 l 7 1032 l 181 1032 l 403 593 l 447 488 l 422 488 l 458 593 l 676 1032 l 848 1032 l 488 349 l 512 437 l 512 0 l 347 0 m 522 1191 l 453 1124 q 393 1155 429 1133 q 317 1205 356 1176 q 243 1262 277 1233 q 188 1315 208 1291 l 297 1405 q 320 1378 298 1401 q 376 1325 343 1356 q 441 1265 408 1294 q 497 1214 474 1235 q 522 1191 520 1193 z "},"Ỵ":{"ha":854,"x_min":7,"x_max":848,"o":"m 347 0 l 347 439 l 371 349 l 7 1032 l 181 1032 l 403 593 l 447 488 l 422 488 l 458 593 l 676 1032 l 848 1032 l 488 349 l 512 437 l 512 0 l 347 0 m 421 -299 q 351 -273 381 -299 q 321 -203 321 -247 q 338 -148 321 -172 q 381 -108 354 -123 q 436 -93 408 -93 q 510 -121 485 -93 q 535 -189 535 -149 q 501 -268 535 -237 q 421 -299 466 -299 z "},"Ỷ":{"ha":854,"x_min":7,"x_max":848,"o":"m 347 0 l 347 439 l 371 349 l 7 1032 l 181 1032 l 403 593 l 447 488 l 422 488 l 458 593 l 676 1032 l 848 1032 l 488 349 l 512 437 l 512 0 l 347 0 m 393 1125 q 382 1155 387 1140 q 376 1189 376 1169 q 389 1231 376 1215 q 417 1258 401 1247 q 445 1284 433 1270 q 457 1319 457 1298 q 437 1361 457 1348 q 381 1375 417 1375 q 331 1368 357 1375 q 293 1353 306 1360 l 290 1443 q 349 1465 313 1458 q 413 1472 385 1472 q 531 1437 485 1472 q 576 1342 576 1401 q 565 1281 576 1304 q 535 1242 553 1258 q 497 1210 517 1226 q 479 1177 487 1201 q 479 1125 471 1152 l 393 1125 z "},"Ỹ":{"ha":854,"x_min":7,"x_max":848,"o":"m 347 0 l 347 439 l 371 349 l 7 1032 l 181 1032 l 403 593 l 447 488 l 422 488 l 458 593 l 676 1032 l 848 1032 l 488 349 l 512 437 l 512 0 l 347 0 m 532 1122 q 465 1136 492 1122 q 419 1169 439 1151 q 380 1202 399 1188 q 335 1217 361 1217 q 283 1208 303 1217 q 251 1186 263 1200 q 231 1154 239 1172 l 163 1186 q 196 1256 175 1222 q 250 1313 217 1290 q 331 1335 283 1335 q 396 1321 369 1335 q 442 1288 422 1307 q 483 1256 463 1269 q 529 1242 503 1242 q 576 1250 556 1242 q 609 1272 596 1258 q 631 1304 622 1286 l 701 1268 q 669 1195 693 1228 q 609 1142 644 1163 q 532 1122 574 1122 z "},"Δ":{"ha":1075,"x_min":40,"x_max":1035,"o":"m 50 0 l 40 15 l 507 1022 l 528 1022 l 1035 18 l 1024 0 l 50 0 m 244 128 l 817 128 l 523 744 l 244 128 z "},"Ω":{"ha":1227,"x_min":131,"x_max":1104,"o":"m 519 106 l 519 0 l 401 81 q 311 151 358 103 q 224 266 265 199 q 157 413 183 333 q 131 581 131 493 q 172 791 131 703 q 282 936 213 879 q 435 1020 350 993 q 610 1047 521 1047 q 850 995 744 1047 q 1017 839 956 942 q 1077 581 1078 735 q 1054 413 1077 493 q 993 265 1031 333 q 905 147 954 197 q 804 70 856 97 q 784 57 797 67 q 755 35 770 47 q 726 14 740 24 q 707 0 713 3 l 707 106 q 808 207 760 140 q 884 367 855 274 q 913 574 914 460 q 886 723 913 660 q 816 825 860 785 q 718 884 772 865 q 610 903 665 903 q 460 869 533 903 q 342 763 388 835 q 295 574 295 690 q 331 367 296 460 q 417 207 365 274 q 519 106 469 140 m 131 0 l 131 112 l 401 112 l 519 0 l 131 0 m 1104 0 l 707 0 l 781 112 l 1104 112 l 1104 0 z "},"Ω":{"ha":1227,"x_min":131,"x_max":1104,"o":"m 519 106 l 519 0 l 401 81 q 311 151 358 103 q 224 266 265 199 q 157 413 183 333 q 131 581 131 493 q 172 791 131 703 q 282 936 213 879 q 435 1020 350 993 q 610 1047 521 1047 q 850 995 744 1047 q 1017 839 956 942 q 1077 581 1078 735 q 1054 413 1077 493 q 993 265 1031 333 q 905 147 954 197 q 804 70 856 97 q 784 57 797 67 q 755 35 770 47 q 726 14 740 24 q 707 0 713 3 l 707 106 q 808 207 760 140 q 884 367 855 274 q 913 574 914 460 q 886 723 913 660 q 816 825 860 785 q 718 884 772 865 q 610 903 665 903 q 460 869 533 903 q 342 763 388 835 q 295 574 295 690 q 331 367 296 460 q 417 207 365 274 q 519 106 469 140 m 131 0 l 131 112 l 401 112 l 519 0 l 131 0 m 1104 0 l 707 0 l 781 112 l 1104 112 l 1104 0 z "},"µ":{"ha":928,"x_min":140,"x_max":861,"o":"m 140 -251 l 140 774 l 298 774 l 298 281 q 338 152 298 189 q 461 116 378 116 q 513 125 487 116 q 563 147 539 134 q 603 173 586 160 l 603 774 l 763 774 l 763 164 q 769 123 763 133 q 788 113 776 113 q 808 116 794 113 q 840 131 822 120 l 861 58 q 835 34 856 51 q 783 2 815 17 q 712 -12 751 -12 q 649 8 674 -12 q 627 82 625 29 q 588 42 611 64 q 530 5 565 20 q 446 -11 495 -11 q 318 13 368 -11 q 236 103 267 38 l 263 110 l 288 -251 l 140 -251 z "},"ℓ":{"ha":858,"x_min":-1,"x_max":758,"o":"m 124 24 l -1 103 q 205 258 109 175 q 378 432 301 342 q 510 612 455 522 q 594 789 565 703 q 623 951 624 875 q 616 993 623 969 q 590 1017 608 1017 q 520 974 556 1017 q 451 857 485 930 q 390 695 417 784 q 347 513 363 606 q 331 338 331 420 q 339 234 331 278 q 360 161 347 190 q 393 119 374 133 q 433 105 412 105 q 499 135 467 105 q 556 213 530 165 q 602 315 583 260 l 731 286 q 691 195 717 247 q 627 94 665 143 q 539 13 589 45 q 426 -19 488 -19 q 334 4 376 -19 q 261 73 292 27 q 215 188 231 119 q 199 349 199 257 q 219 570 199 458 q 276 783 239 682 q 365 964 313 885 q 479 1089 416 1043 q 614 1135 542 1135 q 723 1084 688 1135 q 758 952 758 1033 q 707 702 758 826 q 565 459 655 578 q 362 231 476 340 q 124 24 249 121 z "},"a":{"ha":776,"x_min":64,"x_max":669,"o":"m 303 -11 q 180 16 233 -11 q 95 94 126 44 q 64 213 64 144 q 104 339 64 288 q 211 420 144 391 q 308 449 256 438 q 412 464 360 460 q 508 469 464 469 l 542 426 l 508 370 q 443 366 481 370 q 369 355 406 363 q 306 334 332 347 q 247 293 271 318 q 224 224 224 268 q 256 135 224 165 q 352 106 288 106 q 418 115 385 106 q 476 138 451 125 q 508 159 501 150 l 540 125 l 517 65 q 429 13 487 38 q 303 -11 372 -11 m 669 0 l 517 0 l 517 115 l 508 115 l 508 542 q 473 632 508 610 q 371 653 437 653 q 281 645 327 653 q 195 623 234 636 q 135 597 156 610 l 98 713 q 159 740 114 722 q 266 771 205 757 q 386 785 326 785 q 536 765 473 785 q 634 691 600 745 q 669 533 669 636 l 669 0 z "},"b":{"ha":856,"x_min":119,"x_max":792,"o":"m 119 1126 l 278 1126 l 278 811 l 273 675 l 278 671 l 278 114 l 119 43 l 119 1126 m 399 -12 q 312 -7 357 -12 q 227 8 267 -1 q 158 27 187 17 q 119 43 129 36 l 278 131 q 332 110 297 117 q 416 103 366 103 q 523 136 476 103 q 599 235 571 170 q 628 396 627 301 q 581 597 630 533 q 442 660 531 660 q 346 639 388 660 q 278 600 303 619 l 253 679 q 297 720 269 696 q 371 764 325 745 q 487 783 417 783 q 638 743 569 783 q 750 622 708 703 q 792 415 792 540 q 743 193 792 290 q 606 42 694 97 q 399 -12 517 -12 z "},"c":{"ha":678,"x_min":56,"x_max":636,"o":"m 56 378 q 97 584 56 492 q 222 730 139 676 q 431 783 306 783 q 554 770 503 783 q 624 744 605 757 l 599 618 q 528 648 569 638 q 429 658 488 658 q 328 633 377 658 q 247 552 280 608 q 211 406 215 497 q 236 244 208 310 q 314 145 265 178 q 425 111 364 111 q 532 126 483 111 q 606 156 581 140 l 636 63 q 536 9 601 29 q 399 -11 472 -11 q 212 40 288 -11 q 95 180 135 92 q 56 378 56 267 z "},"d":{"ha":850,"x_min":64,"x_max":738,"o":"m 586 0 l 586 103 l 578 107 l 578 654 l 583 658 l 578 811 l 578 1129 l 738 1129 l 738 0 l 586 0 m 370 -11 q 219 29 289 -11 q 107 151 149 69 q 64 359 64 233 q 113 580 64 485 q 248 730 161 676 q 453 783 335 783 q 573 766 524 783 q 635 738 622 749 l 578 635 q 523 660 557 653 q 441 667 488 667 q 334 635 382 667 q 258 538 287 602 q 229 378 230 473 q 276 178 227 242 q 415 115 326 115 q 511 135 469 115 q 578 174 554 156 l 604 95 q 560 53 588 78 q 486 8 532 28 q 370 -11 440 -11 z "},"e":{"ha":775,"x_min":68,"x_max":707,"o":"m 415 -11 q 158 94 249 -11 q 68 388 68 200 q 108 589 68 500 q 226 730 148 678 q 418 783 304 782 q 528 767 476 785 q 619 712 579 749 q 682 620 658 676 q 707 490 705 565 q 706 412 707 447 q 700 351 706 378 l 161 351 l 175 453 l 557 453 q 550 558 560 508 q 507 639 540 608 q 410 669 474 669 q 313 639 356 669 q 246 538 269 609 q 226 342 222 466 q 262 203 231 254 q 344 131 293 153 q 457 110 394 110 q 522 116 483 110 q 595 131 560 122 q 650 151 631 140 l 681 60 q 611 23 655 39 q 515 -2 567 7 q 415 -11 464 -11 z "},"f":{"ha":556,"x_min":52,"x_max":552,"o":"m 167 0 l 167 655 l 52 655 l 52 744 l 167 774 l 167 842 q 192 985 167 928 q 260 1077 218 1043 q 352 1126 302 1111 q 449 1140 401 1140 q 512 1135 483 1140 q 552 1126 541 1130 l 552 1003 q 507 1013 532 1009 q 438 1016 482 1016 q 359 980 390 1016 q 328 869 328 943 l 328 774 l 516 774 l 516 655 l 328 655 l 328 0 l 167 0 z "},"g":{"ha":835,"x_min":65,"x_max":817,"o":"m 396 -350 q 154 -294 243 -350 q 65 -122 65 -237 q 86 -45 65 -79 q 138 11 107 -12 q 197 46 168 34 l 300 31 q 267 3 285 17 q 236 -36 249 -12 q 222 -100 222 -60 q 240 -178 222 -146 q 298 -227 258 -210 q 401 -244 337 -244 q 512 -232 461 -244 q 593 -193 563 -219 q 624 -128 624 -167 q 609 -58 624 -87 q 553 -15 594 -30 q 435 0 513 0 l 358 0 q 288 2 319 0 q 233 10 258 3 q 217 17 225 12 q 201 25 210 22 q 132 81 149 45 q 114 151 114 116 q 128 207 114 178 q 168 261 142 235 q 229 307 194 287 l 328 282 q 283 248 303 272 q 263 197 263 224 q 283 140 263 155 q 351 125 303 125 l 490 125 q 636 106 580 125 q 723 56 692 88 q 765 -14 753 24 q 776 -93 776 -53 q 747 -201 776 -153 q 664 -282 717 -249 q 542 -333 611 -315 q 396 -350 474 -350 m 391 264 q 235 296 304 264 q 125 386 165 328 q 85 518 85 443 q 125 667 85 608 q 235 753 165 725 q 394 783 306 782 q 551 758 480 785 q 666 674 623 731 q 708 526 708 617 q 667 383 708 442 q 555 294 626 324 q 391 264 483 264 m 395 368 q 509 400 467 368 q 551 522 551 433 q 515 638 551 598 q 403 678 478 678 q 323 665 360 678 q 264 619 286 653 q 242 524 242 586 q 278 415 242 461 q 395 368 315 368 m 623 653 l 579 717 q 640 758 594 737 q 740 778 685 778 l 817 778 l 817 653 l 623 653 z "},"h":{"ha":881,"x_min":119,"x_max":767,"o":"m 119 0 l 119 1129 l 278 1129 l 278 811 l 270 672 l 263 690 q 333 733 290 712 q 426 769 376 755 q 526 785 476 783 q 709 715 652 788 q 767 473 767 642 l 767 0 l 607 0 l 607 474 q 577 612 607 569 q 463 650 548 654 q 375 633 426 649 q 278 582 324 616 l 278 0 l 119 0 z "},"i":{"ha":410,"x_min":95,"x_max":310,"o":"m 125 0 l 125 772 l 285 772 l 285 0 l 125 0 m 196 909 q 125 935 156 909 q 95 1005 95 960 q 112 1060 95 1035 q 156 1100 129 1085 q 210 1115 182 1115 q 285 1087 260 1115 q 310 1019 310 1059 q 275 940 310 971 q 196 909 241 909 z "},"j":{"ha":397,"x_min":-57,"x_max":317,"o":"m -57 -333 l -57 -219 q -20 -228 -46 -224 q 23 -233 6 -233 q 106 -182 84 -233 q 128 -26 128 -131 l 128 772 l 289 772 l 289 31 q 260 -187 289 -105 q 176 -307 231 -269 q 42 -344 121 -344 q 10 -343 31 -344 q -31 -339 -12 -342 q -57 -333 -51 -337 m 203 909 q 132 935 163 909 q 102 1005 102 960 q 119 1060 102 1035 q 163 1100 136 1085 q 217 1115 189 1115 q 292 1087 267 1115 q 317 1019 317 1059 q 282 940 317 971 q 203 909 248 909 z "},"k":{"ha":802,"x_min":119,"x_max":797,"o":"m 763 774 l 258 246 l 272 283 l 274 150 l 274 0 l 119 0 l 119 460 l 119 1126 l 274 1126 l 274 538 l 269 368 l 231 394 l 576 774 l 763 774 m 355 381 l 463 485 l 797 0 l 615 0 l 355 381 z "},"l":{"ha":411,"x_min":125,"x_max":286,"o":"m 125 0 l 125 1129 l 286 1129 l 286 0 l 125 0 z "},"m":{"ha":1346,"x_min":119,"x_max":1232,"o":"m 119 0 l 119 772 l 263 772 l 264 690 q 335 731 292 710 q 428 768 378 753 q 528 785 478 783 q 662 759 611 788 q 736 664 713 731 q 759 484 759 597 l 759 0 l 599 0 l 599 474 q 589 577 599 538 q 549 635 578 617 q 463 651 519 653 q 375 633 426 650 q 279 582 324 616 l 279 0 l 119 0 m 751 581 l 717 683 q 789 728 744 706 q 887 768 833 751 q 996 785 941 784 q 1131 758 1078 786 q 1207 664 1183 731 q 1232 485 1232 598 l 1232 0 l 1072 0 l 1072 474 q 1061 577 1072 538 q 1023 635 1051 617 q 936 651 994 653 q 844 631 896 650 q 751 581 793 612 z "},"n":{"ha":876,"x_min":119,"x_max":763,"o":"m 119 0 l 119 772 l 263 772 l 264 690 q 336 731 292 710 q 430 768 379 753 q 530 785 480 783 q 708 720 654 788 q 763 483 763 653 l 763 0 l 601 0 l 601 474 q 575 614 601 572 q 463 651 549 656 q 407 643 438 651 q 342 620 375 635 q 279 582 309 605 l 279 0 l 119 0 z "},"o":{"ha":832,"x_min":64,"x_max":769,"o":"m 409 -11 q 249 22 315 -11 q 142 113 183 56 q 82 245 101 171 q 65 403 64 320 q 114 612 67 527 q 242 740 161 697 q 423 783 322 783 q 625 726 549 783 q 735 575 701 669 q 767 371 769 481 q 718 161 765 247 q 591 33 672 76 q 409 -11 511 -11 m 413 102 q 557 174 508 101 q 605 377 605 247 q 585 523 605 458 q 525 628 566 589 q 419 669 483 668 q 276 601 324 671 q 228 401 228 531 q 248 253 228 320 q 308 144 267 185 q 413 102 349 103 z "},"p":{"ha":850,"x_min":113,"x_max":786,"o":"m 113 -343 l 113 774 l 258 774 l 258 679 l 272 663 l 272 64 l 271 32 l 272 -94 l 272 -343 l 113 -343 m 398 -11 q 278 7 326 -11 q 217 36 231 25 l 272 139 q 328 112 294 120 q 409 104 362 104 q 517 138 469 104 q 593 236 565 172 q 622 395 621 301 q 574 597 624 534 q 435 660 524 660 q 339 639 381 660 q 272 599 297 619 l 247 678 q 291 720 263 695 q 365 764 319 745 q 480 783 410 783 q 632 743 562 783 q 744 622 701 703 q 786 415 786 540 q 738 193 786 290 q 602 43 690 97 q 398 -11 515 -11 z "},"q":{"ha":850,"x_min":64,"x_max":739,"o":"m 579 -94 l 582 74 l 579 136 l 579 663 l 594 679 l 599 747 l 739 774 l 739 -343 l 579 -343 l 579 -94 m 370 -11 q 219 29 289 -11 q 107 151 149 69 q 64 359 64 233 q 113 580 64 485 q 248 730 161 676 q 453 783 335 783 q 581 766 524 783 q 649 738 637 749 l 579 635 q 523 660 558 653 q 441 667 488 667 q 334 635 382 667 q 258 538 287 602 q 229 378 230 473 q 276 178 227 242 q 415 115 326 115 q 512 135 469 115 q 579 174 556 156 l 604 95 q 560 53 588 78 q 486 8 532 28 q 370 -11 440 -11 z "},"r":{"ha":560,"x_min":106,"x_max":536,"o":"m 257 568 l 247 674 q 291 721 258 695 q 370 766 324 747 q 463 785 415 785 q 508 783 489 785 q 536 775 527 781 l 536 625 q 505 637 526 631 q 436 643 483 643 q 359 631 393 643 q 299 601 324 619 q 257 568 273 584 m 106 0 l 106 772 l 242 772 l 253 674 l 265 615 l 265 0 l 106 0 z "},"s":{"ha":667,"x_min":72,"x_max":600,"o":"m 72 46 l 94 164 q 138 143 105 156 q 217 120 171 131 q 313 108 263 109 q 414 131 379 108 q 449 197 449 155 q 428 249 449 227 q 370 291 407 272 q 288 331 334 310 q 177 392 225 359 q 102 471 129 426 q 76 579 76 516 q 116 693 78 648 q 219 761 155 739 q 361 783 283 783 q 489 768 434 783 q 561 743 544 753 l 538 622 q 499 643 525 633 q 439 659 473 653 q 369 665 405 665 q 263 645 299 665 q 225 588 226 624 q 260 512 224 537 q 346 463 296 487 q 475 394 417 428 q 566 317 533 360 q 600 210 600 274 q 526 45 600 101 q 322 -11 451 -11 q 218 -3 269 -11 q 130 19 168 6 q 72 46 91 32 z "},"t":{"ha":588,"x_min":50,"x_max":551,"o":"m 335 -11 q 238 6 280 -11 q 173 68 197 24 q 150 193 150 112 l 150 656 l 50 656 l 50 742 q 128 766 101 756 q 168 810 156 776 q 181 846 174 825 q 196 893 188 867 q 214 950 204 919 l 310 950 l 310 774 l 526 774 l 526 656 l 310 656 l 310 278 q 316 168 310 203 q 341 125 323 134 q 396 115 360 115 q 441 120 415 115 q 489 131 466 124 q 525 146 513 138 l 551 54 q 495 23 531 38 q 418 -1 460 8 q 335 -11 376 -11 z "},"u":{"ha":844,"x_min":101,"x_max":725,"o":"m 336 -11 q 214 13 260 -11 q 143 80 167 36 q 110 185 119 124 q 101 321 101 247 l 101 774 l 261 774 l 261 322 q 275 188 261 231 q 320 132 290 144 q 399 119 350 119 q 459 128 427 119 q 520 149 492 137 q 565 172 549 161 l 565 774 l 725 774 l 725 -11 l 651 -11 q 601 -2 619 -11 q 582 46 582 8 l 582 100 l 585 69 q 511 30 553 49 q 424 0 469 12 q 336 -11 378 -11 z "},"v":{"ha":764,"x_min":13,"x_max":751,"o":"m 317 -11 l 13 774 l 185 774 l 332 344 l 410 84 l 368 84 l 440 344 l 581 774 l 751 774 l 455 -11 l 317 -11 z "},"w":{"ha":1122,"x_min":14,"x_max":1108,"o":"m 250 -11 l 14 774 l 174 774 l 294 326 l 351 76 l 308 76 l 360 324 l 486 774 l 643 774 l 769 326 l 822 78 l 782 78 l 837 321 l 952 774 l 1108 774 l 872 -11 l 725 -11 l 589 478 l 547 686 l 580 686 l 535 478 l 401 -11 l 250 -11 z "},"x":{"ha":756,"x_min":14,"x_max":742,"o":"m 15 0 l 304 414 l 306 368 l 14 774 l 196 774 l 358 526 l 406 447 l 353 447 l 393 528 l 556 774 l 736 774 l 443 369 l 443 421 l 742 0 l 557 0 l 393 250 l 336 342 l 396 342 l 350 249 l 199 0 l 15 0 z "},"y":{"ha":765,"x_min":35,"x_max":758,"o":"m 96 -333 l 96 -203 q 130 -210 108 -207 q 164 -212 153 -212 q 233 -196 193 -212 q 311 -130 274 -180 q 368 19 348 -81 l 378 0 l 311 0 l 35 774 l 207 774 l 368 272 l 433 56 l 392 56 l 449 272 l 586 774 l 758 774 l 501 -24 q 392 -237 456 -163 q 254 -332 329 -311 q 216 -341 240 -337 q 176 -344 192 -344 q 149 -343 166 -344 q 116 -339 131 -341 q 96 -333 100 -336 z "},"z":{"ha":713,"x_min":42,"x_max":665,"o":"m 71 0 l 42 56 l 410 597 l 450 654 l 83 654 l 83 774 l 642 774 l 665 708 l 300 172 l 260 115 l 651 115 l 651 0 l 71 0 z "},"ß":{"ha":890,"x_min":35,"x_max":860,"o":"m 129 0 l 129 657 q 180 894 129 803 q 315 1028 230 985 q 506 1071 401 1071 q 641 1049 581 1071 q 736 984 701 1026 q 771 879 771 941 q 755 800 771 834 q 716 740 740 767 q 670 691 693 714 q 631 646 647 669 q 615 596 615 624 q 640 526 615 556 q 701 469 665 497 q 774 409 738 442 q 835 330 810 376 q 860 215 860 283 q 836 108 860 152 q 774 39 813 65 q 686 1 734 13 q 588 -11 638 -11 q 492 -4 535 -11 q 429 11 449 3 l 429 135 q 486 113 447 126 q 585 100 526 100 q 637 109 611 100 q 680 140 663 118 q 697 200 697 162 q 674 276 697 244 q 617 336 651 308 q 549 396 583 365 q 492 470 515 428 q 469 576 469 513 q 491 658 469 624 q 540 720 512 692 q 589 782 567 749 q 610 858 610 814 q 576 934 610 908 q 481 960 543 960 q 381 931 424 960 q 314 834 338 903 q 289 643 289 765 l 289 0 l 129 0 m 35 656 l 35 750 l 150 778 l 172 707 l 135 656 l 35 656 z "},"à":{"ha":776,"x_min":64,"x_max":669,"o":"m 303 -11 q 180 16 233 -11 q 95 94 126 44 q 64 213 64 144 q 104 339 64 288 q 211 420 144 391 q 308 449 256 438 q 412 464 360 460 q 508 469 464 469 l 542 426 l 508 370 q 443 366 481 370 q 369 355 406 363 q 306 334 332 347 q 247 293 271 318 q 224 224 224 268 q 256 135 224 165 q 352 106 288 106 q 418 115 385 106 q 476 138 451 125 q 508 159 501 150 l 540 125 l 517 65 q 429 13 487 38 q 303 -11 372 -11 m 669 0 l 517 0 l 517 115 l 508 115 l 508 542 q 473 632 508 610 q 371 653 437 653 q 281 645 327 653 q 195 623 234 636 q 135 597 156 610 l 98 713 q 159 740 114 722 q 266 771 205 757 q 386 785 326 785 q 536 765 473 785 q 634 691 600 745 q 669 533 669 636 l 669 0 m 441 935 l 375 873 q 317 911 354 883 q 240 976 281 939 q 164 1051 199 1013 q 111 1117 128 1089 l 212 1208 q 281 1118 242 1165 q 361 1024 320 1071 q 441 935 403 977 z "},"á":{"ha":776,"x_min":64,"x_max":669,"o":"m 303 -11 q 180 16 233 -11 q 95 94 126 44 q 64 213 64 144 q 104 339 64 288 q 211 420 144 391 q 308 449 256 438 q 412 464 360 460 q 508 469 464 469 l 542 426 l 508 370 q 443 366 481 370 q 369 355 406 363 q 306 334 332 347 q 247 293 271 318 q 224 224 224 268 q 256 135 224 165 q 352 106 288 106 q 418 115 385 106 q 476 138 451 125 q 508 159 501 150 l 540 125 l 517 65 q 429 13 487 38 q 303 -11 372 -11 m 669 0 l 517 0 l 517 115 l 508 115 l 508 542 q 473 632 508 610 q 371 653 437 653 q 281 645 327 653 q 195 623 234 636 q 135 597 156 610 l 98 713 q 159 740 114 722 q 266 771 205 757 q 386 785 326 785 q 536 765 473 785 q 634 691 600 745 q 669 533 669 636 l 669 0 m 338 873 l 265 933 q 345 1023 304 975 q 424 1120 385 1070 q 495 1219 463 1170 l 599 1133 q 564 1084 589 1114 q 507 1020 539 1054 q 442 955 475 987 q 381 901 408 924 q 338 873 353 879 z "},"â":{"ha":776,"x_min":64,"x_max":669,"o":"m 303 -11 q 180 16 233 -11 q 95 94 126 44 q 64 213 64 144 q 104 339 64 288 q 211 420 144 391 q 308 449 256 438 q 412 464 360 460 q 508 469 464 469 l 542 426 l 508 370 q 443 366 481 370 q 369 355 406 363 q 306 334 332 347 q 247 293 271 318 q 224 224 224 268 q 256 135 224 165 q 352 106 288 106 q 418 115 385 106 q 476 138 451 125 q 508 159 501 150 l 540 125 l 517 65 q 429 13 487 38 q 303 -11 372 -11 m 669 0 l 517 0 l 517 115 l 508 115 l 508 542 q 473 632 508 610 q 371 653 437 653 q 281 645 327 653 q 195 623 234 636 q 135 597 156 610 l 98 713 q 159 740 114 722 q 266 771 205 757 q 386 785 326 785 q 536 765 473 785 q 634 691 600 745 q 669 533 669 636 l 669 0 m 201 862 l 124 903 l 319 1141 l 444 1141 l 633 903 l 549 863 l 378 1012 l 201 862 z "},"ã":{"ha":776,"x_min":64,"x_max":669,"o":"m 303 -11 q 180 16 233 -11 q 95 94 126 44 q 64 213 64 144 q 104 339 64 288 q 211 420 144 391 q 308 449 256 438 q 412 464 360 460 q 508 469 464 469 l 542 426 l 508 370 q 443 366 481 370 q 369 355 406 363 q 306 334 332 347 q 247 293 271 318 q 224 224 224 268 q 256 135 224 165 q 352 106 288 106 q 418 115 385 106 q 476 138 451 125 q 508 159 501 150 l 540 125 l 517 65 q 429 13 487 38 q 303 -11 372 -11 m 669 0 l 517 0 l 517 115 l 508 115 l 508 542 q 473 632 508 610 q 371 653 437 653 q 281 645 327 653 q 195 623 234 636 q 135 597 156 610 l 98 713 q 159 740 114 722 q 266 771 205 757 q 386 785 326 785 q 536 765 473 785 q 634 691 600 745 q 669 533 669 636 l 669 0 m 469 897 q 407 911 432 897 q 364 945 383 926 q 328 978 346 964 q 287 993 310 993 q 240 985 258 993 q 210 963 222 976 q 191 931 199 949 l 128 963 q 161 1033 141 999 q 211 1088 181 1066 q 288 1110 242 1110 q 349 1095 324 1110 q 391 1062 373 1081 q 428 1029 410 1043 q 469 1015 446 1015 q 513 1023 494 1015 q 543 1044 531 1031 q 563 1076 555 1058 l 628 1040 q 597 968 619 1000 q 542 916 575 935 q 469 897 510 897 z "},"ä":{"ha":776,"x_min":64,"x_max":669,"o":"m 303 -11 q 180 16 233 -11 q 95 94 126 44 q 64 213 64 144 q 104 339 64 288 q 211 420 144 391 q 308 449 256 438 q 412 464 360 460 q 508 469 464 469 l 542 426 l 508 370 q 443 366 481 370 q 369 355 406 363 q 306 334 332 347 q 247 293 271 318 q 224 224 224 268 q 256 135 224 165 q 352 106 288 106 q 418 115 385 106 q 476 138 451 125 q 508 159 501 150 l 540 125 l 517 65 q 429 13 487 38 q 303 -11 372 -11 m 669 0 l 517 0 l 517 115 l 508 115 l 508 542 q 473 632 508 610 q 371 653 437 653 q 281 645 327 653 q 195 623 234 636 q 135 597 156 610 l 98 713 q 159 740 114 722 q 266 771 205 757 q 386 785 326 785 q 536 765 473 785 q 634 691 600 745 q 669 533 669 636 l 669 0 m 215 904 q 149 929 176 904 q 122 997 122 954 q 156 1072 122 1041 q 231 1102 190 1102 q 300 1075 278 1102 q 322 1009 322 1048 q 290 933 322 963 q 215 904 258 904 m 528 904 q 463 929 490 904 q 435 997 435 954 q 469 1072 435 1041 q 544 1102 503 1102 q 614 1075 592 1102 q 636 1009 636 1048 q 604 933 636 963 q 528 904 572 904 z "},"å":{"ha":776,"x_min":64,"x_max":669,"o":"m 303 -11 q 180 16 233 -11 q 95 94 126 44 q 64 213 64 144 q 104 339 64 288 q 211 420 144 391 q 308 449 256 438 q 412 464 360 460 q 508 469 464 469 l 542 426 l 508 370 q 443 366 481 370 q 369 355 406 363 q 306 334 332 347 q 247 293 271 318 q 224 224 224 268 q 256 135 224 165 q 352 106 288 106 q 418 115 385 106 q 476 138 451 125 q 508 159 501 150 l 540 125 l 517 65 q 429 13 487 38 q 303 -11 372 -11 m 669 0 l 517 0 l 517 115 l 508 115 l 508 542 q 473 632 508 610 q 371 653 437 653 q 281 645 327 653 q 195 623 234 636 q 135 597 156 610 l 98 713 q 159 740 114 722 q 266 771 205 757 q 386 785 326 785 q 536 765 473 785 q 634 691 600 745 q 669 533 669 636 l 669 0 m 376 899 q 216 951 276 899 q 158 1090 157 1003 q 191 1195 158 1156 q 274 1254 224 1235 q 378 1272 324 1272 q 540 1225 478 1272 q 599 1089 601 1178 q 567 982 599 1024 q 485 919 536 940 q 376 899 435 899 m 376 988 q 458 1010 426 987 q 490 1088 490 1033 q 457 1160 490 1135 q 376 1185 424 1185 q 324 1177 349 1185 q 283 1148 299 1168 q 267 1090 267 1127 q 296 1017 267 1045 q 376 988 326 989 z "},"æ":{"ha":1215,"x_min":65,"x_max":1150,"o":"m 858 -11 q 601 91 692 -11 q 511 388 511 193 q 551 589 511 500 q 669 730 591 678 q 861 783 747 782 q 971 767 919 785 q 1061 713 1022 749 q 1124 620 1101 676 q 1150 490 1148 565 q 1149 412 1150 447 q 1142 351 1148 377 l 606 351 l 618 453 l 1000 453 q 993 559 1003 509 q 950 639 983 608 q 853 670 917 670 q 756 640 799 670 q 690 538 713 610 q 670 342 667 466 q 705 202 674 252 q 787 131 736 151 q 900 110 838 110 q 965 116 926 110 q 1040 131 1003 122 q 1096 152 1076 140 l 1125 60 q 1056 23 1100 39 q 960 -2 1012 7 q 858 -11 908 -11 m 65 210 q 107 338 65 285 q 214 419 149 390 q 358 458 280 447 q 510 469 436 469 l 542 426 l 512 370 q 401 361 456 370 q 308 334 346 352 q 250 293 273 318 q 226 222 226 268 q 257 135 226 165 q 351 106 288 106 q 429 118 389 106 q 502 152 469 131 q 550 201 535 174 l 582 175 l 603 131 q 471 22 547 55 q 308 -11 394 -11 q 184 15 240 -11 q 97 91 129 41 q 65 210 65 140 m 142 606 l 103 713 q 165 739 118 721 q 274 771 211 756 q 400 785 337 785 q 537 765 481 785 q 623 691 594 745 q 653 533 653 636 l 653 403 l 510 403 l 510 540 q 494 619 510 593 q 445 655 478 646 q 360 664 412 664 q 282 655 326 664 q 200 632 238 645 q 142 606 161 619 z "},"ç":{"ha":678,"x_min":56,"x_max":636,"o":"m 56 378 q 97 584 56 492 q 222 730 139 676 q 431 783 306 783 q 554 770 503 783 q 624 744 605 757 l 599 618 q 528 648 569 638 q 429 658 488 658 q 328 633 377 658 q 247 552 280 608 q 211 406 215 497 q 236 244 208 310 q 314 145 265 178 q 425 111 364 111 q 532 126 483 111 q 606 156 581 140 l 636 63 q 536 9 601 29 q 399 -11 472 -11 q 212 40 288 -11 q 95 180 135 92 q 56 378 56 267 m 144 -296 l 154 -197 q 179 -204 164 -202 q 210 -206 194 -206 q 276 -182 251 -206 q 301 -104 301 -159 q 297 -29 303 -59 q 281 21 290 1 l 343 24 l 374 21 q 396 -20 388 5 q 409 -78 405 -46 q 413 -147 413 -110 q 388 -243 413 -206 q 326 -298 364 -280 q 249 -315 288 -315 q 208 -313 229 -315 q 169 -306 187 -310 q 144 -296 152 -301 z "},"è":{"ha":775,"x_min":68,"x_max":707,"o":"m 415 -11 q 158 94 249 -11 q 68 388 68 200 q 108 589 68 500 q 226 730 148 678 q 418 783 304 782 q 528 767 476 785 q 619 712 579 749 q 682 620 658 676 q 707 490 705 565 q 706 412 707 447 q 700 351 706 378 l 161 351 l 175 453 l 557 453 q 550 558 560 508 q 507 639 540 608 q 410 669 474 669 q 313 639 356 669 q 246 538 269 609 q 226 342 222 466 q 262 203 231 254 q 344 131 293 153 q 457 110 394 110 q 522 116 483 110 q 595 131 560 122 q 650 151 631 140 l 681 60 q 611 23 655 39 q 515 -2 567 7 q 415 -11 464 -11 m 475 935 l 409 873 q 351 911 388 883 q 274 976 315 939 q 198 1051 233 1013 q 145 1117 163 1089 l 246 1208 q 315 1118 276 1165 q 395 1024 354 1071 q 475 935 437 977 z "},"é":{"ha":775,"x_min":68,"x_max":707,"o":"m 415 -11 q 158 94 249 -11 q 68 388 68 200 q 108 589 68 500 q 226 730 148 678 q 418 783 304 782 q 528 767 476 785 q 619 712 579 749 q 682 620 658 676 q 707 490 705 565 q 706 412 707 447 q 700 351 706 378 l 161 351 l 175 453 l 557 453 q 550 558 560 508 q 507 639 540 608 q 410 669 474 669 q 313 639 356 669 q 246 538 269 609 q 226 342 222 466 q 262 203 231 254 q 344 131 293 153 q 457 110 394 110 q 522 116 483 110 q 595 131 560 122 q 650 151 631 140 l 681 60 q 611 23 655 39 q 515 -2 567 7 q 415 -11 464 -11 m 372 873 l 299 933 q 379 1023 338 975 q 458 1120 419 1070 q 529 1219 497 1170 l 633 1133 q 598 1084 623 1114 q 541 1020 573 1054 q 476 955 509 987 q 415 901 442 924 q 372 873 388 879 z "},"ê":{"ha":775,"x_min":68,"x_max":707,"o":"m 415 -11 q 158 94 249 -11 q 68 388 68 200 q 108 589 68 500 q 226 730 148 678 q 418 783 304 782 q 528 767 476 785 q 619 712 579 749 q 682 620 658 676 q 707 490 705 565 q 706 412 707 447 q 700 351 706 378 l 161 351 l 175 453 l 557 453 q 550 558 560 508 q 507 639 540 608 q 410 669 474 669 q 313 639 356 669 q 246 538 269 609 q 226 342 222 466 q 262 203 231 254 q 344 131 293 153 q 457 110 394 110 q 522 116 483 110 q 595 131 560 122 q 650 151 631 140 l 681 60 q 611 23 655 39 q 515 -2 567 7 q 415 -11 464 -11 m 235 862 l 158 903 l 353 1141 l 478 1141 l 667 903 l 583 863 l 413 1012 l 235 862 z "},"ë":{"ha":775,"x_min":68,"x_max":707,"o":"m 415 -11 q 158 94 249 -11 q 68 388 68 200 q 108 589 68 500 q 226 730 148 678 q 418 783 304 782 q 528 767 476 785 q 619 712 579 749 q 682 620 658 676 q 707 490 705 565 q 706 412 707 447 q 700 351 706 378 l 161 351 l 175 453 l 557 453 q 550 558 560 508 q 507 639 540 608 q 410 669 474 669 q 313 639 356 669 q 246 538 269 609 q 226 342 222 466 q 262 203 231 254 q 344 131 293 153 q 457 110 394 110 q 522 116 483 110 q 595 131 560 122 q 650 151 631 140 l 681 60 q 611 23 655 39 q 515 -2 567 7 q 415 -11 464 -11 m 249 904 q 183 929 210 904 q 156 997 156 954 q 190 1072 156 1041 q 265 1102 224 1102 q 334 1075 312 1102 q 356 1009 356 1048 q 324 933 356 963 q 249 904 292 904 m 563 904 q 497 929 524 904 q 469 997 469 954 q 503 1072 469 1041 q 578 1102 538 1102 q 648 1075 626 1102 q 670 1009 670 1048 q 638 933 670 963 q 563 904 606 904 z "},"ì":{"ha":410,"x_min":-63,"x_max":285,"o":"m 125 0 l 125 772 l 285 772 l 285 0 l 125 0 m 267 935 l 201 873 q 143 911 180 883 q 65 976 106 939 q -11 1051 24 1013 q -63 1117 -46 1089 l 38 1208 q 107 1118 68 1165 q 187 1024 146 1071 q 267 935 228 977 z "},"í":{"ha":410,"x_min":91,"x_max":425,"o":"m 125 0 l 125 772 l 285 772 l 285 0 l 125 0 m 164 873 l 91 933 q 170 1023 130 975 q 250 1120 211 1070 q 321 1219 289 1170 l 425 1133 q 390 1084 415 1114 q 333 1020 365 1054 q 267 955 301 987 q 207 901 234 924 q 164 873 179 879 z "},"î":{"ha":410,"x_min":-50,"x_max":458,"o":"m 125 0 l 125 772 l 285 772 l 285 0 l 125 0 m 26 862 l -50 903 l 144 1141 l 270 1141 l 458 903 l 375 863 l 204 1012 l 26 862 z "},"ï":{"ha":410,"x_min":-53,"x_max":462,"o":"m 125 0 l 125 772 l 285 772 l 285 0 l 125 0 m 40 904 q -26 929 1 904 q -53 997 -53 954 q -18 1072 -53 1041 q 56 1102 16 1102 q 126 1075 103 1102 q 148 1009 148 1048 q 116 933 148 963 q 40 904 83 904 m 354 904 q 289 929 316 904 q 261 997 261 954 q 295 1072 261 1041 q 370 1102 329 1102 q 440 1075 418 1102 q 462 1009 462 1048 q 430 933 462 963 q 354 904 397 904 z "},"ð":{"ha":819,"x_min":64,"x_max":767,"o":"m 417 -18 q 230 29 310 -19 q 107 166 151 77 q 64 375 64 255 q 107 593 64 501 q 230 733 151 684 q 413 781 308 782 q 522 756 476 781 q 597 692 568 731 q 635 608 625 652 l 579 638 q 504 840 564 749 q 361 994 444 931 q 345 1007 353 1000 q 329 1018 337 1013 q 242 1072 288 1048 q 150 1113 197 1097 l 186 1203 q 309 1156 252 1183 q 417 1094 366 1128 q 438 1080 426 1088 q 458 1066 449 1072 q 625 895 556 995 q 731 675 694 796 q 767 417 767 553 q 723 176 767 273 q 600 32 678 80 q 417 -18 521 -17 m 423 94 q 520 129 478 94 q 584 227 561 163 q 607 378 607 291 q 607 443 607 412 q 607 507 608 475 q 603 572 606 539 q 551 633 594 603 q 422 664 508 664 q 274 585 323 664 q 225 379 225 506 q 275 174 225 253 q 423 94 325 94 m 288 881 l 206 943 l 320 1071 l 338 1092 q 370 1126 351 1103 q 410 1173 390 1149 q 444 1215 431 1198 q 458 1233 458 1233 l 542 1170 q 528 1154 542 1170 q 493 1114 514 1138 q 451 1067 473 1090 q 415 1032 430 1044 l 399 1008 l 288 881 z "},"ñ":{"ha":876,"x_min":119,"x_max":763,"o":"m 119 0 l 119 772 l 263 772 l 264 690 q 336 731 292 710 q 430 768 379 753 q 530 785 480 783 q 708 720 654 788 q 763 483 763 653 l 763 0 l 601 0 l 601 474 q 575 614 601 572 q 463 651 549 656 q 407 643 438 651 q 342 620 375 635 q 279 582 309 605 l 279 0 l 119 0 m 536 897 q 474 911 499 897 q 431 945 449 926 q 394 978 413 964 q 353 993 376 993 q 306 985 324 993 q 277 963 288 976 q 258 931 266 949 l 195 963 q 227 1033 208 999 q 278 1088 247 1066 q 355 1110 309 1110 q 415 1095 391 1110 q 458 1062 440 1081 q 494 1029 476 1043 q 535 1015 513 1015 q 579 1023 561 1015 q 609 1044 597 1031 q 629 1076 622 1058 l 694 1040 q 664 968 686 1000 q 609 916 642 935 q 536 897 576 897 z "},"ò":{"ha":832,"x_min":64,"x_max":769,"o":"m 409 -11 q 249 22 315 -11 q 142 113 183 56 q 82 245 101 171 q 65 403 64 320 q 114 612 67 527 q 242 740 161 697 q 423 783 322 783 q 625 726 549 783 q 735 575 701 669 q 767 371 769 481 q 718 161 765 247 q 591 33 672 76 q 409 -11 511 -11 m 413 102 q 557 174 508 101 q 605 377 605 247 q 585 523 605 458 q 525 628 566 589 q 419 669 483 668 q 276 601 324 671 q 228 401 228 531 q 248 253 228 320 q 308 144 267 185 q 413 102 349 103 m 485 935 l 419 873 q 362 911 399 883 q 284 976 325 939 q 208 1051 243 1013 q 156 1117 173 1089 l 256 1208 q 326 1118 287 1165 q 406 1024 365 1071 q 485 935 447 977 z "},"ó":{"ha":832,"x_min":64,"x_max":769,"o":"m 409 -11 q 249 22 315 -11 q 142 113 183 56 q 82 245 101 171 q 65 403 64 320 q 114 612 67 527 q 242 740 161 697 q 423 783 322 783 q 625 726 549 783 q 735 575 701 669 q 767 371 769 481 q 718 161 765 247 q 591 33 672 76 q 409 -11 511 -11 m 413 102 q 557 174 508 101 q 605 377 605 247 q 585 523 605 458 q 525 628 566 589 q 419 669 483 668 q 276 601 324 671 q 228 401 228 531 q 248 253 228 320 q 308 144 267 185 q 413 102 349 103 m 383 873 l 310 933 q 389 1023 349 975 q 469 1120 430 1070 q 540 1219 508 1170 l 644 1133 q 608 1084 633 1114 q 551 1020 583 1054 q 486 955 519 987 q 425 901 453 924 q 383 873 398 879 z "},"ô":{"ha":832,"x_min":64,"x_max":769,"o":"m 409 -11 q 249 22 315 -11 q 142 113 183 56 q 82 245 101 171 q 65 403 64 320 q 114 612 67 527 q 242 740 161 697 q 423 783 322 783 q 625 726 549 783 q 735 575 701 669 q 767 371 769 481 q 718 161 765 247 q 591 33 672 76 q 409 -11 511 -11 m 413 102 q 557 174 508 101 q 605 377 605 247 q 585 523 605 458 q 525 628 566 589 q 419 669 483 668 q 276 601 324 671 q 228 401 228 531 q 248 253 228 320 q 308 144 267 185 q 413 102 349 103 m 245 862 l 169 903 l 363 1141 l 489 1141 l 677 903 l 594 863 l 423 1012 l 245 862 z "},"õ":{"ha":832,"x_min":64,"x_max":769,"o":"m 409 -11 q 249 22 315 -11 q 142 113 183 56 q 82 245 101 171 q 65 403 64 320 q 114 612 67 527 q 242 740 161 697 q 423 783 322 783 q 625 726 549 783 q 735 575 701 669 q 767 371 769 481 q 718 161 765 247 q 591 33 672 76 q 409 -11 511 -11 m 413 102 q 557 174 508 101 q 605 377 605 247 q 585 523 605 458 q 525 628 566 589 q 419 669 483 668 q 276 601 324 671 q 228 401 228 531 q 248 253 228 320 q 308 144 267 185 q 413 102 349 103 m 514 897 q 452 911 476 897 q 409 945 427 926 q 372 978 390 964 q 331 993 354 993 q 284 985 302 993 q 255 963 266 976 q 235 931 244 949 l 173 963 q 205 1033 185 999 q 256 1088 225 1066 q 333 1110 287 1110 q 393 1095 369 1110 q 436 1062 417 1081 q 472 1029 454 1043 q 513 1015 490 1015 q 557 1023 539 1015 q 587 1044 575 1031 q 607 1076 599 1058 l 672 1040 q 642 968 664 1000 q 587 916 619 935 q 514 897 554 897 z "},"ö":{"ha":832,"x_min":64,"x_max":769,"o":"m 409 -11 q 249 22 315 -11 q 142 113 183 56 q 82 245 101 171 q 65 403 64 320 q 114 612 67 527 q 242 740 161 697 q 423 783 322 783 q 625 726 549 783 q 735 575 701 669 q 767 371 769 481 q 718 161 765 247 q 591 33 672 76 q 409 -11 511 -11 m 413 102 q 557 174 508 101 q 605 377 605 247 q 585 523 605 458 q 525 628 566 589 q 419 669 483 668 q 276 601 324 671 q 228 401 228 531 q 248 253 228 320 q 308 144 267 185 q 413 102 349 103 m 259 904 q 193 929 220 904 q 166 997 166 954 q 200 1072 166 1041 q 275 1102 235 1102 q 344 1075 322 1102 q 367 1009 367 1048 q 334 933 367 963 q 259 904 302 904 m 573 904 q 507 929 535 904 q 480 997 480 954 q 514 1072 480 1041 q 589 1102 548 1102 q 659 1075 637 1102 q 681 1009 681 1048 q 648 933 681 963 q 573 904 616 904 z "},"ø":{"ha":833,"x_min":65,"x_max":769,"o":"m 199 -114 l 551 913 l 635 890 l 283 -138 l 199 -114 m 410 -11 q 249 22 315 -11 q 142 113 183 56 q 83 245 101 171 q 65 403 65 320 q 114 612 67 527 q 242 740 161 697 q 424 783 322 783 q 626 726 550 783 q 736 575 702 669 q 768 371 769 481 q 719 161 766 247 q 592 33 672 76 q 410 -11 512 -11 m 414 102 q 557 174 509 101 q 606 377 606 247 q 586 523 606 458 q 525 628 567 589 q 419 669 484 668 q 277 601 325 671 q 228 401 228 531 q 248 253 228 320 q 309 144 268 185 q 414 102 350 103 z "},"ù":{"ha":844,"x_min":101,"x_max":725,"o":"m 336 -11 q 214 13 260 -11 q 143 80 167 36 q 110 185 119 124 q 101 321 101 247 l 101 774 l 261 774 l 261 322 q 275 188 261 231 q 320 132 290 144 q 399 119 350 119 q 459 128 427 119 q 520 149 492 137 q 565 172 549 161 l 565 774 l 725 774 l 725 -11 l 651 -11 q 601 -2 619 -11 q 582 46 582 8 l 582 100 l 585 69 q 511 30 553 49 q 424 0 469 12 q 336 -11 378 -11 m 482 935 l 416 873 q 358 911 395 883 q 281 976 322 939 q 205 1051 240 1013 q 152 1117 169 1089 l 253 1208 q 322 1118 283 1165 q 402 1024 361 1071 q 482 935 444 977 z "},"ú":{"ha":844,"x_min":101,"x_max":725,"o":"m 336 -11 q 214 13 260 -11 q 143 80 167 36 q 110 185 119 124 q 101 321 101 247 l 101 774 l 261 774 l 261 322 q 275 188 261 231 q 320 132 290 144 q 399 119 350 119 q 459 128 427 119 q 520 149 492 137 q 565 172 549 161 l 565 774 l 725 774 l 725 -11 l 651 -11 q 601 -2 619 -11 q 582 46 582 8 l 582 100 l 585 69 q 511 30 553 49 q 424 0 469 12 q 336 -11 378 -11 m 379 873 l 306 933 q 386 1023 345 975 q 465 1120 426 1070 q 536 1219 504 1170 l 640 1133 q 605 1084 630 1114 q 548 1020 580 1054 q 483 955 516 987 q 422 901 449 924 q 379 873 394 879 z "},"û":{"ha":844,"x_min":101,"x_max":725,"o":"m 336 -11 q 214 13 260 -11 q 143 80 167 36 q 110 185 119 124 q 101 321 101 247 l 101 774 l 261 774 l 261 322 q 275 188 261 231 q 320 132 290 144 q 399 119 350 119 q 459 128 427 119 q 520 149 492 137 q 565 172 549 161 l 565 774 l 725 774 l 725 -11 l 651 -11 q 601 -2 619 -11 q 582 46 582 8 l 582 100 l 585 69 q 511 30 553 49 q 424 0 469 12 q 336 -11 378 -11 m 242 862 l 165 903 l 360 1141 l 485 1141 l 674 903 l 590 863 l 419 1012 l 242 862 z "},"ü":{"ha":844,"x_min":101,"x_max":725,"o":"m 336 -11 q 214 13 260 -11 q 143 80 167 36 q 110 185 119 124 q 101 321 101 247 l 101 774 l 261 774 l 261 322 q 275 188 261 231 q 320 132 290 144 q 399 119 350 119 q 459 128 427 119 q 520 149 492 137 q 565 172 549 161 l 565 774 l 725 774 l 725 -11 l 651 -11 q 601 -2 619 -11 q 582 46 582 8 l 582 100 l 585 69 q 511 30 553 49 q 424 0 469 12 q 336 -11 378 -11 m 256 904 q 190 929 217 904 q 163 997 163 954 q 197 1072 163 1041 q 272 1102 231 1102 q 341 1075 319 1102 q 363 1009 363 1048 q 331 933 363 963 q 256 904 299 904 m 569 904 q 504 929 531 904 q 476 997 476 954 q 510 1072 476 1041 q 585 1102 544 1102 q 655 1075 633 1102 q 677 1009 677 1048 q 645 933 677 963 q 569 904 613 904 z "},"ý":{"ha":765,"x_min":35,"x_max":758,"o":"m 96 -333 l 96 -203 q 130 -210 108 -207 q 164 -212 153 -212 q 233 -196 193 -212 q 311 -130 274 -180 q 368 19 348 -81 l 378 0 l 311 0 l 35 774 l 207 774 l 368 272 l 433 56 l 392 56 l 449 272 l 586 774 l 758 774 l 501 -24 q 392 -237 456 -163 q 254 -332 329 -311 q 216 -341 240 -337 q 176 -344 192 -344 q 149 -343 166 -344 q 116 -339 131 -341 q 96 -333 100 -336 m 371 873 l 298 933 q 377 1023 337 975 q 457 1120 418 1070 q 528 1219 496 1170 l 632 1133 q 597 1084 622 1114 q 540 1020 572 1054 q 474 955 508 987 q 414 901 441 924 q 371 873 386 879 z "},"þ":{"ha":863,"x_min":119,"x_max":799,"o":"m 119 43 l 272 13 l 280 -115 l 280 -344 l 119 -344 l 119 43 m 125 1126 l 285 1126 l 285 811 l 279 675 l 285 671 l 285 114 l 125 43 l 125 1126 m 406 -12 q 318 -7 363 -12 q 233 8 274 -1 q 164 27 193 17 q 125 43 135 36 l 285 131 q 338 110 303 117 q 422 103 372 103 q 530 136 482 103 q 605 235 577 170 q 635 396 633 301 q 587 597 636 533 q 449 660 538 660 q 352 639 394 660 q 285 600 310 619 l 260 679 q 303 720 276 696 q 377 764 331 745 q 493 783 423 783 q 644 743 575 783 q 756 622 714 703 q 799 415 799 540 q 750 193 799 290 q 612 42 701 97 q 406 -12 524 -12 z "},"ÿ":{"ha":765,"x_min":35,"x_max":758,"o":"m 96 -333 l 96 -203 q 130 -210 108 -207 q 164 -212 153 -212 q 233 -196 193 -212 q 311 -130 274 -180 q 368 19 348 -81 l 378 0 l 311 0 l 35 774 l 207 774 l 368 272 l 433 56 l 392 56 l 449 272 l 586 774 l 758 774 l 501 -24 q 392 -237 456 -163 q 254 -332 329 -311 q 216 -341 240 -337 q 176 -344 192 -344 q 149 -343 166 -344 q 116 -339 131 -341 q 96 -333 100 -336 m 247 904 q 181 929 208 904 q 154 997 154 954 q 189 1072 154 1041 q 263 1102 223 1102 q 333 1075 310 1102 q 355 1009 355 1048 q 323 933 355 963 q 247 904 290 904 m 561 904 q 495 929 523 904 q 468 997 468 954 q 502 1072 468 1041 q 577 1102 536 1102 q 647 1075 625 1102 q 669 1009 669 1048 q 636 933 669 963 q 561 904 604 904 z "},"ā":{"ha":776,"x_min":64,"x_max":669,"o":"m 303 -11 q 180 16 233 -11 q 95 94 126 44 q 64 213 64 144 q 104 339 64 288 q 211 420 144 391 q 308 449 256 438 q 412 464 360 460 q 508 469 464 469 l 542 426 l 508 370 q 443 366 481 370 q 369 355 406 363 q 306 334 332 347 q 247 293 271 318 q 224 224 224 268 q 256 135 224 165 q 352 106 288 106 q 418 115 385 106 q 476 138 451 125 q 508 159 501 150 l 540 125 l 517 65 q 429 13 487 38 q 303 -11 372 -11 m 669 0 l 517 0 l 517 115 l 508 115 l 508 542 q 473 632 508 610 q 371 653 437 653 q 281 645 327 653 q 195 623 234 636 q 135 597 156 610 l 98 713 q 159 740 114 722 q 266 771 205 757 q 386 785 326 785 q 536 765 473 785 q 634 691 600 745 q 669 533 669 636 l 669 0 m 191 917 l 191 1032 l 568 1032 l 568 917 l 191 917 z "},"ă":{"ha":776,"x_min":64,"x_max":669,"o":"m 303 -11 q 180 16 233 -11 q 95 94 126 44 q 64 213 64 144 q 104 339 64 288 q 211 420 144 391 q 308 449 256 438 q 412 464 360 460 q 508 469 464 469 l 542 426 l 508 370 q 443 366 481 370 q 369 355 406 363 q 306 334 332 347 q 247 293 271 318 q 224 224 224 268 q 256 135 224 165 q 352 106 288 106 q 418 115 385 106 q 476 138 451 125 q 508 159 501 150 l 540 125 l 517 65 q 429 13 487 38 q 303 -11 372 -11 m 669 0 l 517 0 l 517 115 l 508 115 l 508 542 q 473 632 508 610 q 371 653 437 653 q 281 645 327 653 q 195 623 234 636 q 135 597 156 610 l 98 713 q 159 740 114 722 q 266 771 205 757 q 386 785 326 785 q 536 765 473 785 q 634 691 600 745 q 669 533 669 636 l 669 0 m 378 886 q 247 923 301 886 q 166 1018 192 960 q 144 1143 139 1077 l 253 1143 q 257 1114 254 1135 q 270 1068 259 1092 q 307 1026 281 1044 q 380 1008 333 1008 q 452 1026 426 1008 q 490 1068 478 1044 q 504 1114 501 1092 q 508 1143 507 1135 l 615 1143 q 591 1018 619 1077 q 508 923 563 960 q 378 886 453 886 z "},"ą":{"ha":776,"x_min":64,"x_max":686,"o":"m 303 -11 q 180 16 233 -11 q 95 94 126 44 q 64 213 64 144 q 104 339 64 288 q 211 420 144 391 q 308 449 256 438 q 412 464 360 460 q 508 469 464 469 l 542 426 l 508 370 q 443 366 481 370 q 369 355 406 363 q 306 334 332 347 q 247 293 271 318 q 224 224 224 268 q 256 135 224 165 q 352 106 288 106 q 418 115 385 106 q 476 138 451 125 q 508 159 501 150 l 540 125 l 517 65 q 429 13 487 38 q 303 -11 372 -11 m 669 0 l 517 0 l 517 115 l 508 115 l 508 542 q 473 632 508 610 q 371 653 437 653 q 281 645 327 653 q 195 623 234 636 q 135 597 156 610 l 98 713 q 159 740 114 722 q 266 771 205 757 q 386 785 326 785 q 536 765 473 785 q 634 691 600 745 q 669 533 669 636 l 669 0 m 497 -347 q 415 -331 454 -347 q 352 -283 376 -315 q 326 -207 327 -252 q 348 -130 326 -169 q 410 -57 369 -91 q 503 0 450 -23 l 551 20 l 631 0 q 554 -47 592 -17 q 490 -110 515 -76 q 465 -176 465 -144 q 487 -229 465 -212 q 551 -246 509 -246 q 622 -233 587 -246 q 675 -214 658 -221 l 686 -297 q 613 -331 659 -314 q 497 -347 566 -347 z "},"ć":{"ha":678,"x_min":56,"x_max":636,"o":"m 56 378 q 97 584 56 492 q 222 730 139 676 q 431 783 306 783 q 554 770 503 783 q 624 744 605 757 l 599 618 q 528 648 569 638 q 429 658 488 658 q 328 633 377 658 q 247 552 280 608 q 211 406 215 497 q 236 244 208 310 q 314 145 265 178 q 425 111 364 111 q 532 126 483 111 q 606 156 581 140 l 636 63 q 536 9 601 29 q 399 -11 472 -11 q 212 40 288 -11 q 95 180 135 92 q 56 378 56 267 m 368 873 l 295 933 q 375 1023 334 975 q 454 1120 415 1070 q 525 1219 493 1170 l 629 1133 q 594 1084 619 1114 q 537 1020 569 1054 q 472 955 505 987 q 411 901 438 924 q 368 873 383 879 z "},"ĉ":{"ha":678,"x_min":56,"x_max":663,"o":"m 56 378 q 97 584 56 492 q 222 730 139 676 q 431 783 306 783 q 554 770 503 783 q 624 744 605 757 l 599 618 q 528 648 569 638 q 429 658 488 658 q 328 633 377 658 q 247 552 280 608 q 211 406 215 497 q 236 244 208 310 q 314 145 265 178 q 425 111 364 111 q 532 126 483 111 q 606 156 581 140 l 636 63 q 536 9 601 29 q 399 -11 472 -11 q 212 40 288 -11 q 95 180 135 92 q 56 378 56 267 m 231 862 l 154 903 l 349 1141 l 474 1141 l 663 903 l 579 863 l 408 1012 l 231 862 z "},"ċ":{"ha":678,"x_min":56,"x_max":636,"o":"m 56 378 q 97 584 56 492 q 222 730 139 676 q 431 783 306 783 q 554 770 503 783 q 624 744 605 757 l 599 618 q 528 648 569 638 q 429 658 488 658 q 328 633 377 658 q 247 552 280 608 q 211 406 215 497 q 236 244 208 310 q 314 145 265 178 q 425 111 364 111 q 532 126 483 111 q 606 156 581 140 l 636 63 q 536 9 601 29 q 399 -11 472 -11 q 212 40 288 -11 q 95 180 135 92 q 56 378 56 267 m 401 899 q 331 924 361 899 q 301 994 301 950 q 318 1050 301 1025 q 361 1089 335 1074 q 416 1104 388 1104 q 490 1076 465 1104 q 515 1008 515 1049 q 481 930 515 960 q 401 899 447 899 z "},"č":{"ha":678,"x_min":56,"x_max":662,"o":"m 56 378 q 97 584 56 492 q 222 730 139 676 q 431 783 306 783 q 554 770 503 783 q 624 744 605 757 l 599 618 q 528 648 569 638 q 429 658 488 658 q 328 633 377 658 q 247 552 280 608 q 211 406 215 497 q 236 244 208 310 q 314 145 265 178 q 425 111 364 111 q 532 126 483 111 q 606 156 581 140 l 636 63 q 536 9 601 29 q 399 -11 472 -11 q 212 40 288 -11 q 95 180 135 92 q 56 378 56 267 m 153 1125 l 241 1167 l 410 1012 l 567 1167 l 662 1124 l 478 894 l 342 894 l 153 1125 z "},"ď":{"ha":864,"x_min":64,"x_max":961,"o":"m 586 0 l 586 103 l 578 107 l 578 654 l 583 658 l 578 811 l 578 1129 l 738 1129 l 738 0 l 586 0 m 370 -11 q 219 29 289 -11 q 107 151 149 69 q 64 359 64 233 q 113 580 64 485 q 248 730 161 676 q 453 783 335 783 q 573 766 524 783 q 635 738 622 749 l 578 635 q 523 660 557 653 q 441 667 488 667 q 334 635 382 667 q 258 538 287 602 q 229 378 230 473 q 276 178 227 242 q 415 115 326 115 q 511 135 469 115 q 578 174 554 156 l 604 95 q 560 53 588 78 q 486 8 532 28 q 370 -11 440 -11 m 917 838 l 821 838 l 817 846 q 823 909 820 874 q 825 982 825 944 q 822 1053 825 1022 q 810 1101 818 1084 l 817 1125 l 949 1125 q 959 1080 956 1103 q 961 1024 961 1057 q 956 969 961 1006 q 940 896 950 933 q 917 838 930 859 z "},"đ":{"ha":851,"x_min":64,"x_max":833,"o":"m 401 885 l 401 985 l 833 985 l 833 885 l 401 885 m 586 0 l 586 103 l 578 107 l 578 654 l 583 658 l 578 811 l 578 1129 l 738 1129 l 738 0 l 586 0 m 370 -11 q 219 29 289 -11 q 107 151 149 69 q 64 359 64 233 q 113 580 64 485 q 248 730 161 676 q 453 783 335 783 q 573 766 524 783 q 635 738 622 749 l 578 635 q 523 660 557 653 q 441 667 488 667 q 334 635 382 667 q 258 538 287 602 q 229 378 230 473 q 276 178 227 242 q 415 115 326 115 q 511 135 469 115 q 578 174 554 156 l 604 95 q 560 53 588 78 q 486 8 532 28 q 370 -11 440 -11 z "},"ē":{"ha":775,"x_min":68,"x_max":707,"o":"m 415 -11 q 158 94 249 -11 q 68 388 68 200 q 108 589 68 500 q 226 730 148 678 q 418 783 304 782 q 528 767 476 785 q 619 712 579 749 q 682 620 658 676 q 707 490 705 565 q 706 412 707 447 q 700 351 706 378 l 161 351 l 175 453 l 557 453 q 550 558 560 508 q 507 639 540 608 q 410 669 474 669 q 313 639 356 669 q 246 538 269 609 q 226 342 222 466 q 262 203 231 254 q 344 131 293 153 q 457 110 394 110 q 522 116 483 110 q 595 131 560 122 q 650 151 631 140 l 681 60 q 611 23 655 39 q 515 -2 567 7 q 415 -11 464 -11 m 225 917 l 225 1032 l 602 1032 l 602 917 l 225 917 z "},"ĕ":{"ha":775,"x_min":68,"x_max":707,"o":"m 415 -11 q 158 94 249 -11 q 68 388 68 200 q 108 589 68 500 q 226 730 148 678 q 418 783 304 782 q 528 767 476 785 q 619 712 579 749 q 682 620 658 676 q 707 490 705 565 q 706 412 707 447 q 700 351 706 378 l 161 351 l 175 453 l 557 453 q 550 558 560 508 q 507 639 540 608 q 410 669 474 669 q 313 639 356 669 q 246 538 269 609 q 226 342 222 466 q 262 203 231 254 q 344 131 293 153 q 457 110 394 110 q 522 116 483 110 q 595 131 560 122 q 650 151 631 140 l 681 60 q 611 23 655 39 q 515 -2 567 7 q 415 -11 464 -11 m 413 886 q 281 923 335 886 q 200 1018 226 960 q 178 1143 173 1077 l 288 1143 q 291 1114 288 1135 q 304 1068 293 1092 q 341 1026 315 1044 q 414 1008 367 1008 q 486 1026 460 1008 q 524 1068 512 1044 q 538 1114 535 1092 q 542 1143 541 1135 l 649 1143 q 625 1018 653 1077 q 542 923 597 960 q 413 886 487 886 z "},"ė":{"ha":775,"x_min":68,"x_max":707,"o":"m 415 -11 q 158 94 249 -11 q 68 388 68 200 q 108 589 68 500 q 226 730 148 678 q 418 783 304 782 q 528 767 476 785 q 619 712 579 749 q 682 620 658 676 q 707 490 705 565 q 706 412 707 447 q 700 351 706 378 l 161 351 l 175 453 l 557 453 q 550 558 560 508 q 507 639 540 608 q 410 669 474 669 q 313 639 356 669 q 246 538 269 609 q 226 342 222 466 q 262 203 231 254 q 344 131 293 153 q 457 110 394 110 q 522 116 483 110 q 595 131 560 122 q 650 151 631 140 l 681 60 q 611 23 655 39 q 515 -2 567 7 q 415 -11 464 -11 m 406 899 q 335 924 365 899 q 305 994 305 950 q 322 1050 305 1025 q 365 1089 339 1074 q 420 1104 392 1104 q 494 1076 469 1104 q 519 1008 519 1049 q 485 930 519 960 q 406 899 451 899 z "},"ę":{"ha":775,"x_min":68,"x_max":707,"o":"m 415 -11 q 158 94 249 -11 q 68 388 68 200 q 108 589 68 500 q 226 730 148 678 q 418 783 304 782 q 528 767 476 785 q 619 712 579 749 q 682 620 658 676 q 707 490 705 565 q 706 412 707 447 q 700 351 706 378 l 161 351 l 175 453 l 557 453 q 550 558 560 508 q 507 639 540 608 q 410 669 474 669 q 313 639 356 669 q 246 538 269 609 q 226 342 222 466 q 262 203 231 254 q 344 131 293 153 q 457 110 394 110 q 522 116 483 110 q 595 131 560 122 q 650 151 631 140 l 681 60 q 611 23 655 39 q 515 -2 567 7 q 415 -11 464 -11 m 390 -347 q 308 -331 347 -347 q 244 -283 269 -315 q 219 -207 219 -252 q 240 -130 218 -169 q 302 -57 262 -91 q 396 0 342 -23 l 443 20 l 524 0 q 446 -47 485 -17 q 383 -110 408 -76 q 358 -176 358 -144 q 380 -229 358 -212 q 444 -246 401 -246 q 515 -233 479 -246 q 567 -214 550 -221 l 578 -297 q 505 -331 551 -314 q 390 -347 458 -347 z "},"ě":{"ha":775,"x_min":68,"x_max":707,"o":"m 415 -11 q 158 94 249 -11 q 68 388 68 200 q 108 589 68 500 q 226 730 148 678 q 418 783 304 782 q 528 767 476 785 q 619 712 579 749 q 682 620 658 676 q 707 490 705 565 q 706 412 707 447 q 700 351 706 378 l 161 351 l 175 453 l 557 453 q 550 558 560 508 q 507 639 540 608 q 410 669 474 669 q 313 639 356 669 q 246 538 269 609 q 226 342 222 466 q 262 203 231 254 q 344 131 293 153 q 457 110 394 110 q 522 116 483 110 q 595 131 560 122 q 650 151 631 140 l 681 60 q 611 23 655 39 q 515 -2 567 7 q 415 -11 464 -11 m 157 1125 l 245 1167 l 414 1012 l 571 1167 l 666 1124 l 482 894 l 346 894 l 157 1125 z "},"ĝ":{"ha":835,"x_min":65,"x_max":817,"o":"m 396 -350 q 154 -294 243 -350 q 65 -122 65 -237 q 86 -45 65 -79 q 138 11 107 -12 q 197 46 168 34 l 300 31 q 267 3 285 17 q 236 -36 249 -12 q 222 -100 222 -60 q 240 -178 222 -146 q 298 -227 258 -210 q 401 -244 337 -244 q 512 -232 461 -244 q 593 -193 563 -219 q 624 -128 624 -167 q 609 -58 624 -87 q 553 -15 594 -30 q 435 0 513 0 l 358 0 q 288 2 319 0 q 233 10 258 3 q 217 17 225 12 q 201 25 210 22 q 132 81 149 45 q 114 151 114 116 q 128 207 114 178 q 168 261 142 235 q 229 307 194 287 l 328 282 q 283 248 303 272 q 263 197 263 224 q 283 140 263 155 q 351 125 303 125 l 490 125 q 636 106 580 125 q 723 56 692 88 q 765 -14 753 24 q 776 -93 776 -53 q 747 -201 776 -153 q 664 -282 717 -249 q 542 -333 611 -315 q 396 -350 474 -350 m 391 264 q 235 296 304 264 q 125 386 165 328 q 85 518 85 443 q 125 667 85 608 q 235 753 165 725 q 394 783 306 782 q 551 758 480 785 q 666 674 623 731 q 708 526 708 617 q 667 383 708 442 q 555 294 626 324 q 391 264 483 264 m 395 368 q 509 400 467 368 q 551 522 551 433 q 515 638 551 598 q 403 678 478 678 q 323 665 360 678 q 264 619 286 653 q 242 524 242 586 q 278 415 242 461 q 395 368 315 368 m 623 653 l 579 717 q 640 758 594 737 q 740 778 685 778 l 817 778 l 817 653 l 623 653 m 215 862 l 138 903 l 333 1141 l 458 1141 l 647 903 l 563 863 l 392 1012 l 215 862 z "},"ğ":{"ha":835,"x_min":65,"x_max":817,"o":"m 396 -350 q 154 -294 243 -350 q 65 -122 65 -237 q 86 -45 65 -79 q 138 11 107 -12 q 197 46 168 34 l 300 31 q 267 3 285 17 q 236 -36 249 -12 q 222 -100 222 -60 q 240 -178 222 -146 q 298 -227 258 -210 q 401 -244 337 -244 q 512 -232 461 -244 q 593 -193 563 -219 q 624 -128 624 -167 q 609 -58 624 -87 q 553 -15 594 -30 q 435 0 513 0 l 358 0 q 288 2 319 0 q 233 10 258 3 q 217 17 225 12 q 201 25 210 22 q 132 81 149 45 q 114 151 114 116 q 128 207 114 178 q 168 261 142 235 q 229 307 194 287 l 328 282 q 283 248 303 272 q 263 197 263 224 q 283 140 263 155 q 351 125 303 125 l 490 125 q 636 106 580 125 q 723 56 692 88 q 765 -14 753 24 q 776 -93 776 -53 q 747 -201 776 -153 q 664 -282 717 -249 q 542 -333 611 -315 q 396 -350 474 -350 m 391 264 q 235 296 304 264 q 125 386 165 328 q 85 518 85 443 q 125 667 85 608 q 235 753 165 725 q 394 783 306 782 q 551 758 480 785 q 666 674 623 731 q 708 526 708 617 q 667 383 708 442 q 555 294 626 324 q 391 264 483 264 m 395 368 q 509 400 467 368 q 551 522 551 433 q 515 638 551 598 q 403 678 478 678 q 323 665 360 678 q 264 619 286 653 q 242 524 242 586 q 278 415 242 461 q 395 368 315 368 m 623 653 l 579 717 q 640 758 594 737 q 740 778 685 778 l 817 778 l 817 653 l 623 653 m 392 886 q 261 923 315 886 q 180 1018 206 960 q 158 1143 153 1077 l 267 1143 q 270 1114 268 1135 q 284 1068 273 1092 q 321 1026 295 1044 q 394 1008 347 1008 q 466 1026 440 1008 q 503 1068 492 1044 q 518 1114 515 1092 q 522 1143 521 1135 l 628 1143 q 605 1018 633 1077 q 522 923 576 960 q 392 886 467 886 z "},"ġ":{"ha":835,"x_min":65,"x_max":817,"o":"m 396 -350 q 154 -294 243 -350 q 65 -122 65 -237 q 86 -45 65 -79 q 138 11 107 -12 q 197 46 168 34 l 300 31 q 267 3 285 17 q 236 -36 249 -12 q 222 -100 222 -60 q 240 -178 222 -146 q 298 -227 258 -210 q 401 -244 337 -244 q 512 -232 461 -244 q 593 -193 563 -219 q 624 -128 624 -167 q 609 -58 624 -87 q 553 -15 594 -30 q 435 0 513 0 l 358 0 q 288 2 319 0 q 233 10 258 3 q 217 17 225 12 q 201 25 210 22 q 132 81 149 45 q 114 151 114 116 q 128 207 114 178 q 168 261 142 235 q 229 307 194 287 l 328 282 q 283 248 303 272 q 263 197 263 224 q 283 140 263 155 q 351 125 303 125 l 490 125 q 636 106 580 125 q 723 56 692 88 q 765 -14 753 24 q 776 -93 776 -53 q 747 -201 776 -153 q 664 -282 717 -249 q 542 -333 611 -315 q 396 -350 474 -350 m 391 264 q 235 296 304 264 q 125 386 165 328 q 85 518 85 443 q 125 667 85 608 q 235 753 165 725 q 394 783 306 782 q 551 758 480 785 q 666 674 623 731 q 708 526 708 617 q 667 383 708 442 q 555 294 626 324 q 391 264 483 264 m 395 368 q 509 400 467 368 q 551 522 551 433 q 515 638 551 598 q 403 678 478 678 q 323 665 360 678 q 264 619 286 653 q 242 524 242 586 q 278 415 242 461 q 395 368 315 368 m 623 653 l 579 717 q 640 758 594 737 q 740 778 685 778 l 817 778 l 817 653 l 623 653 m 385 899 q 315 924 345 899 q 285 994 285 950 q 302 1050 285 1025 q 345 1089 319 1074 q 400 1104 372 1104 q 474 1076 449 1104 q 499 1008 499 1049 q 465 930 499 960 q 385 899 431 899 z "},"ģ":{"ha":835,"x_min":65,"x_max":817,"o":"m 396 -350 q 154 -294 243 -350 q 65 -122 65 -237 q 86 -45 65 -79 q 138 11 107 -12 q 197 46 168 34 l 300 31 q 267 3 285 17 q 236 -36 249 -12 q 222 -100 222 -60 q 240 -178 222 -146 q 298 -227 258 -210 q 401 -244 337 -244 q 512 -232 461 -244 q 593 -193 563 -219 q 624 -128 624 -167 q 609 -58 624 -87 q 553 -15 594 -30 q 435 0 513 0 l 358 0 q 288 2 319 0 q 233 10 258 3 q 217 17 225 12 q 201 25 210 22 q 132 81 149 45 q 114 151 114 116 q 128 207 114 178 q 168 261 142 235 q 229 307 194 287 l 328 282 q 283 248 303 272 q 263 197 263 224 q 283 140 263 155 q 351 125 303 125 l 490 125 q 636 106 580 125 q 723 56 692 88 q 765 -14 753 24 q 776 -93 776 -53 q 747 -201 776 -153 q 664 -282 717 -249 q 542 -333 611 -315 q 396 -350 474 -350 m 391 264 q 235 296 304 264 q 125 386 165 328 q 85 518 85 443 q 125 667 85 608 q 235 753 165 725 q 394 783 306 782 q 551 758 480 785 q 666 674 623 731 q 708 526 708 617 q 667 383 708 442 q 555 294 626 324 q 391 264 483 264 m 395 368 q 509 400 467 368 q 551 522 551 433 q 515 638 551 598 q 403 678 478 678 q 323 665 360 678 q 264 619 286 653 q 242 524 242 586 q 278 415 242 461 q 395 368 315 368 m 623 653 l 579 717 q 640 758 594 737 q 740 778 685 778 l 817 778 l 817 653 l 623 653 m 401 865 q 326 897 354 865 q 298 988 298 928 q 315 1069 298 1033 q 354 1132 331 1106 q 397 1173 377 1158 q 424 1190 417 1188 l 427 1190 l 473 1161 l 473 1151 q 431 1110 447 1140 q 415 1044 415 1080 q 426 1009 415 1022 q 451 989 438 997 q 473 968 463 981 q 483 932 483 956 q 468 889 483 903 q 436 870 454 875 q 408 865 418 865 l 401 865 z "}}}
